<svg width="21" height="20" viewBox="0 0 21 20" fill="none" xmlns="http://www.w3.org/2000/svg">
<path d="M9.73554 2.87774C9.92761 2.48863 10.0236 2.29407 10.154 2.23191C10.2675 2.17782 10.3992 2.17782 10.5127 2.23191C10.643 2.29407 10.7391 2.48863 10.9312 2.87774L12.7534 6.56938C12.8101 6.68426 12.8384 6.7417 12.8799 6.78629C12.9166 6.82578 12.9606 6.85777 13.0094 6.8805C13.0646 6.90617 13.128 6.91543 13.2548 6.93396L17.3308 7.52973C17.7601 7.59247 17.9747 7.62384 18.074 7.72868C18.1604 7.81989 18.201 7.94523 18.1846 8.06979C18.1657 8.21296 18.0103 8.3643 17.6996 8.66696L14.7512 11.5387C14.6593 11.6282 14.6133 11.6729 14.5837 11.7262C14.5574 11.7734 14.5406 11.8252 14.5341 11.8787C14.5268 11.9392 14.5376 12.0025 14.5593 12.1289L15.255 16.1851C15.3283 16.6129 15.365 16.8268 15.2961 16.9537C15.2361 17.0642 15.1295 17.1416 15.0059 17.1645C14.8639 17.1909 14.6718 17.0899 14.2876 16.8878L10.6436 14.9715C10.5301 14.9118 10.4733 14.8819 10.4135 14.8702C10.3606 14.8598 10.3061 14.8598 10.2532 14.8702C10.1934 14.8819 10.1366 14.9118 10.023 14.9715L6.3791 16.8878C5.99493 17.0899 5.80284 17.1909 5.66081 17.1645C5.53723 17.1416 5.4306 17.0642 5.37061 16.9537C5.30167 16.8268 5.33835 16.6129 5.41173 16.1851L6.10741 12.1289C6.12909 12.0025 6.13994 11.9392 6.1326 11.8787C6.1261 11.8252 6.10926 11.7734 6.083 11.7262C6.05335 11.6729 6.0074 11.6282 5.91549 11.5387L2.96713 8.66696C2.65639 8.3643 2.50101 8.21296 2.48211 8.06979C2.46566 7.94523 2.50629 7.81989 2.59271 7.72868C2.69203 7.62384 2.90664 7.59247 3.33587 7.52973L7.41193 6.93396C7.53869 6.91543 7.60207 6.90617 7.65726 6.8805C7.70614 6.85777 7.75013 6.82578 7.78682 6.78629C7.82826 6.7417 7.85661 6.68426 7.91331 6.56938L9.73554 2.87774Z" fill="#027A48" stroke="#027A48" stroke-width="1.5" stroke-linecap="round" stroke-linejoin="round"/>
</svg>
