<svg width="426" height="192" viewBox="0 0 426 192" fill="none" xmlns="http://www.w3.org/2000/svg">
<defs>
<linearGradient id="paint0_linear_1924_26626" x1="213" y1="192" x2="213" y2="-68" gradientUnits="userSpaceOnUse">
<stop offset="0.0179944" stop-color="#002555"/>
<stop offset="1" stop-color="#002555" stop-opacity="0.15"/>
</linearGradient>
<clipPath id="clip0_1924_26626">
<rect width="426" height="192" fill="white"/>
</clipPath>
</defs>
<g clip-path="url(#clip0_1924_26626)">
<rect width="426" height="192" fill="#F2F4F7"/>
<path d="M41.44 49.288C39.184 49.288 37.496 48.568 36.376 47.128C35.272 45.672 34.72 43.592 34.72 40.888C34.72 38.024 35.272 35.824 36.376 34.288C37.496 32.736 39.184 31.96 41.44 31.96C43.696 31.96 45.376 32.736 46.48 34.288C47.6 35.824 48.16 38.024 48.16 40.888C48.16 43.592 47.6 45.672 46.48 47.128C45.376 48.568 43.696 49.288 41.44 49.288ZM41.44 46.84C42.64 46.84 43.464 46.328 43.912 45.304C44.376 44.264 44.608 42.792 44.608 40.888C44.608 38.792 44.376 37.192 43.912 36.088C43.464 34.968 42.64 34.408 41.44 34.408C40.208 34.408 39.368 34.96 38.92 36.064C38.488 37.168 38.272 38.776 38.272 40.888C38.272 42.808 38.496 44.28 38.944 45.304C39.392 46.328 40.224 46.84 41.44 46.84ZM59.0108 46.72V49H49.7948V46.72H52.7228V36.232C52.0508 36.712 51.3868 36.952 50.7308 36.952C50.2348 36.952 49.8188 36.816 49.4828 36.544C49.1628 36.272 49.0028 35.84 49.0028 35.248C49.0028 34.928 49.0428 34.616 49.1228 34.312C49.8748 34.232 50.7548 34.008 51.7628 33.64C52.7708 33.256 53.5708 32.776 54.1628 32.2H56.2028V46.72H59.0108Z" fill="#002555"/>
<path d="M71.9574 49.1591C71.321 49.1591 70.7592 48.9983 70.272 48.6768C69.7848 48.352 69.4036 47.8946 69.1286 47.3047C68.8535 46.7114 68.7159 46.0104 68.7159 45.2017C68.7159 44.3996 68.8535 43.7036 69.1286 43.1136C69.4036 42.5237 69.7865 42.0679 70.277 41.7464C70.7675 41.425 71.3343 41.2642 71.9773 41.2642C72.4744 41.2642 72.8672 41.3471 73.1555 41.5128C73.4472 41.6752 73.6693 41.8608 73.8217 42.0696C73.9775 42.2751 74.0985 42.4441 74.1847 42.5767H74.2841V38.8182H75.4574V49H74.3239V47.8267H74.1847C74.0985 47.9659 73.9759 48.1416 73.8168 48.3537C73.6577 48.5625 73.4306 48.7498 73.1357 48.9155C72.8407 49.0779 72.4479 49.1591 71.9574 49.1591ZM72.1165 48.1051C72.5871 48.1051 72.9848 47.9825 73.3097 47.7372C73.6345 47.4886 73.8814 47.1456 74.0504 46.7081C74.2195 46.2673 74.304 45.7585 74.304 45.1818C74.304 44.6117 74.2211 44.1129 74.0554 43.6854C73.8897 43.2545 73.6444 42.9197 73.3196 42.6811C72.9948 42.4392 72.5938 42.3182 72.1165 42.3182C71.6193 42.3182 71.205 42.4458 70.8736 42.701C70.5455 42.9529 70.2985 43.2959 70.1328 43.7301C69.9704 44.161 69.8892 44.6449 69.8892 45.1818C69.8892 45.7254 69.9721 46.2192 70.1378 46.6634C70.3068 47.1042 70.5554 47.4555 70.8835 47.7173C71.215 47.9759 71.6259 48.1051 72.1165 48.1051ZM80.9709 49.1591C80.2351 49.1591 79.6004 48.9967 79.0668 48.6719C78.5365 48.3438 78.1271 47.8864 77.8388 47.2997C77.5537 46.7098 77.4112 46.0237 77.4112 45.2415C77.4112 44.4593 77.5537 43.7699 77.8388 43.1733C78.1271 42.5734 78.5282 42.1061 79.0419 41.7713C79.5589 41.4332 80.1622 41.2642 80.8516 41.2642C81.2493 41.2642 81.642 41.3305 82.0298 41.4631C82.4176 41.5956 82.7706 41.8111 83.0888 42.1094C83.407 42.4044 83.6605 42.7955 83.8494 43.2827C84.0384 43.7699 84.1328 44.3698 84.1328 45.0824V45.5795H78.2464V44.5653H82.9396C82.9396 44.1345 82.8535 43.75 82.6811 43.4119C82.5121 43.0739 82.2701 42.8071 81.9553 42.6115C81.6437 42.416 81.2758 42.3182 80.8516 42.3182C80.3842 42.3182 79.9799 42.4342 79.6385 42.6662C79.3004 42.8949 79.0402 43.1932 78.858 43.5611C78.6757 43.929 78.5845 44.3234 78.5845 44.7443V45.4205C78.5845 45.9972 78.6839 46.486 78.8828 46.8871C79.085 47.2848 79.3651 47.5881 79.723 47.7969C80.081 48.0024 80.4969 48.1051 80.9709 48.1051C81.2791 48.1051 81.5575 48.062 81.8061 47.9759C82.058 47.8864 82.2751 47.7538 82.4574 47.5781C82.6397 47.3991 82.7805 47.1771 82.88 46.9119L84.0135 47.2301C83.8942 47.6146 83.6937 47.9527 83.4119 48.2443C83.1302 48.5327 82.7822 48.758 82.3679 48.9205C81.9536 49.0795 81.4879 49.1591 80.9709 49.1591ZM93.4148 38.8182V49H92.1818V40.1108H92.1222L89.6364 41.7614V40.5085L92.1818 38.8182H93.4148ZM99.6641 49.1392C98.915 49.1392 98.277 48.9354 97.75 48.5277C97.223 48.1167 96.8203 47.5218 96.5419 46.7429C96.2635 45.9607 96.1243 45.0161 96.1243 43.9091C96.1243 42.8087 96.2635 41.8691 96.5419 41.0902C96.8236 40.308 97.228 39.7114 97.755 39.3004C98.2853 38.8861 98.9216 38.679 99.6641 38.679C100.406 38.679 101.041 38.8861 101.568 39.3004C102.098 39.7114 102.503 40.308 102.781 41.0902C103.063 41.8691 103.204 42.8087 103.204 43.9091C103.204 45.0161 103.065 45.9607 102.786 46.7429C102.508 47.5218 102.105 48.1167 101.578 48.5277C101.051 48.9354 100.413 49.1392 99.6641 49.1392ZM99.6641 48.0455C100.406 48.0455 100.983 47.6875 101.394 46.9716C101.805 46.2557 102.011 45.2348 102.011 43.9091C102.011 43.0275 101.916 42.2768 101.727 41.657C101.542 41.0372 101.273 40.5649 100.922 40.2401C100.574 39.9152 100.155 39.7528 99.6641 39.7528C98.9283 39.7528 98.3532 40.1158 97.9389 40.8416C97.5246 41.5642 97.3175 42.5866 97.3175 43.9091C97.3175 44.7907 97.4103 45.5398 97.5959 46.1562C97.7815 46.7727 98.0483 47.2417 98.3963 47.5632C98.7476 47.8847 99.1702 48.0455 99.6641 48.0455Z" fill="#667085"/>
<rect x="34" y="64" width="358" height="12" fill="#EAECF0"/>
<rect x="34" y="80" width="358" height="12" fill="#EAECF0"/>
<rect x="34" y="96" width="358" height="12" fill="#EAECF0"/>
<rect x="34" y="112" width="358" height="12" fill="#EAECF0"/>
<rect x="34" y="128" width="358" height="12" fill="#EAECF0"/>
<rect x="34" y="144" width="358" height="12" fill="#EAECF0"/>
<rect x="34" y="160" width="358" height="12" fill="#EAECF0"/>
<rect width="426" height="192" fill="url(#paint0_linear_1924_26626)" fill-opacity="0.8"/>
</g>
</svg>
