<svg width="390" height="340" viewBox="0 0 390 340" fill="none" xmlns="http://www.w3.org/2000/svg">
<g clip-path="url(#clip0_552_24372)">
<g opacity="0.8">
<path d="M433 303.4H-67V303.65H433V303.4Z" fill="#FCFCFD"/>
<path d="M382.9 319.49H349.78V319.74H382.9V319.49Z" fill="#FCFCFD"/>
<path d="M264.22 322.21H255.53V322.46H264.22V322.21Z" fill="#FCFCFD"/>
<path d="M348.78 310.21H329.59V310.46H348.78V310.21Z" fill="#FCFCFD"/>
<path d="M28.65 311.89H-14.54V312.14H28.65V311.89Z" fill="#FCFCFD"/>
<path d="M43.8901 311.89H37.5601V312.14H43.8901V311.89Z" fill="#FCFCFD"/>
<path d="M158.15 316.11H64.47V316.36H158.15V316.11Z" fill="#FCFCFD"/>
<path d="M386.31 258.8H193.21C191.696 258.797 190.246 258.195 189.175 257.125C188.105 256.054 187.503 254.604 187.5 253.09V-18.34C187.516 -19.8449 188.124 -21.2829 189.193 -22.3424C190.262 -23.4019 191.705 -23.9975 193.21 -24H386.31C387.812 -23.9948 389.252 -23.3978 390.317 -22.3383C391.382 -21.2788 391.987 -19.8422 392 -18.34V253.09C392 254.601 391.401 256.05 390.335 257.121C389.268 258.191 387.821 258.795 386.31 258.8ZM193.21 -23.8C191.763 -23.7974 190.375 -23.2213 189.352 -22.1979C188.329 -21.1745 187.753 -19.7873 187.75 -18.34V253.09C187.753 254.537 188.329 255.924 189.352 256.948C190.375 257.971 191.763 258.547 193.21 258.55H386.31C387.757 258.547 389.145 257.971 390.168 256.948C391.191 255.924 391.767 254.537 391.77 253.09V-18.34C391.767 -19.7873 391.191 -21.1745 390.168 -22.1979C389.145 -23.2213 387.757 -23.7974 386.31 -23.8H193.21Z" fill="#FCFCFD"/>
<path d="M367 306V262.607H363.292V241.939H357.859V170.045H350.015V160.768L333.272 152.964V143.603H330.954V170.045H327.709V241.939H324.455V204.134H315.647V184.652H313.181V241.939H306.487V220.131H302.084V214.57H291.876V195.551H286.286V182.103H279.416V162.51H276.959V182.103H270.089V195.551H264.498V214.57H254.291V220.131H249.887V241.939H244.658V214.57H234.451V155.671H231.206V149.174H209.4V155.671H204.755V198.332H186.204V202.512H179.241V205.756H186.204V222.457H166.716V166.802H162.534V154.975H153.495V113H150.936V154.975H144.446V166.802H106.361V162.909H104.043V189.342H100.798V189.805H98.8417V216.238H95.5968V223.43H88.7362V203.948H86.2793V250.335H83.5351V230.854H81.0782V261.235H79.5763V239.436H75.1725V233.866H64.965V214.848H59.3745V201.4H52.5046V181.807H50.057V201.4H43.1778V214.848H37.5873V233.866H27.3891V239.436H22.976V260.771H22.188V261.235H20V306H367Z" fill="#EAECF0"/>
<path d="M111.63 154.4H108.79V157.24H111.63V154.4Z" fill="#EAECF0"/>
<path d="M111.63 159.16H108.79V162H111.63V159.16Z" fill="#EAECF0"/>
<path d="M111.63 178.17H108.79V181.01H111.63V178.17Z" fill="#EAECF0"/>
<path d="M111.63 182.93H108.79V185.77H111.63V182.93Z" fill="#EAECF0"/>
<path d="M111.63 187.68H108.79V190.52H111.63V187.68Z" fill="#EAECF0"/>
<path d="M111.63 201.94H108.79V204.78H111.63V201.94Z" fill="#EAECF0"/>
<path d="M111.63 206.7H108.79V209.54H111.63V206.7Z" fill="#EAECF0"/>
<path d="M116.14 173.42H113.3V176.26H116.14V173.42Z" fill="#EAECF0"/>
<path d="M116.14 178.17H113.3V181.01H116.14V178.17Z" fill="#EAECF0"/>
<path d="M116.14 182.93H113.3V185.77H116.14V182.93Z" fill="#EAECF0"/>
<path d="M116.14 187.68H113.3V190.52H116.14V187.68Z" fill="#EAECF0"/>
<path d="M116.14 192.43H113.3V195.27H116.14V192.43Z" fill="#EAECF0"/>
<path d="M116.14 201.94H113.3V204.78H116.14V201.94Z" fill="#EAECF0"/>
<path d="M116.14 206.7H113.3V209.54H116.14V206.7Z" fill="#EAECF0"/>
<path d="M120.64 154.4H117.8V157.24H120.64V154.4Z" fill="#EAECF0"/>
<path d="M120.64 159.16H117.8V162H120.64V159.16Z" fill="#EAECF0"/>
<path d="M120.64 163.91H117.8V166.75H120.64V163.91Z" fill="#EAECF0"/>
<path d="M120.64 168.66H117.8V171.5H120.64V168.66Z" fill="#EAECF0"/>
<path d="M120.64 173.42H117.8V176.26H120.64V173.42Z" fill="#EAECF0"/>
<path d="M120.64 178.17H117.8V181.01H120.64V178.17Z" fill="#EAECF0"/>
<path d="M120.64 182.93H117.8V185.77H120.64V182.93Z" fill="#EAECF0"/>
<path d="M120.64 187.68H117.8V190.52H120.64V187.68Z" fill="#EAECF0"/>
<path d="M120.64 192.43H117.8V195.27H120.64V192.43Z" fill="#EAECF0"/>
<path d="M120.64 197.19H117.8V200.03H120.64V197.19Z" fill="#EAECF0"/>
<path d="M120.64 206.7H117.8V209.54H120.64V206.7Z" fill="#EAECF0"/>
<path d="M125.14 154.4H122.3V157.24H125.14V154.4Z" fill="#EAECF0"/>
<path d="M125.14 159.16H122.3V162H125.14V159.16Z" fill="#EAECF0"/>
<path d="M125.14 163.91H122.3V166.75H125.14V163.91Z" fill="#EAECF0"/>
<path d="M125.14 168.66H122.3V171.5H125.14V168.66Z" fill="#EAECF0"/>
<path d="M125.14 173.42H122.3V176.26H125.14V173.42Z" fill="#EAECF0"/>
<path d="M125.14 178.17H122.3V181.01H125.14V178.17Z" fill="#EAECF0"/>
<path d="M125.14 182.93H122.3V185.77H125.14V182.93Z" fill="#EAECF0"/>
<path d="M125.14 225.71H122.3V228.55H125.14V225.71Z" fill="#EAECF0"/>
<path d="M129.65 154.4H126.81V157.24H129.65V154.4Z" fill="#EAECF0"/>
<path d="M129.65 159.16H126.81V162H129.65V159.16Z" fill="#EAECF0"/>
<path d="M129.65 163.91H126.81V166.75H129.65V163.91Z" fill="#EAECF0"/>
<path d="M129.65 168.66H126.81V171.5H129.65V168.66Z" fill="#EAECF0"/>
<path d="M129.65 173.42H126.81V176.26H129.65V173.42Z" fill="#EAECF0"/>
<path d="M129.65 178.17H126.81V181.01H129.65V178.17Z" fill="#EAECF0"/>
<path d="M129.65 182.93H126.81V185.77H129.65V182.93Z" fill="#EAECF0"/>
<path d="M129.65 187.68H126.81V190.52H129.65V187.68Z" fill="#EAECF0"/>
<path d="M129.65 216.2H126.81V219.04H129.65V216.2Z" fill="#EAECF0"/>
<path d="M129.65 220.96H126.81V223.8H129.65V220.96Z" fill="#EAECF0"/>
<path d="M129.65 225.71H126.81V228.55H129.65V225.71Z" fill="#EAECF0"/>
<path d="M129.65 230.47H126.81V233.31H129.65V230.47Z" fill="#EAECF0"/>
<path d="M129.65 249.48H126.81V252.32H129.65V249.48Z" fill="#EAECF0"/>
<path d="M134.15 154.4H131.31V157.24H134.15V154.4Z" fill="#EAECF0"/>
<path d="M134.15 159.16H131.31V162H134.15V159.16Z" fill="#EAECF0"/>
<path d="M134.15 163.91H131.31V166.75H134.15V163.91Z" fill="#EAECF0"/>
<path d="M134.15 168.66H131.31V171.5H134.15V168.66Z" fill="#EAECF0"/>
<path d="M134.15 173.42H131.31V176.26H134.15V173.42Z" fill="#EAECF0"/>
<path d="M134.15 178.17H131.31V181.01H134.15V178.17Z" fill="#EAECF0"/>
<path d="M134.15 182.93H131.31V185.77H134.15V182.93Z" fill="#EAECF0"/>
<path d="M134.15 187.68H131.31V190.52H134.15V187.68Z" fill="#EAECF0"/>
<path d="M134.15 192.43H131.31V195.27H134.15V192.43Z" fill="#EAECF0"/>
<path d="M134.15 197.19H131.31V200.03H134.15V197.19Z" fill="#EAECF0"/>
<path d="M134.15 211.45H131.31V214.29H134.15V211.45Z" fill="#EAECF0"/>
<path d="M134.15 216.2H131.31V219.04H134.15V216.2Z" fill="#EAECF0"/>
<path d="M134.15 220.96H131.31V223.8H134.15V220.96Z" fill="#EAECF0"/>
<path d="M134.15 225.71H131.31V228.55H134.15V225.71Z" fill="#EAECF0"/>
<path d="M134.15 230.47H131.31V233.31H134.15V230.47Z" fill="#EAECF0"/>
<path d="M134.15 249.48H131.31V252.32H134.15V249.48Z" fill="#EAECF0"/>
<path d="M138.65 154.4H135.81V157.24H138.65V154.4Z" fill="#EAECF0"/>
<path d="M138.65 159.16H135.81V162H138.65V159.16Z" fill="#EAECF0"/>
<path d="M138.65 163.91H135.81V166.75H138.65V163.91Z" fill="#EAECF0"/>
<path d="M138.65 168.66H135.81V171.5H138.65V168.66Z" fill="#EAECF0"/>
<path d="M138.65 173.42H135.81V176.26H138.65V173.42Z" fill="#EAECF0"/>
<path d="M138.65 178.17H135.81V181.01H138.65V178.17Z" fill="#EAECF0"/>
<path d="M138.65 182.93H135.81V185.77H138.65V182.93Z" fill="#EAECF0"/>
<path d="M138.65 187.68H135.81V190.52H138.65V187.68Z" fill="#EAECF0"/>
<path d="M138.65 192.43H135.81V195.27H138.65V192.43Z" fill="#EAECF0"/>
<path d="M138.65 197.19H135.81V200.03H138.65V197.19Z" fill="#EAECF0"/>
<path d="M138.65 201.94H135.81V204.78H138.65V201.94Z" fill="#EAECF0"/>
<path d="M138.65 206.7H135.81V209.54H138.65V206.7Z" fill="#EAECF0"/>
<path d="M138.65 211.45H135.81V214.29H138.65V211.45Z" fill="#EAECF0"/>
<path d="M138.65 216.2H135.81V219.04H138.65V216.2Z" fill="#EAECF0"/>
<path d="M138.65 220.96H135.81V223.8H138.65V220.96Z" fill="#EAECF0"/>
<path d="M138.65 225.71H135.81V228.55H138.65V225.71Z" fill="#EAECF0"/>
<path d="M138.65 230.47H135.81V233.31H138.65V230.47Z" fill="#EAECF0"/>
<path d="M138.65 235.22H135.81V238.06H138.65V235.22Z" fill="#EAECF0"/>
<path d="M143.16 154.4H140.32V157.24H143.16V154.4Z" fill="#EAECF0"/>
<path d="M143.16 159.16H140.32V162H143.16V159.16Z" fill="#EAECF0"/>
<path d="M143.16 163.91H140.32V166.75H143.16V163.91Z" fill="#EAECF0"/>
<path d="M143.16 168.66H140.32V171.5H143.16V168.66Z" fill="#EAECF0"/>
<path d="M143.16 173.42H140.32V176.26H143.16V173.42Z" fill="#EAECF0"/>
<path d="M143.16 178.17H140.32V181.01H143.16V178.17Z" fill="#EAECF0"/>
<path d="M143.16 182.93H140.32V185.77H143.16V182.93Z" fill="#EAECF0"/>
<path d="M143.16 187.68H140.32V190.52H143.16V187.68Z" fill="#EAECF0"/>
<path d="M143.16 192.43H140.32V195.27H143.16V192.43Z" fill="#EAECF0"/>
<path d="M143.16 197.19H140.32V200.03H143.16V197.19Z" fill="#EAECF0"/>
<path d="M143.16 211.45H140.32V214.29H143.16V211.45Z" fill="#EAECF0"/>
<path d="M143.16 216.2H140.32V219.04H143.16V216.2Z" fill="#EAECF0"/>
<path d="M143.16 220.96H140.32V223.8H143.16V220.96Z" fill="#EAECF0"/>
<path d="M143.16 225.71H140.32V228.55H143.16V225.71Z" fill="#EAECF0"/>
<path d="M147.66 154.4H144.82V157.24H147.66V154.4Z" fill="#EAECF0"/>
<path d="M147.66 159.16H144.82V162H147.66V159.16Z" fill="#EAECF0"/>
<path d="M147.66 163.91H144.82V166.75H147.66V163.91Z" fill="#EAECF0"/>
<path d="M147.66 168.66H144.82V171.5H147.66V168.66Z" fill="#EAECF0"/>
<path d="M147.66 173.42H144.82V176.26H147.66V173.42Z" fill="#EAECF0"/>
<path d="M147.66 178.17H144.82V181.01H147.66V178.17Z" fill="#EAECF0"/>
<path d="M147.66 182.93H144.82V185.77H147.66V182.93Z" fill="#EAECF0"/>
<path d="M147.66 187.68H144.82V190.52H147.66V187.68Z" fill="#EAECF0"/>
<path d="M147.66 192.43H144.82V195.27H147.66V192.43Z" fill="#EAECF0"/>
<path d="M147.66 197.19H144.82V200.03H147.66V197.19Z" fill="#EAECF0"/>
<path d="M147.66 211.45H144.82V214.29H147.66V211.45Z" fill="#EAECF0"/>
<path d="M147.66 216.2H144.82V219.04H147.66V216.2Z" fill="#EAECF0"/>
<path d="M147.66 220.96H144.82V223.8H147.66V220.96Z" fill="#EAECF0"/>
<path d="M198.37 142.06H195.53V144.9H198.37V142.06Z" fill="#EAECF0"/>
<path d="M198.37 146.81H195.53V149.65H198.37V146.81Z" fill="#EAECF0"/>
<path d="M198.37 151.57H195.53V154.41H198.37V151.57Z" fill="#EAECF0"/>
<path d="M198.37 156.32H195.53V159.16H198.37V156.32Z" fill="#EAECF0"/>
<path d="M198.37 161.07H195.53V163.91H198.37V161.07Z" fill="#EAECF0"/>
<path d="M198.37 165.83H195.53V168.67H198.37V165.83Z" fill="#EAECF0"/>
<path d="M198.37 170.58H195.53V173.42H198.37V170.58Z" fill="#EAECF0"/>
<path d="M198.37 175.34H195.53V178.18H198.37V175.34Z" fill="#EAECF0"/>
<path d="M198.37 189.6H195.53V192.44H198.37V189.6Z" fill="#EAECF0"/>
<path d="M198.37 194.35H195.53V197.19H198.37V194.35Z" fill="#EAECF0"/>
<path d="M202.88 142.06H200.04V144.9H202.88V142.06Z" fill="#EAECF0"/>
<path d="M202.88 146.81H200.04V149.65H202.88V146.81Z" fill="#EAECF0"/>
<path d="M202.88 151.57H200.04V154.41H202.88V151.57Z" fill="#EAECF0"/>
<path d="M202.88 156.32H200.04V159.16H202.88V156.32Z" fill="#EAECF0"/>
<path d="M202.88 161.07H200.04V163.91H202.88V161.07Z" fill="#EAECF0"/>
<path d="M202.88 165.83H200.04V168.67H202.88V165.83Z" fill="#EAECF0"/>
<path d="M202.88 170.58H200.04V173.42H202.88V170.58Z" fill="#EAECF0"/>
<path d="M202.88 175.34H200.04V178.18H202.88V175.34Z" fill="#EAECF0"/>
<path d="M202.88 194.35H200.04V197.19H202.88V194.35Z" fill="#EAECF0"/>
<path d="M207.38 142.06H204.54V144.9H207.38V142.06Z" fill="#EAECF0"/>
<path d="M207.38 146.81H204.54V149.65H207.38V146.81Z" fill="#EAECF0"/>
<path d="M207.38 151.57H204.54V154.41H207.38V151.57Z" fill="#EAECF0"/>
<path d="M207.38 156.32H204.54V159.16H207.38V156.32Z" fill="#EAECF0"/>
<path d="M207.38 161.07H204.54V163.91H207.38V161.07Z" fill="#EAECF0"/>
<path d="M207.38 165.83H204.54V168.67H207.38V165.83Z" fill="#EAECF0"/>
<path d="M207.38 170.58H204.54V173.42H207.38V170.58Z" fill="#EAECF0"/>
<path d="M207.38 175.34H204.54V178.18H207.38V175.34Z" fill="#EAECF0"/>
<path d="M211.88 142.06H209.04V144.9H211.88V142.06Z" fill="#EAECF0"/>
<path d="M211.88 146.81H209.04V149.65H211.88V146.81Z" fill="#EAECF0"/>
<path d="M211.88 151.57H209.04V154.41H211.88V151.57Z" fill="#EAECF0"/>
<path d="M211.88 156.32H209.04V159.16H211.88V156.32Z" fill="#EAECF0"/>
<path d="M211.88 161.07H209.04V163.91H211.88V161.07Z" fill="#EAECF0"/>
<path d="M211.88 165.83H209.04V168.67H211.88V165.83Z" fill="#EAECF0"/>
<path d="M211.88 175.34H209.04V178.18H211.88V175.34Z" fill="#EAECF0"/>
<path d="M211.88 180.09H209.04V182.93H211.88V180.09Z" fill="#EAECF0"/>
<path d="M211.88 194.35H209.04V197.19H211.88V194.35Z" fill="#EAECF0"/>
<path d="M211.88 199.11H209.04V201.95H211.88V199.11Z" fill="#EAECF0"/>
<path d="M211.88 203.86H209.04V206.7H211.88V203.86Z" fill="#EAECF0"/>
<path d="M211.88 208.61H209.04V211.45H211.88V208.61Z" fill="#EAECF0"/>
<path d="M211.88 213.37H209.04V216.21H211.88V213.37Z" fill="#EAECF0"/>
<path d="M211.88 218.12H209.04V220.96H211.88V218.12Z" fill="#EAECF0"/>
<path d="M211.88 222.88H209.04V225.72H211.88V222.88Z" fill="#EAECF0"/>
<path d="M216.39 142.06H213.55V144.9H216.39V142.06Z" fill="#EAECF0"/>
<path d="M216.39 146.81H213.55V149.65H216.39V146.81Z" fill="#EAECF0"/>
<path d="M216.39 151.57H213.55V154.41H216.39V151.57Z" fill="#EAECF0"/>
<path d="M216.39 156.32H213.55V159.16H216.39V156.32Z" fill="#EAECF0"/>
<path d="M216.39 161.07H213.55V163.91H216.39V161.07Z" fill="#EAECF0"/>
<path d="M216.39 165.83H213.55V168.67H216.39V165.83Z" fill="#EAECF0"/>
<path d="M216.39 180.09H213.55V182.93H216.39V180.09Z" fill="#EAECF0"/>
<path d="M216.39 184.84H213.55V187.68H216.39V184.84Z" fill="#EAECF0"/>
<path d="M216.39 189.6H213.55V192.44H216.39V189.6Z" fill="#EAECF0"/>
<path d="M216.39 194.35H213.55V197.19H216.39V194.35Z" fill="#EAECF0"/>
<path d="M216.39 199.11H213.55V201.95H216.39V199.11Z" fill="#EAECF0"/>
<path d="M216.39 203.86H213.55V206.7H216.39V203.86Z" fill="#EAECF0"/>
<path d="M216.39 208.61H213.55V211.45H216.39V208.61Z" fill="#EAECF0"/>
<path d="M216.39 213.37H213.55V216.21H216.39V213.37Z" fill="#EAECF0"/>
<path d="M216.39 218.12H213.55V220.96H216.39V218.12Z" fill="#EAECF0"/>
<path d="M216.39 222.88H213.55V225.72H216.39V222.88Z" fill="#EAECF0"/>
<path d="M216.39 227.63H213.55V230.47H216.39V227.63Z" fill="#EAECF0"/>
<path d="M216.39 237.14H213.55V239.98H216.39V237.14Z" fill="#EAECF0"/>
<path d="M220.89 142.06H218.05V144.9H220.89V142.06Z" fill="#EAECF0"/>
<path d="M220.89 146.81H218.05V149.65H220.89V146.81Z" fill="#EAECF0"/>
<path d="M220.89 151.57H218.05V154.41H220.89V151.57Z" fill="#EAECF0"/>
<path d="M220.89 156.32H218.05V159.16H220.89V156.32Z" fill="#EAECF0"/>
<path d="M220.89 161.07H218.05V163.91H220.89V161.07Z" fill="#EAECF0"/>
<path d="M220.89 165.83H218.05V168.67H220.89V165.83Z" fill="#EAECF0"/>
<path d="M220.89 180.09H218.05V182.93H220.89V180.09Z" fill="#EAECF0"/>
<path d="M220.89 184.84H218.05V187.68H220.89V184.84Z" fill="#EAECF0"/>
<path d="M220.89 189.6H218.05V192.44H220.89V189.6Z" fill="#EAECF0"/>
<path d="M220.89 194.35H218.05V197.19H220.89V194.35Z" fill="#EAECF0"/>
<path d="M220.89 208.61H218.05V211.45H220.89V208.61Z" fill="#EAECF0"/>
<path d="M220.89 213.37H218.05V216.21H220.89V213.37Z" fill="#EAECF0"/>
<path d="M220.89 218.12H218.05V220.96H220.89V218.12Z" fill="#EAECF0"/>
<path d="M220.89 222.88H218.05V225.72H220.89V222.88Z" fill="#EAECF0"/>
<path d="M220.89 227.63H218.05V230.47H220.89V227.63Z" fill="#EAECF0"/>
<path d="M220.89 237.14H218.05V239.98H220.89V237.14Z" fill="#EAECF0"/>
<path d="M220.89 241.89H218.05V244.73H220.89V241.89Z" fill="#EAECF0"/>
<path d="M261.76 186.26H258.92V189.1H261.76V186.26Z" fill="#EAECF0"/>
<path d="M261.76 191.02H258.92V193.86H261.76V191.02Z" fill="#EAECF0"/>
<path d="M261.76 195.77H258.92V198.61H261.76V195.77Z" fill="#EAECF0"/>
<path d="M261.76 200.52H258.92V203.36H261.76V200.52Z" fill="#EAECF0"/>
<path d="M261.76 205.28H258.92V208.12H261.76V205.28Z" fill="#EAECF0"/>
<path d="M261.76 210.03H258.92V212.87H261.76V210.03Z" fill="#EAECF0"/>
<path d="M261.76 214.79H258.92V217.63H261.76V214.79Z" fill="#EAECF0"/>
<path d="M261.76 229.05H258.92V231.89H261.76V229.05Z" fill="#EAECF0"/>
<path d="M261.76 233.8H258.92V236.64H261.76V233.8Z" fill="#EAECF0"/>
<path d="M261.76 238.56H258.92V241.4H261.76V238.56Z" fill="#EAECF0"/>
<path d="M266.26 186.26H263.42V189.1H266.26V186.26Z" fill="#EAECF0"/>
<path d="M266.26 191.02H263.42V193.86H266.26V191.02Z" fill="#EAECF0"/>
<path d="M266.26 195.77H263.42V198.61H266.26V195.77Z" fill="#EAECF0"/>
<path d="M266.26 200.52H263.42V203.36H266.26V200.52Z" fill="#EAECF0"/>
<path d="M266.26 205.28H263.42V208.12H266.26V205.28Z" fill="#EAECF0"/>
<path d="M266.26 210.03H263.42V212.87H266.26V210.03Z" fill="#EAECF0"/>
<path d="M266.26 214.79H263.42V217.63H266.26V214.79Z" fill="#EAECF0"/>
<path d="M270.77 186.26H267.93V189.1H270.77V186.26Z" fill="#EAECF0"/>
<path d="M270.77 191.02H267.93V193.86H270.77V191.02Z" fill="#EAECF0"/>
<path d="M270.77 195.77H267.93V198.61H270.77V195.77Z" fill="#EAECF0"/>
<path d="M270.77 200.52H267.93V203.36H270.77V200.52Z" fill="#EAECF0"/>
<path d="M270.77 205.28H267.93V208.12H270.77V205.28Z" fill="#EAECF0"/>
<path d="M270.77 210.03H267.93V212.87H270.77V210.03Z" fill="#EAECF0"/>
<path d="M270.77 214.79H267.93V217.63H270.77V214.79Z" fill="#EAECF0"/>
<path d="M275.27 186.26H272.43V189.1H275.27V186.26Z" fill="#EAECF0"/>
<path d="M275.27 191.02H272.43V193.86H275.27V191.02Z" fill="#EAECF0"/>
<path d="M275.27 195.77H272.43V198.61H275.27V195.77Z" fill="#EAECF0"/>
<path d="M275.27 200.52H272.43V203.36H275.27V200.52Z" fill="#EAECF0"/>
<path d="M275.27 205.28H272.43V208.12H275.27V205.28Z" fill="#EAECF0"/>
<path d="M275.27 210.03H272.43V212.87H275.27V210.03Z" fill="#EAECF0"/>
<path d="M275.27 214.79H272.43V217.63H275.27V214.79Z" fill="#EAECF0"/>
<path d="M275.27 219.54H272.43V222.38H275.27V219.54Z" fill="#EAECF0"/>
<path d="M275.27 224.29H272.43V227.13H275.27V224.29Z" fill="#EAECF0"/>
<path d="M275.27 229.05H272.43V231.89H275.27V229.05Z" fill="#EAECF0"/>
<path d="M275.27 233.8H272.43V236.64H275.27V233.8Z" fill="#EAECF0"/>
<path d="M279.77 186.26H276.93V189.1H279.77V186.26Z" fill="#EAECF0"/>
<path d="M279.77 191.02H276.93V193.86H279.77V191.02Z" fill="#EAECF0"/>
<path d="M279.77 195.77H276.93V198.61H279.77V195.77Z" fill="#EAECF0"/>
<path d="M279.77 200.52H276.93V203.36H279.77V200.52Z" fill="#EAECF0"/>
<path d="M279.77 205.28H276.93V208.12H279.77V205.28Z" fill="#EAECF0"/>
<path d="M279.77 210.03H276.93V212.87H279.77V210.03Z" fill="#EAECF0"/>
<path d="M279.77 214.79H276.93V217.63H279.77V214.79Z" fill="#EAECF0"/>
<path d="M279.77 219.54H276.93V222.38H279.77V219.54Z" fill="#EAECF0"/>
<path d="M279.77 224.29H276.93V227.13H279.77V224.29Z" fill="#EAECF0"/>
<path d="M279.77 229.05H276.93V231.89H279.77V229.05Z" fill="#EAECF0"/>
<path d="M279.77 233.8H276.93V236.64H279.77V233.8Z" fill="#EAECF0"/>
<path d="M279.77 238.56H276.93V241.4H279.77V238.56Z" fill="#EAECF0"/>
<path d="M279.77 252.82H276.93V255.66H279.77V252.82Z" fill="#EAECF0"/>
<path d="M279.77 257.57H276.93V260.41H279.77V257.57Z" fill="#EAECF0"/>
<path d="M284.28 186.26H281.44V189.1H284.28V186.26Z" fill="#EAECF0"/>
<path d="M284.28 191.02H281.44V193.86H284.28V191.02Z" fill="#EAECF0"/>
<path d="M284.28 195.77H281.44V198.61H284.28V195.77Z" fill="#EAECF0"/>
<path d="M284.28 210.03H281.44V212.87H284.28V210.03Z" fill="#EAECF0"/>
<path d="M284.28 214.79H281.44V217.63H284.28V214.79Z" fill="#EAECF0"/>
<path d="M284.28 219.54H281.44V222.38H284.28V219.54Z" fill="#EAECF0"/>
<path d="M284.28 224.29H281.44V227.13H284.28V224.29Z" fill="#EAECF0"/>
<path d="M284.28 229.05H281.44V231.89H284.28V229.05Z" fill="#EAECF0"/>
<path d="M284.28 233.8H281.44V236.64H284.28V233.8Z" fill="#EAECF0"/>
<path d="M284.28 238.56H281.44V241.4H284.28V238.56Z" fill="#EAECF0"/>
<path d="M284.28 252.82H281.44V255.66H284.28V252.82Z" fill="#EAECF0"/>
<path d="M284.28 257.57H281.44V260.41H284.28V257.57Z" fill="#EAECF0"/>
<path d="M284.28 262.33H281.44V265.17H284.28V262.33Z" fill="#EAECF0"/>
<path d="M331.49 157.74H328.65V160.58H331.49V157.74Z" fill="#EAECF0"/>
<path d="M331.49 162.49H328.65V165.33H331.49V162.49Z" fill="#EAECF0"/>
<path d="M331.49 167.25H328.65V170.09H331.49V167.25Z" fill="#EAECF0"/>
<path d="M331.49 172H328.65V174.84H331.49V172Z" fill="#EAECF0"/>
<path d="M331.49 176.75H328.65V179.59H331.49V176.75Z" fill="#EAECF0"/>
<path d="M331.49 181.51H328.65V184.35H331.49V181.51Z" fill="#EAECF0"/>
<path d="M331.49 186.26H328.65V189.1H331.49V186.26Z" fill="#EAECF0"/>
<path d="M331.49 191.02H328.65V193.86H331.49V191.02Z" fill="#EAECF0"/>
<path d="M331.49 195.77H328.65V198.61H331.49V195.77Z" fill="#EAECF0"/>
<path d="M331.49 200.52H328.65V203.36H331.49V200.52Z" fill="#EAECF0"/>
<path d="M331.49 205.28H328.65V208.12H331.49V205.28Z" fill="#EAECF0"/>
<path d="M331.49 210.03H328.65V212.87H331.49V210.03Z" fill="#EAECF0"/>
<path d="M331.49 214.79H328.65V217.63H331.49V214.79Z" fill="#EAECF0"/>
<path d="M331.49 219.54H328.65V222.38H331.49V219.54Z" fill="#EAECF0"/>
<path d="M331.49 224.29H328.65V227.13H331.49V224.29Z" fill="#EAECF0"/>
<path d="M331.49 229.05H328.65V231.89H331.49V229.05Z" fill="#EAECF0"/>
<path d="M331.49 233.8H328.65V236.64H331.49V233.8Z" fill="#EAECF0"/>
<path d="M331.49 238.56H328.65V241.4H331.49V238.56Z" fill="#EAECF0"/>
<path d="M331.49 243.31H328.65V246.15H331.49V243.31Z" fill="#EAECF0"/>
<path d="M331.49 248.06H328.65V250.9H331.49V248.06Z" fill="#EAECF0"/>
<path d="M331.49 252.82H328.65V255.66H331.49V252.82Z" fill="#EAECF0"/>
<path d="M331.49 257.57H328.65V260.41H331.49V257.57Z" fill="#EAECF0"/>
<path d="M331.49 262.33H328.65V265.17H331.49V262.33Z" fill="#EAECF0"/>
<path d="M335.99 157.74H333.15V160.58H335.99V157.74Z" fill="#EAECF0"/>
<path d="M335.99 162.49H333.15V165.33H335.99V162.49Z" fill="#EAECF0"/>
<path d="M335.99 167.25H333.15V170.09H335.99V167.25Z" fill="#EAECF0"/>
<path d="M335.99 172H333.15V174.84H335.99V172Z" fill="#EAECF0"/>
<path d="M335.99 176.75H333.15V179.59H335.99V176.75Z" fill="#EAECF0"/>
<path d="M335.99 181.51H333.15V184.35H335.99V181.51Z" fill="#EAECF0"/>
<path d="M335.99 186.26H333.15V189.1H335.99V186.26Z" fill="#EAECF0"/>
<path d="M335.99 191.02H333.15V193.86H335.99V191.02Z" fill="#EAECF0"/>
<path d="M335.99 195.77H333.15V198.61H335.99V195.77Z" fill="#EAECF0"/>
<path d="M335.99 200.52H333.15V203.36H335.99V200.52Z" fill="#EAECF0"/>
<path d="M335.99 205.28H333.15V208.12H335.99V205.28Z" fill="#EAECF0"/>
<path d="M335.99 210.03H333.15V212.87H335.99V210.03Z" fill="#EAECF0"/>
<path d="M335.99 214.79H333.15V217.63H335.99V214.79Z" fill="#EAECF0"/>
<path d="M335.99 219.54H333.15V222.38H335.99V219.54Z" fill="#EAECF0"/>
<path d="M335.99 224.29H333.15V227.13H335.99V224.29Z" fill="#EAECF0"/>
<path d="M335.99 229.05H333.15V231.89H335.99V229.05Z" fill="#EAECF0"/>
<path d="M335.99 233.8H333.15V236.64H335.99V233.8Z" fill="#EAECF0"/>
<path d="M335.99 238.56H333.15V241.4H335.99V238.56Z" fill="#EAECF0"/>
<path d="M335.99 243.31H333.15V246.15H335.99V243.31Z" fill="#EAECF0"/>
<path d="M340.49 157.74H337.65V160.58H340.49V157.74Z" fill="#EAECF0"/>
<path d="M340.49 162.49H337.65V165.33H340.49V162.49Z" fill="#EAECF0"/>
<path d="M340.49 167.25H337.65V170.09H340.49V167.25Z" fill="#EAECF0"/>
<path d="M340.49 172H337.65V174.84H340.49V172Z" fill="#EAECF0"/>
<path d="M340.49 176.75H337.65V179.59H340.49V176.75Z" fill="#EAECF0"/>
<path d="M340.49 181.51H337.65V184.35H340.49V181.51Z" fill="#EAECF0"/>
<path d="M340.49 186.26H337.65V189.1H340.49V186.26Z" fill="#EAECF0"/>
<path d="M340.49 191.02H337.65V193.86H340.49V191.02Z" fill="#EAECF0"/>
<path d="M340.49 195.77H337.65V198.61H340.49V195.77Z" fill="#EAECF0"/>
<path d="M340.49 200.52H337.65V203.36H340.49V200.52Z" fill="#EAECF0"/>
<path d="M340.49 205.28H337.65V208.12H340.49V205.28Z" fill="#EAECF0"/>
<path d="M340.49 210.03H337.65V212.87H340.49V210.03Z" fill="#EAECF0"/>
<path d="M340.49 214.79H337.65V217.63H340.49V214.79Z" fill="#EAECF0"/>
<path d="M340.49 219.54H337.65V222.38H340.49V219.54Z" fill="#EAECF0"/>
<path d="M340.49 224.29H337.65V227.13H340.49V224.29Z" fill="#EAECF0"/>
<path d="M340.49 229.05H337.65V231.89H340.49V229.05Z" fill="#EAECF0"/>
<path d="M340.49 233.8H337.65V236.64H340.49V233.8Z" fill="#EAECF0"/>
<path d="M340.49 238.56H337.65V241.4H340.49V238.56Z" fill="#EAECF0"/>
<path d="M340.49 243.31H337.65V246.15H340.49V243.31Z" fill="#EAECF0"/>
<path d="M345 157.74H342.16V160.58H345V157.74Z" fill="#EAECF0"/>
<path d="M345 162.49H342.16V165.33H345V162.49Z" fill="#EAECF0"/>
<path d="M345 167.25H342.16V170.09H345V167.25Z" fill="#EAECF0"/>
<path d="M345 172H342.16V174.84H345V172Z" fill="#EAECF0"/>
<path d="M345 176.75H342.16V179.59H345V176.75Z" fill="#EAECF0"/>
<path d="M345 181.51H342.16V184.35H345V181.51Z" fill="#EAECF0"/>
<path d="M345 186.26H342.16V189.1H345V186.26Z" fill="#EAECF0"/>
<path d="M345 191.02H342.16V193.86H345V191.02Z" fill="#EAECF0"/>
<path d="M345 195.77H342.16V198.61H345V195.77Z" fill="#EAECF0"/>
<path d="M345 200.52H342.16V203.36H345V200.52Z" fill="#EAECF0"/>
<path d="M345 205.28H342.16V208.12H345V205.28Z" fill="#EAECF0"/>
<path d="M345 210.03H342.16V212.87H345V210.03Z" fill="#EAECF0"/>
<path d="M345 214.79H342.16V217.63H345V214.79Z" fill="#EAECF0"/>
<path d="M345 219.54H342.16V222.38H345V219.54Z" fill="#EAECF0"/>
<path d="M345 224.29H342.16V227.13H345V224.29Z" fill="#EAECF0"/>
<path d="M349.5 157.74H346.66V160.58H349.5V157.74Z" fill="#EAECF0"/>
<path d="M349.5 162.49H346.66V165.33H349.5V162.49Z" fill="#EAECF0"/>
<path d="M349.5 167.25H346.66V170.09H349.5V167.25Z" fill="#EAECF0"/>
<path d="M349.5 172H346.66V174.84H349.5V172Z" fill="#EAECF0"/>
<path d="M349.5 176.75H346.66V179.59H349.5V176.75Z" fill="#EAECF0"/>
<path d="M349.5 181.51H346.66V184.35H349.5V181.51Z" fill="#EAECF0"/>
<path d="M349.5 186.26H346.66V189.1H349.5V186.26Z" fill="#EAECF0"/>
<path d="M349.5 191.02H346.66V193.86H349.5V191.02Z" fill="#EAECF0"/>
<path d="M349.5 195.77H346.66V198.61H349.5V195.77Z" fill="#EAECF0"/>
<path d="M349.5 200.52H346.66V203.36H349.5V200.52Z" fill="#EAECF0"/>
<path d="M349.5 205.28H346.66V208.12H349.5V205.28Z" fill="#EAECF0"/>
<path d="M349.5 210.03H346.66V212.87H349.5V210.03Z" fill="#EAECF0"/>
<path d="M349.5 214.79H346.66V217.63H349.5V214.79Z" fill="#EAECF0"/>
<path d="M354 157.74H351.16V160.58H354V157.74Z" fill="#EAECF0"/>
<path d="M354 162.49H351.16V165.33H354V162.49Z" fill="#EAECF0"/>
<path d="M354 167.25H351.16V170.09H354V167.25Z" fill="#EAECF0"/>
<path d="M354 172H351.16V174.84H354V172Z" fill="#EAECF0"/>
<path d="M354 176.75H351.16V179.59H354V176.75Z" fill="#EAECF0"/>
<path d="M354 181.51H351.16V184.35H354V181.51Z" fill="#EAECF0"/>
<path d="M354 186.26H351.16V189.1H354V186.26Z" fill="#EAECF0"/>
<path d="M354 191.02H351.16V193.86H354V191.02Z" fill="#EAECF0"/>
<path d="M354 195.77H351.16V198.61H354V195.77Z" fill="#EAECF0"/>
<path d="M354 200.52H351.16V203.36H354V200.52Z" fill="#EAECF0"/>
<path d="M354 205.28H351.16V208.12H354V205.28Z" fill="#EAECF0"/>
<path d="M354 210.03H351.16V212.87H354V210.03Z" fill="#EAECF0"/>
<path d="M23.06 192.43H20.22V195.27H23.06V192.43Z" fill="#EAECF0"/>
<path d="M23.06 197.19H20.22V200.03H23.06V197.19Z" fill="#EAECF0"/>
<path d="M23.06 201.94H20.22V204.78H23.06V201.94Z" fill="#EAECF0"/>
<path d="M23.06 206.7H20.22V209.54H23.06V206.7Z" fill="#EAECF0"/>
<path d="M23.06 211.45H20.22V214.29H23.06V211.45Z" fill="#EAECF0"/>
<path d="M23.06 216.2H20.22V219.04H23.06V216.2Z" fill="#EAECF0"/>
<path d="M23.06 220.96H20.22V223.8H23.06V220.96Z" fill="#EAECF0"/>
<path d="M23.06 225.71H20.22V228.55H23.06V225.71Z" fill="#EAECF0"/>
<path d="M23.06 230.47H20.22V233.31H23.06V230.47Z" fill="#EAECF0"/>
<path d="M23.06 235.22H20.22V238.06H23.06V235.22Z" fill="#EAECF0"/>
<path d="M23.06 239.97H20.22V242.81H23.06V239.97Z" fill="#EAECF0"/>
<path d="M23.06 244.73H20.22V247.57H23.06V244.73Z" fill="#EAECF0"/>
<path d="M23.06 249.48H20.22V252.32H23.06V249.48Z" fill="#EAECF0"/>
<path d="M23.06 254.24H20.22V257.08H23.06V254.24Z" fill="#EAECF0"/>
<path d="M23.06 258.99H20.22V261.83H23.06V258.99Z" fill="#EAECF0"/>
<path d="M23.06 263.74H20.22V266.58H23.06V263.74Z" fill="#EAECF0"/>
<path d="M23.06 268.5H20.22V271.34H23.06V268.5Z" fill="#EAECF0"/>
<path d="M23.06 273.25H20.22V276.09H23.06V273.25Z" fill="#EAECF0"/>
<path d="M23.06 278.01H20.22V280.85H23.06V278.01Z" fill="#EAECF0"/>
<path d="M23.06 282.76H20.22V285.6H23.06V282.76Z" fill="#EAECF0"/>
<path d="M27.56 192.43H24.72V195.27H27.56V192.43Z" fill="#EAECF0"/>
<path d="M27.56 197.19H24.72V200.03H27.56V197.19Z" fill="#EAECF0"/>
<path d="M27.56 201.94H24.72V204.78H27.56V201.94Z" fill="#EAECF0"/>
<path d="M27.56 206.7H24.72V209.54H27.56V206.7Z" fill="#EAECF0"/>
<path d="M27.56 211.45H24.72V214.29H27.56V211.45Z" fill="#EAECF0"/>
<path d="M27.56 216.2H24.72V219.04H27.56V216.2Z" fill="#EAECF0"/>
<path d="M27.56 220.96H24.72V223.8H27.56V220.96Z" fill="#EAECF0"/>
<path d="M27.56 225.71H24.72V228.55H27.56V225.71Z" fill="#EAECF0"/>
<path d="M27.56 230.47H24.72V233.31H27.56V230.47Z" fill="#EAECF0"/>
<path d="M27.56 235.22H24.72V238.06H27.56V235.22Z" fill="#EAECF0"/>
<path d="M27.56 239.97H24.72V242.81H27.56V239.97Z" fill="#EAECF0"/>
<path d="M27.56 244.73H24.72V247.57H27.56V244.73Z" fill="#EAECF0"/>
<path d="M27.56 249.48H24.72V252.32H27.56V249.48Z" fill="#EAECF0"/>
<path d="M27.56 254.24H24.72V257.08H27.56V254.24Z" fill="#EAECF0"/>
<path d="M27.56 258.99H24.72V261.83H27.56V258.99Z" fill="#EAECF0"/>
<path d="M27.56 263.74H24.72V266.58H27.56V263.74Z" fill="#EAECF0"/>
<path d="M27.56 268.5H24.72V271.34H27.56V268.5Z" fill="#EAECF0"/>
<path d="M27.56 273.25H24.72V276.09H27.56V273.25Z" fill="#EAECF0"/>
<path d="M32.06 192.43H29.22V195.27H32.06V192.43Z" fill="#EAECF0"/>
<path d="M32.06 197.19H29.22V200.03H32.06V197.19Z" fill="#EAECF0"/>
<path d="M32.06 201.94H29.22V204.78H32.06V201.94Z" fill="#EAECF0"/>
<path d="M32.06 206.7H29.22V209.54H32.06V206.7Z" fill="#EAECF0"/>
<path d="M32.06 211.45H29.22V214.29H32.06V211.45Z" fill="#EAECF0"/>
<path d="M32.06 216.2H29.22V219.04H32.06V216.2Z" fill="#EAECF0"/>
<path d="M32.06 220.96H29.22V223.8H32.06V220.96Z" fill="#EAECF0"/>
<path d="M32.06 225.71H29.22V228.55H32.06V225.71Z" fill="#EAECF0"/>
<path d="M32.06 230.47H29.22V233.31H32.06V230.47Z" fill="#EAECF0"/>
<path d="M32.06 235.22H29.22V238.06H32.06V235.22Z" fill="#EAECF0"/>
<path d="M32.06 239.97H29.22V242.81H32.06V239.97Z" fill="#EAECF0"/>
<path d="M32.06 244.73H29.22V247.57H32.06V244.73Z" fill="#EAECF0"/>
<path d="M32.06 249.48H29.22V252.32H32.06V249.48Z" fill="#EAECF0"/>
<path d="M32.06 254.24H29.22V257.08H32.06V254.24Z" fill="#EAECF0"/>
<path d="M32.06 258.99H29.22V261.83H32.06V258.99Z" fill="#EAECF0"/>
<path d="M32.06 263.74H29.22V266.58H32.06V263.74Z" fill="#EAECF0"/>
<path d="M32.06 268.5H29.22V271.34H32.06V268.5Z" fill="#EAECF0"/>
<path d="M32.06 273.25H29.22V276.09H32.06V273.25Z" fill="#EAECF0"/>
<path d="M6.21011 227.13H3.37012V229.97H6.21011V227.13Z" fill="#EAECF0"/>
<path d="M6.21011 231.88H3.37012V234.72H6.21011V231.88Z" fill="#EAECF0"/>
<path d="M6.21011 236.64H3.37012V239.48H6.21011V236.64Z" fill="#EAECF0"/>
<path d="M6.21011 241.39H3.37012V244.23H6.21011V241.39Z" fill="#EAECF0"/>
<path d="M6.21011 246.15H3.37012V248.99H6.21011V246.15Z" fill="#EAECF0"/>
<path d="M6.21011 250.9H3.37012V253.74H6.21011V250.9Z" fill="#EAECF0"/>
<path d="M6.21011 255.65H3.37012V258.49H6.21011V255.65Z" fill="#EAECF0"/>
<path d="M6.21011 260.41H3.37012V263.25H6.21011V260.41Z" fill="#EAECF0"/>
<path d="M6.21011 265.16H3.37012V268H6.21011V265.16Z" fill="#EAECF0"/>
<path d="M6.21011 269.92H3.37012V272.76H6.21011V269.92Z" fill="#EAECF0"/>
<path d="M6.21011 274.67H3.37012V277.51H6.21011V274.67Z" fill="#EAECF0"/>
<path d="M6.21011 279.42H3.37012V282.26H6.21011V279.42Z" fill="#EAECF0"/>
<path d="M6.21011 284.18H3.37012V287.02H6.21011V284.18Z" fill="#EAECF0"/>
<path d="M10.7101 227.13H7.87012V229.97H10.7101V227.13Z" fill="#EAECF0"/>
<path d="M10.7101 231.88H7.87012V234.72H10.7101V231.88Z" fill="#EAECF0"/>
<path d="M10.7101 236.64H7.87012V239.48H10.7101V236.64Z" fill="#EAECF0"/>
<path d="M10.7101 241.39H7.87012V244.23H10.7101V241.39Z" fill="#EAECF0"/>
<path d="M10.7101 246.15H7.87012V248.99H10.7101V246.15Z" fill="#EAECF0"/>
<path d="M10.7101 250.9H7.87012V253.74H10.7101V250.9Z" fill="#EAECF0"/>
<path d="M10.7101 255.65H7.87012V258.49H10.7101V255.65Z" fill="#EAECF0"/>
<path d="M10.7101 260.41H7.87012V263.25H10.7101V260.41Z" fill="#EAECF0"/>
<path d="M10.7101 265.16H7.87012V268H10.7101V265.16Z" fill="#EAECF0"/>
<path d="M10.7101 269.92H7.87012V272.76H10.7101V269.92Z" fill="#EAECF0"/>
<path d="M10.7101 274.67H7.87012V277.51H10.7101V274.67Z" fill="#EAECF0"/>
<path d="M10.7101 279.42H7.87012V282.26H10.7101V279.42Z" fill="#EAECF0"/>
<path d="M10.7101 284.18H7.87012V287.02H10.7101V284.18Z" fill="#EAECF0"/>
<path d="M15.2199 227.13H12.3799V229.97H15.2199V227.13Z" fill="#EAECF0"/>
<path d="M15.2199 231.88H12.3799V234.72H15.2199V231.88Z" fill="#EAECF0"/>
<path d="M15.2199 236.64H12.3799V239.48H15.2199V236.64Z" fill="#EAECF0"/>
<path d="M15.2199 241.39H12.3799V244.23H15.2199V241.39Z" fill="#EAECF0"/>
<path d="M15.2199 246.15H12.3799V248.99H15.2199V246.15Z" fill="#EAECF0"/>
<path d="M15.2199 250.9H12.3799V253.74H15.2199V250.9Z" fill="#EAECF0"/>
<path d="M15.2199 255.65H12.3799V258.49H15.2199V255.65Z" fill="#EAECF0"/>
<path d="M15.2199 260.41H12.3799V263.25H15.2199V260.41Z" fill="#EAECF0"/>
<path d="M15.2199 265.16H12.3799V268H15.2199V265.16Z" fill="#EAECF0"/>
<path d="M15.2199 269.92H12.3799V272.76H15.2199V269.92Z" fill="#EAECF0"/>
<path d="M15.2199 274.67H12.3799V277.51H15.2199V274.67Z" fill="#EAECF0"/>
<path d="M15.2199 279.42H12.3799V282.26H15.2199V279.42Z" fill="#EAECF0"/>
<path d="M15.2199 284.18H12.3799V287.02H15.2199V284.18Z" fill="#EAECF0"/>
<path d="M15.2199 288.93H12.3799V291.77H15.2199V288.93Z" fill="#EAECF0"/>
<path d="M40.2399 228.55H37.3999V231.39H40.2399V228.55Z" fill="#EAECF0"/>
<path d="M40.2399 233.3H37.3999V236.14H40.2399V233.3Z" fill="#EAECF0"/>
<path d="M40.2399 238.06H37.3999V240.9H40.2399V238.06Z" fill="#EAECF0"/>
<path d="M40.2399 242.81H37.3999V245.65H40.2399V242.81Z" fill="#EAECF0"/>
<path d="M40.2399 247.56H37.3999V250.4H40.2399V247.56Z" fill="#EAECF0"/>
<path d="M40.2399 252.32H37.3999V255.16H40.2399V252.32Z" fill="#EAECF0"/>
<path d="M40.2399 257.07H37.3999V259.91H40.2399V257.07Z" fill="#EAECF0"/>
<path d="M40.2399 261.83H37.3999V264.67H40.2399V261.83Z" fill="#EAECF0"/>
<path d="M40.2399 266.58H37.3999V269.42H40.2399V266.58Z" fill="#EAECF0"/>
<path d="M40.2399 271.33H37.3999V274.17H40.2399V271.33Z" fill="#EAECF0"/>
<path d="M40.2399 285.6H37.3999V288.44H40.2399V285.6Z" fill="#EAECF0"/>
<path d="M44.7399 228.55H41.8999V231.39H44.7399V228.55Z" fill="#EAECF0"/>
<path d="M44.7399 233.3H41.8999V236.14H44.7399V233.3Z" fill="#EAECF0"/>
<path d="M44.7399 238.06H41.8999V240.9H44.7399V238.06Z" fill="#EAECF0"/>
<path d="M44.7399 242.81H41.8999V245.65H44.7399V242.81Z" fill="#EAECF0"/>
<path d="M44.7399 247.56H41.8999V250.4H44.7399V247.56Z" fill="#EAECF0"/>
<path d="M44.7399 252.32H41.8999V255.16H44.7399V252.32Z" fill="#EAECF0"/>
<path d="M44.7399 257.07H41.8999V259.91H44.7399V257.07Z" fill="#EAECF0"/>
<path d="M44.7399 261.83H41.8999V264.67H44.7399V261.83Z" fill="#EAECF0"/>
<path d="M44.7399 266.58H41.8999V269.42H44.7399V266.58Z" fill="#EAECF0"/>
<path d="M44.7399 280.84H41.8999V283.68H44.7399V280.84Z" fill="#EAECF0"/>
<path d="M44.7399 285.6H41.8999V288.44H44.7399V285.6Z" fill="#EAECF0"/>
<path d="M49.2399 228.55H46.3999V231.39H49.2399V228.55Z" fill="#EAECF0"/>
<path d="M49.2399 233.3H46.3999V236.14H49.2399V233.3Z" fill="#EAECF0"/>
<path d="M49.2399 238.06H46.3999V240.9H49.2399V238.06Z" fill="#EAECF0"/>
<path d="M49.2399 242.81H46.3999V245.65H49.2399V242.81Z" fill="#EAECF0"/>
<path d="M49.2399 247.56H46.3999V250.4H49.2399V247.56Z" fill="#EAECF0"/>
<path d="M49.2399 252.32H46.3999V255.16H49.2399V252.32Z" fill="#EAECF0"/>
<path d="M49.2399 257.07H46.3999V259.91H49.2399V257.07Z" fill="#EAECF0"/>
<path d="M49.2399 261.83H46.3999V264.67H49.2399V261.83Z" fill="#EAECF0"/>
<path d="M49.2399 276.09H46.3999V278.93H49.2399V276.09Z" fill="#EAECF0"/>
<path d="M49.2399 280.84H46.3999V283.68H49.2399V280.84Z" fill="#EAECF0"/>
<path d="M49.2399 285.6H46.3999V288.44H49.2399V285.6Z" fill="#EAECF0"/>
<path d="M91.11 156.32H88.27V159.16H91.11V156.32Z" fill="#EAECF0"/>
<path d="M91.11 161.07H88.27V163.91H91.11V161.07Z" fill="#EAECF0"/>
<path d="M91.11 165.83H88.27V168.67H91.11V165.83Z" fill="#EAECF0"/>
<path d="M91.11 170.58H88.27V173.42H91.11V170.58Z" fill="#EAECF0"/>
<path d="M91.11 175.34H88.27V178.18H91.11V175.34Z" fill="#EAECF0"/>
<path d="M91.11 180.09H88.27V182.93H91.11V180.09Z" fill="#EAECF0"/>
<path d="M91.11 184.84H88.27V187.68H91.11V184.84Z" fill="#EAECF0"/>
<path d="M91.11 189.6H88.27V192.44H91.11V189.6Z" fill="#EAECF0"/>
<path d="M91.11 194.35H88.27V197.19H91.11V194.35Z" fill="#EAECF0"/>
<path d="M91.11 199.11H88.27V201.95H91.11V199.11Z" fill="#EAECF0"/>
<path d="M91.11 203.86H88.27V206.7H91.11V203.86Z" fill="#EAECF0"/>
<path d="M91.11 208.61H88.27V211.45H91.11V208.61Z" fill="#EAECF0"/>
<path d="M91.11 213.37H88.27V216.21H91.11V213.37Z" fill="#EAECF0"/>
<path d="M91.11 218.12H88.27V220.96H91.11V218.12Z" fill="#EAECF0"/>
<path d="M91.11 222.88H88.27V225.72H91.11V222.88Z" fill="#EAECF0"/>
<path d="M91.11 227.63H88.27V230.47H91.11V227.63Z" fill="#EAECF0"/>
<path d="M91.11 232.38H88.27V235.22H91.11V232.38Z" fill="#EAECF0"/>
<path d="M91.11 241.89H88.27V244.73H91.11V241.89Z" fill="#EAECF0"/>
<path d="M91.11 246.65H88.27V249.49H91.11V246.65Z" fill="#EAECF0"/>
<path d="M91.11 251.4H88.27V254.24H91.11V251.4Z" fill="#EAECF0"/>
<path d="M91.11 256.15H88.27V258.99H91.11V256.15Z" fill="#EAECF0"/>
<path d="M91.11 260.91H88.27V263.75H91.11V260.91Z" fill="#EAECF0"/>
<path d="M95.62 156.32H92.78V159.16H95.62V156.32Z" fill="#EAECF0"/>
<path d="M95.62 161.07H92.78V163.91H95.62V161.07Z" fill="#EAECF0"/>
<path d="M95.62 165.83H92.78V168.67H95.62V165.83Z" fill="#EAECF0"/>
<path d="M95.62 170.58H92.78V173.42H95.62V170.58Z" fill="#EAECF0"/>
<path d="M95.62 175.34H92.78V178.18H95.62V175.34Z" fill="#EAECF0"/>
<path d="M95.62 180.09H92.78V182.93H95.62V180.09Z" fill="#EAECF0"/>
<path d="M95.62 184.84H92.78V187.68H95.62V184.84Z" fill="#EAECF0"/>
<path d="M95.62 189.6H92.78V192.44H95.62V189.6Z" fill="#EAECF0"/>
<path d="M95.62 194.35H92.78V197.19H95.62V194.35Z" fill="#EAECF0"/>
<path d="M95.62 199.11H92.78V201.95H95.62V199.11Z" fill="#EAECF0"/>
<path d="M95.62 203.86H92.78V206.7H95.62V203.86Z" fill="#EAECF0"/>
<path d="M95.62 208.61H92.78V211.45H95.62V208.61Z" fill="#EAECF0"/>
<path d="M95.62 213.37H92.78V216.21H95.62V213.37Z" fill="#EAECF0"/>
<path d="M95.62 218.12H92.78V220.96H95.62V218.12Z" fill="#EAECF0"/>
<path d="M95.62 222.88H92.78V225.72H95.62V222.88Z" fill="#EAECF0"/>
<path d="M95.62 227.63H92.78V230.47H95.62V227.63Z" fill="#EAECF0"/>
<path d="M95.62 256.15H92.78V258.99H95.62V256.15Z" fill="#EAECF0"/>
<path d="M95.62 260.91H92.78V263.75H95.62V260.91Z" fill="#EAECF0"/>
<path d="M100.12 156.32H97.28V159.16H100.12V156.32Z" fill="#EAECF0"/>
<path d="M100.12 161.07H97.28V163.91H100.12V161.07Z" fill="#EAECF0"/>
<path d="M100.12 165.83H97.28V168.67H100.12V165.83Z" fill="#EAECF0"/>
<path d="M100.12 170.58H97.28V173.42H100.12V170.58Z" fill="#EAECF0"/>
<path d="M100.12 175.34H97.28V178.18H100.12V175.34Z" fill="#EAECF0"/>
<path d="M100.12 180.09H97.28V182.93H100.12V180.09Z" fill="#EAECF0"/>
<path d="M100.12 184.84H97.28V187.68H100.12V184.84Z" fill="#EAECF0"/>
<path d="M100.12 189.6H97.28V192.44H100.12V189.6Z" fill="#EAECF0"/>
<path d="M100.12 194.35H97.28V197.19H100.12V194.35Z" fill="#EAECF0"/>
<path d="M100.12 199.11H97.28V201.95H100.12V199.11Z" fill="#EAECF0"/>
<path d="M100.12 203.86H97.28V206.7H100.12V203.86Z" fill="#EAECF0"/>
<path d="M100.12 208.61H97.28V211.45H100.12V208.61Z" fill="#EAECF0"/>
<path d="M100.12 213.37H97.28V216.21H100.12V213.37Z" fill="#EAECF0"/>
<path d="M100.12 218.12H97.28V220.96H100.12V218.12Z" fill="#EAECF0"/>
<path d="M100.12 222.88H97.28V225.72H100.12V222.88Z" fill="#EAECF0"/>
<path d="M100.12 227.63H97.28V230.47H100.12V227.63Z" fill="#EAECF0"/>
<path d="M100.12 237.14H97.28V239.98H100.12V237.14Z" fill="#EAECF0"/>
<path d="M100.12 241.89H97.28V244.73H100.12V241.89Z" fill="#EAECF0"/>
<path d="M100.12 246.65H97.28V249.49H100.12V246.65Z" fill="#EAECF0"/>
<path d="M100.12 251.4H97.28V254.24H100.12V251.4Z" fill="#EAECF0"/>
<path d="M100.12 260.91H97.28V263.75H100.12V260.91Z" fill="#EAECF0"/>
<path d="M74.7699 216.2H71.9299V219.04H74.7699V216.2Z" fill="#EAECF0"/>
<path d="M74.7699 220.96H71.9299V223.8H74.7699V220.96Z" fill="#EAECF0"/>
<path d="M74.7699 225.71H71.9299V228.55H74.7699V225.71Z" fill="#EAECF0"/>
<path d="M74.7699 230.47H71.9299V233.31H74.7699V230.47Z" fill="#EAECF0"/>
<path d="M74.7699 235.22H71.9299V238.06H74.7699V235.22Z" fill="#EAECF0"/>
<path d="M74.7699 239.97H71.9299V242.81H74.7699V239.97Z" fill="#EAECF0"/>
<path d="M74.7699 244.73H71.9299V247.57H74.7699V244.73Z" fill="#EAECF0"/>
<path d="M74.7699 254.24H71.9299V257.08H74.7699V254.24Z" fill="#EAECF0"/>
<path d="M74.7699 258.99H71.9299V261.83H74.7699V258.99Z" fill="#EAECF0"/>
<path d="M74.7699 263.74H71.9299V266.58H74.7699V263.74Z" fill="#EAECF0"/>
<path d="M74.7699 268.5H71.9299V271.34H74.7699V268.5Z" fill="#EAECF0"/>
<path d="M74.7699 273.25H71.9299V276.09H74.7699V273.25Z" fill="#EAECF0"/>
<path d="M74.7699 278.01H71.9299V280.85H74.7699V278.01Z" fill="#EAECF0"/>
<path d="M74.7699 282.76H71.9299V285.6H74.7699V282.76Z" fill="#EAECF0"/>
<path d="M74.7699 287.51H71.9299V290.35H74.7699V287.51Z" fill="#EAECF0"/>
<path d="M79.2699 216.2H76.4299V219.04H79.2699V216.2Z" fill="#EAECF0"/>
<path d="M79.2699 220.96H76.4299V223.8H79.2699V220.96Z" fill="#EAECF0"/>
<path d="M79.2699 225.71H76.4299V228.55H79.2699V225.71Z" fill="#EAECF0"/>
<path d="M79.2699 230.47H76.4299V233.31H79.2699V230.47Z" fill="#EAECF0"/>
<path d="M79.2699 235.22H76.4299V238.06H79.2699V235.22Z" fill="#EAECF0"/>
<path d="M79.2699 239.97H76.4299V242.81H79.2699V239.97Z" fill="#EAECF0"/>
<path d="M79.2699 254.24H76.4299V257.08H79.2699V254.24Z" fill="#EAECF0"/>
<path d="M79.2699 258.99H76.4299V261.83H79.2699V258.99Z" fill="#EAECF0"/>
<path d="M79.2699 263.74H76.4299V266.58H79.2699V263.74Z" fill="#EAECF0"/>
<path d="M79.2699 268.5H76.4299V271.34H79.2699V268.5Z" fill="#EAECF0"/>
<path d="M79.2699 273.25H76.4299V276.09H79.2699V273.25Z" fill="#EAECF0"/>
<path d="M79.2699 278.01H76.4299V280.85H79.2699V278.01Z" fill="#EAECF0"/>
<path d="M79.2699 282.76H76.4299V285.6H79.2699V282.76Z" fill="#EAECF0"/>
<path d="M79.2699 287.51H76.4299V290.35H79.2699V287.51Z" fill="#EAECF0"/>
<path d="M83.7699 216.2H80.9299V219.04H83.7699V216.2Z" fill="#EAECF0"/>
<path d="M83.7699 220.96H80.9299V223.8H83.7699V220.96Z" fill="#EAECF0"/>
<path d="M83.7699 225.71H80.9299V228.55H83.7699V225.71Z" fill="#EAECF0"/>
<path d="M83.7699 230.47H80.9299V233.31H83.7699V230.47Z" fill="#EAECF0"/>
<path d="M83.7699 235.22H80.9299V238.06H83.7699V235.22Z" fill="#EAECF0"/>
<path d="M83.7699 239.97H80.9299V242.81H83.7699V239.97Z" fill="#EAECF0"/>
<path d="M83.7699 249.48H80.9299V252.32H83.7699V249.48Z" fill="#EAECF0"/>
<path d="M83.7699 254.24H80.9299V257.08H83.7699V254.24Z" fill="#EAECF0"/>
<path d="M83.7699 258.99H80.9299V261.83H83.7699V258.99Z" fill="#EAECF0"/>
<path d="M83.7699 263.74H80.9299V266.58H83.7699V263.74Z" fill="#EAECF0"/>
<path d="M83.7699 268.5H80.9299V271.34H83.7699V268.5Z" fill="#EAECF0"/>
<path d="M83.7699 273.25H80.9299V276.09H83.7699V273.25Z" fill="#EAECF0"/>
<path d="M83.7699 278.01H80.9299V280.85H83.7699V278.01Z" fill="#EAECF0"/>
<path d="M83.7699 282.76H80.9299V285.6H83.7699V282.76Z" fill="#EAECF0"/>
<path d="M83.7699 287.51H80.9299V290.35H83.7699V287.51Z" fill="#EAECF0"/>
<path d="M178.69 189.6H175.85V192.44H178.69V189.6Z" fill="#EAECF0"/>
<path d="M178.69 194.35H175.85V197.19H178.69V194.35Z" fill="#EAECF0"/>
<path d="M178.69 199.11H175.85V201.95H178.69V199.11Z" fill="#EAECF0"/>
<path d="M178.69 203.86H175.85V206.7H178.69V203.86Z" fill="#EAECF0"/>
<path d="M178.69 208.61H175.85V211.45H178.69V208.61Z" fill="#EAECF0"/>
<path d="M178.69 213.37H175.85V216.21H178.69V213.37Z" fill="#EAECF0"/>
<path d="M178.69 218.12H175.85V220.96H178.69V218.12Z" fill="#EAECF0"/>
<path d="M178.69 222.88H175.85V225.72H178.69V222.88Z" fill="#EAECF0"/>
<path d="M178.69 227.63H175.85V230.47H178.69V227.63Z" fill="#EAECF0"/>
<path d="M178.69 232.38H175.85V235.22H178.69V232.38Z" fill="#EAECF0"/>
<path d="M178.69 237.14H175.85V239.98H178.69V237.14Z" fill="#EAECF0"/>
<path d="M178.69 241.89H175.85V244.73H178.69V241.89Z" fill="#EAECF0"/>
<path d="M178.69 246.65H175.85V249.49H178.69V246.65Z" fill="#EAECF0"/>
<path d="M178.69 256.15H175.85V258.99H178.69V256.15Z" fill="#EAECF0"/>
<path d="M178.69 260.91H175.85V263.75H178.69V260.91Z" fill="#EAECF0"/>
<path d="M178.69 265.66H175.85V268.5H178.69V265.66Z" fill="#EAECF0"/>
<path d="M178.69 270.42H175.85V273.26H178.69V270.42Z" fill="#EAECF0"/>
<path d="M178.69 279.93H175.85V282.77H178.69V279.93Z" fill="#EAECF0"/>
<path d="M178.69 284.68H175.85V287.52H178.69V284.68Z" fill="#EAECF0"/>
<path d="M178.69 289.43H175.85V292.27H178.69V289.43Z" fill="#EAECF0"/>
<path d="M183.19 189.6H180.35V192.44H183.19V189.6Z" fill="#EAECF0"/>
<path d="M183.19 194.35H180.35V197.19H183.19V194.35Z" fill="#EAECF0"/>
<path d="M183.19 199.11H180.35V201.95H183.19V199.11Z" fill="#EAECF0"/>
<path d="M183.19 203.86H180.35V206.7H183.19V203.86Z" fill="#EAECF0"/>
<path d="M183.19 208.61H180.35V211.45H183.19V208.61Z" fill="#EAECF0"/>
<path d="M183.19 213.37H180.35V216.21H183.19V213.37Z" fill="#EAECF0"/>
<path d="M183.19 218.12H180.35V220.96H183.19V218.12Z" fill="#EAECF0"/>
<path d="M183.19 222.88H180.35V225.72H183.19V222.88Z" fill="#EAECF0"/>
<path d="M183.19 227.63H180.35V230.47H183.19V227.63Z" fill="#EAECF0"/>
<path d="M183.19 232.38H180.35V235.22H183.19V232.38Z" fill="#EAECF0"/>
<path d="M183.19 237.14H180.35V239.98H183.19V237.14Z" fill="#EAECF0"/>
<path d="M183.19 241.89H180.35V244.73H183.19V241.89Z" fill="#EAECF0"/>
<path d="M183.19 246.65H180.35V249.49H183.19V246.65Z" fill="#EAECF0"/>
<path d="M183.19 260.91H180.35V263.75H183.19V260.91Z" fill="#EAECF0"/>
<path d="M183.19 265.66H180.35V268.5H183.19V265.66Z" fill="#EAECF0"/>
<path d="M183.19 275.17H180.35V278.01H183.19V275.17Z" fill="#EAECF0"/>
<path d="M183.19 279.93H180.35V282.77H183.19V279.93Z" fill="#EAECF0"/>
<path d="M183.19 284.68H180.35V287.52H183.19V284.68Z" fill="#EAECF0"/>
<path d="M183.19 289.43H180.35V292.27H183.19V289.43Z" fill="#EAECF0"/>
<path d="M187.7 189.6H184.86V192.44H187.7V189.6Z" fill="#EAECF0"/>
<path d="M187.7 194.35H184.86V197.19H187.7V194.35Z" fill="#EAECF0"/>
<path d="M187.7 199.11H184.86V201.95H187.7V199.11Z" fill="#EAECF0"/>
<path d="M187.7 203.86H184.86V206.7H187.7V203.86Z" fill="#EAECF0"/>
<path d="M187.7 208.61H184.86V211.45H187.7V208.61Z" fill="#EAECF0"/>
<path d="M187.7 213.37H184.86V216.21H187.7V213.37Z" fill="#EAECF0"/>
<path d="M187.7 218.12H184.86V220.96H187.7V218.12Z" fill="#EAECF0"/>
<path d="M187.7 222.88H184.86V225.72H187.7V222.88Z" fill="#EAECF0"/>
<path d="M187.7 227.63H184.86V230.47H187.7V227.63Z" fill="#EAECF0"/>
<path d="M187.7 232.38H184.86V235.22H187.7V232.38Z" fill="#EAECF0"/>
<path d="M187.7 237.14H184.86V239.98H187.7V237.14Z" fill="#EAECF0"/>
<path d="M187.7 241.89H184.86V244.73H187.7V241.89Z" fill="#EAECF0"/>
<path d="M187.7 246.65H184.86V249.49H187.7V246.65Z" fill="#EAECF0"/>
<path d="M187.7 251.4H184.86V254.24H187.7V251.4Z" fill="#EAECF0"/>
<path d="M187.7 260.91H184.86V263.75H187.7V260.91Z" fill="#EAECF0"/>
<path d="M187.7 270.42H184.86V273.26H187.7V270.42Z" fill="#EAECF0"/>
<path d="M187.7 275.17H184.86V278.01H187.7V275.17Z" fill="#EAECF0"/>
<path d="M187.7 279.93H184.86V282.77H187.7V279.93Z" fill="#EAECF0"/>
<path d="M187.7 284.68H184.86V287.52H187.7V284.68Z" fill="#EAECF0"/>
<path d="M187.7 289.43H184.86V292.27H187.7V289.43Z" fill="#EAECF0"/>
<path d="M160.34 216.7H157.5V219.54H160.34V216.7Z" fill="#EAECF0"/>
<path d="M160.34 221.46H157.5V224.3H160.34V221.46Z" fill="#EAECF0"/>
<path d="M160.34 226.21H157.5V229.05H160.34V226.21Z" fill="#EAECF0"/>
<path d="M160.34 230.97H157.5V233.81H160.34V230.97Z" fill="#EAECF0"/>
<path d="M160.34 235.72H157.5V238.56H160.34V235.72Z" fill="#EAECF0"/>
<path d="M160.34 240.48H157.5V243.32H160.34V240.48Z" fill="#EAECF0"/>
<path d="M160.34 254.74H157.5V257.58H160.34V254.74Z" fill="#EAECF0"/>
<path d="M160.34 259.49H157.5V262.33H160.34V259.49Z" fill="#EAECF0"/>
<path d="M160.34 264.25H157.5V267.09H160.34V264.25Z" fill="#EAECF0"/>
<path d="M160.34 269H157.5V271.84H160.34V269Z" fill="#EAECF0"/>
<path d="M160.34 273.75H157.5V276.59H160.34V273.75Z" fill="#EAECF0"/>
<path d="M160.34 278.51H157.5V281.35H160.34V278.51Z" fill="#EAECF0"/>
<path d="M160.34 283.26H157.5V286.1H160.34V283.26Z" fill="#EAECF0"/>
<path d="M164.84 216.7H162V219.54H164.84V216.7Z" fill="#EAECF0"/>
<path d="M164.84 221.46H162V224.3H164.84V221.46Z" fill="#EAECF0"/>
<path d="M164.84 226.21H162V229.05H164.84V226.21Z" fill="#EAECF0"/>
<path d="M164.84 230.97H162V233.81H164.84V230.97Z" fill="#EAECF0"/>
<path d="M164.84 235.72H162V238.56H164.84V235.72Z" fill="#EAECF0"/>
<path d="M164.84 240.48H162V243.32H164.84V240.48Z" fill="#EAECF0"/>
<path d="M164.84 254.74H162V257.58H164.84V254.74Z" fill="#EAECF0"/>
<path d="M164.84 259.49H162V262.33H164.84V259.49Z" fill="#EAECF0"/>
<path d="M164.84 264.25H162V267.09H164.84V264.25Z" fill="#EAECF0"/>
<path d="M164.84 269H162V271.84H164.84V269Z" fill="#EAECF0"/>
<path d="M164.84 273.75H162V276.59H164.84V273.75Z" fill="#EAECF0"/>
<path d="M164.84 278.51H162V281.35H164.84V278.51Z" fill="#EAECF0"/>
<path d="M164.84 288.02H162V290.86H164.84V288.02Z" fill="#EAECF0"/>
<path d="M314.47 195.77H311.63V198.61H314.47V195.77Z" fill="#EAECF0"/>
<path d="M314.47 200.52H311.63V203.36H314.47V200.52Z" fill="#EAECF0"/>
<path d="M314.47 205.28H311.63V208.12H314.47V205.28Z" fill="#EAECF0"/>
<path d="M314.47 210.03H311.63V212.87H314.47V210.03Z" fill="#EAECF0"/>
<path d="M314.47 214.79H311.63V217.63H314.47V214.79Z" fill="#EAECF0"/>
<path d="M314.47 219.54H311.63V222.38H314.47V219.54Z" fill="#EAECF0"/>
<path d="M314.47 224.29H311.63V227.13H314.47V224.29Z" fill="#EAECF0"/>
<path d="M314.47 229.05H311.63V231.89H314.47V229.05Z" fill="#EAECF0"/>
<path d="M314.47 233.8H311.63V236.64H314.47V233.8Z" fill="#EAECF0"/>
<path d="M314.47 238.56H311.63V241.4H314.47V238.56Z" fill="#EAECF0"/>
<path d="M314.47 243.31H311.63V246.15H314.47V243.31Z" fill="#EAECF0"/>
<path d="M314.47 252.82H311.63V255.66H314.47V252.82Z" fill="#EAECF0"/>
<path d="M314.47 257.57H311.63V260.41H314.47V257.57Z" fill="#EAECF0"/>
<path d="M314.47 262.33H311.63V265.17H314.47V262.33Z" fill="#EAECF0"/>
<path d="M314.47 267.08H311.63V269.92H314.47V267.08Z" fill="#EAECF0"/>
<path d="M314.47 271.84H311.63V274.68H314.47V271.84Z" fill="#EAECF0"/>
<path d="M314.47 276.59H311.63V279.43H314.47V276.59Z" fill="#EAECF0"/>
<path d="M314.47 281.34H311.63V284.18H314.47V281.34Z" fill="#EAECF0"/>
<path d="M314.47 286.1H311.63V288.94H314.47V286.1Z" fill="#EAECF0"/>
<path d="M318.97 195.77H316.13V198.61H318.97V195.77Z" fill="#EAECF0"/>
<path d="M318.97 200.52H316.13V203.36H318.97V200.52Z" fill="#EAECF0"/>
<path d="M318.97 205.28H316.13V208.12H318.97V205.28Z" fill="#EAECF0"/>
<path d="M318.97 210.03H316.13V212.87H318.97V210.03Z" fill="#EAECF0"/>
<path d="M318.97 214.79H316.13V217.63H318.97V214.79Z" fill="#EAECF0"/>
<path d="M318.97 219.54H316.13V222.38H318.97V219.54Z" fill="#EAECF0"/>
<path d="M318.97 224.29H316.13V227.13H318.97V224.29Z" fill="#EAECF0"/>
<path d="M318.97 229.05H316.13V231.89H318.97V229.05Z" fill="#EAECF0"/>
<path d="M318.97 233.8H316.13V236.64H318.97V233.8Z" fill="#EAECF0"/>
<path d="M318.97 238.56H316.13V241.4H318.97V238.56Z" fill="#EAECF0"/>
<path d="M318.97 243.31H316.13V246.15H318.97V243.31Z" fill="#EAECF0"/>
<path d="M318.97 248.06H316.13V250.9H318.97V248.06Z" fill="#EAECF0"/>
<path d="M318.97 252.82H316.13V255.66H318.97V252.82Z" fill="#EAECF0"/>
<path d="M318.97 257.57H316.13V260.41H318.97V257.57Z" fill="#EAECF0"/>
<path d="M318.97 262.33H316.13V265.17H318.97V262.33Z" fill="#EAECF0"/>
<path d="M318.97 267.08H316.13V269.92H318.97V267.08Z" fill="#EAECF0"/>
<path d="M318.97 271.84H316.13V274.68H318.97V271.84Z" fill="#EAECF0"/>
<path d="M318.97 276.59H316.13V279.43H318.97V276.59Z" fill="#EAECF0"/>
<path d="M318.97 281.34H316.13V284.18H318.97V281.34Z" fill="#EAECF0"/>
<path d="M318.97 286.1H316.13V288.94H318.97V286.1Z" fill="#EAECF0"/>
<path d="M292.29 214.29H289.45V217.13H292.29V214.29Z" fill="#EAECF0"/>
<path d="M292.29 219.04H289.45V221.88H292.29V219.04Z" fill="#EAECF0"/>
<path d="M292.29 223.79H289.45V226.63H292.29V223.79Z" fill="#EAECF0"/>
<path d="M292.29 228.55H289.45V231.39H292.29V228.55Z" fill="#EAECF0"/>
<path d="M292.29 233.3H289.45V236.14H292.29V233.3Z" fill="#EAECF0"/>
<path d="M292.29 238.06H289.45V240.9H292.29V238.06Z" fill="#EAECF0"/>
<path d="M292.29 242.81H289.45V245.65H292.29V242.81Z" fill="#EAECF0"/>
<path d="M292.29 247.56H289.45V250.4H292.29V247.56Z" fill="#EAECF0"/>
<path d="M292.29 252.32H289.45V255.16H292.29V252.32Z" fill="#EAECF0"/>
<path d="M292.29 257.07H289.45V259.91H292.29V257.07Z" fill="#EAECF0"/>
<path d="M296.79 214.29H293.95V217.13H296.79V214.29Z" fill="#EAECF0"/>
<path d="M296.79 219.04H293.95V221.88H296.79V219.04Z" fill="#EAECF0"/>
<path d="M296.79 223.79H293.95V226.63H296.79V223.79Z" fill="#EAECF0"/>
<path d="M296.79 228.55H293.95V231.39H296.79V228.55Z" fill="#EAECF0"/>
<path d="M296.79 233.3H293.95V236.14H296.79V233.3Z" fill="#EAECF0"/>
<path d="M296.79 238.06H293.95V240.9H296.79V238.06Z" fill="#EAECF0"/>
<path d="M296.79 242.81H293.95V245.65H296.79V242.81Z" fill="#EAECF0"/>
<path d="M296.79 247.56H293.95V250.4H296.79V247.56Z" fill="#EAECF0"/>
<path d="M296.79 252.32H293.95V255.16H296.79V252.32Z" fill="#EAECF0"/>
<path d="M109.84 76.3364C109.845 74.9604 109.527 73.6026 108.911 72.3721C108.295 71.1416 107.399 70.0728 106.295 69.2517C105.191 68.4307 103.91 67.8803 102.554 67.6449C101.198 67.4095 99.8063 67.4956 98.49 67.8964C98.9218 64.9543 98.6446 61.9515 97.6815 59.1382C96.7184 56.3249 95.0972 53.7823 92.9528 51.7221C90.8085 49.6619 88.2031 48.1437 85.3535 47.2939C82.5039 46.4441 79.4925 46.2872 76.57 46.8364C74.7296 43.8119 71.9556 41.468 68.6664 40.1581C65.3772 38.8482 61.7513 38.6434 58.3356 39.5747C54.9198 40.506 51.8996 42.5227 49.7304 45.3207C47.5612 48.1188 46.3607 51.5463 46.31 55.0864H46.04C42.0511 55.0864 38.2257 56.6709 35.4051 59.4915C32.5846 62.312 31 66.1375 31 70.1264C31 74.1152 32.5846 77.9407 35.4051 80.7613C38.2257 83.5818 42.0511 85.1664 46.04 85.1664H101.28C103.576 85.1012 105.757 84.1415 107.356 82.4921C108.955 80.8426 109.846 78.6337 109.84 76.3364Z" fill="#EAECF0"/>
<path d="M302.66 77.26C302.66 75.7668 303.253 74.3348 304.309 73.279C305.365 72.2232 306.797 71.63 308.29 71.63C308.835 71.6293 309.377 71.7068 309.9 71.86C309.819 71.2902 309.779 70.7154 309.78 70.14C309.779 68.5738 310.086 67.0227 310.684 65.5753C311.283 64.128 312.161 62.8127 313.268 61.7048C314.375 60.5969 315.689 59.718 317.136 59.1183C318.583 58.5186 320.134 58.21 321.7 58.21C322.435 58.2135 323.168 58.2838 323.89 58.42C325.065 56.489 326.837 54.9925 328.937 54.1564C331.037 53.3202 333.352 53.1898 335.533 53.7846C337.714 54.3795 339.642 55.6675 341.027 57.4543C342.412 59.241 343.178 61.4297 343.21 63.69H343.39C345.936 63.69 348.378 64.7014 350.178 66.5018C351.978 68.3021 352.99 70.7439 352.99 73.29C352.99 75.8361 351.978 78.2779 350.178 80.0782C348.378 81.8786 345.936 82.89 343.39 82.89H308.13C306.665 82.8483 305.273 82.2368 304.252 81.1855C303.23 80.1341 302.659 78.7258 302.66 77.26Z" fill="#EAECF0"/>
<path d="M164 35.6104C164 35.1565 164.09 34.7071 164.264 34.2878C164.438 33.8686 164.693 33.4878 165.014 33.1673C165.335 32.8468 165.717 32.5929 166.137 32.4201C166.556 32.2473 167.006 32.1591 167.46 32.1604C167.799 32.163 168.135 32.2135 168.46 32.3104C168.408 31.9594 168.381 31.6052 168.38 31.2504C168.38 29.3143 169.149 27.4575 170.518 26.0885C171.887 24.7195 173.744 23.9504 175.68 23.9504C176.133 23.9481 176.586 23.9917 177.03 24.0804C177.747 22.8935 178.832 21.9726 180.119 21.4571C181.406 20.9417 182.827 20.8597 184.165 21.2236C185.503 21.5875 186.686 22.3775 187.535 23.474C188.384 24.5705 188.853 25.9138 188.87 27.3004H188.97C190.529 27.3004 192.025 27.9199 193.128 29.0226C194.23 30.1253 194.85 31.6209 194.85 33.1804C194.85 34.7399 194.23 36.2355 193.128 37.3382C192.025 38.4409 190.529 39.0604 188.97 39.0604H167.37C166.47 39.037 165.614 38.6635 164.985 38.0193C164.356 37.3751 164.002 36.5109 164 35.6104Z" fill="#EAECF0"/>
</g>
<path d="M183 334C263.634 334 329 330.194 329 325.5C329 320.806 263.634 317 183 317C102.366 317 37 320.806 37 325.5C37 330.194 102.366 334 183 334Z" fill="#FCFCFD"/>
<g style="mix-blend-mode:multiply" opacity="0.85">
<path d="M252.5 246C282.6 246 307 221.376 307 191C307 160.624 282.6 136 252.5 136C222.4 136 198 160.624 198 191C198 221.376 222.4 246 252.5 246Z" fill="#002555"/>
</g>
<path d="M221.852 186C221.287 186.004 220.733 185.843 220.263 185.54C219.792 185.236 219.426 184.803 219.212 184.297C218.997 183.79 218.944 183.233 219.059 182.697C219.174 182.16 219.452 181.67 219.858 181.288C228.656 172.779 240.581 168 253.013 168C265.446 168 277.37 172.779 286.169 181.288C286.432 181.543 286.641 181.846 286.784 182.18C286.927 182.513 287 182.871 287 183.232C287 183.593 286.927 183.95 286.784 184.284C286.641 184.617 286.432 184.92 286.169 185.175C285.905 185.431 285.593 185.633 285.248 185.771C284.904 185.909 284.535 185.98 284.162 185.98C283.79 185.98 283.421 185.909 283.076 185.771C282.732 185.633 282.419 185.431 282.156 185.175C274.42 177.696 263.937 173.495 253.007 173.495C242.077 173.495 231.594 177.696 223.858 185.175C223.597 185.434 223.285 185.641 222.94 185.782C222.596 185.924 222.226 185.998 221.852 186Z" fill="#FCFCFD"/>
<path d="M230.871 196C230.302 196 229.747 195.828 229.274 195.506C228.802 195.184 228.434 194.726 228.217 194.19C228 193.655 227.944 193.066 228.056 192.498C228.169 191.93 228.444 191.409 228.847 191C235.147 184.596 243.682 181 252.58 181C261.478 181 270.012 184.596 276.312 191C276.78 191.557 277.025 192.273 276.998 193.005C276.971 193.737 276.674 194.433 276.166 194.952C275.658 195.471 274.977 195.776 274.259 195.805C273.54 195.835 272.837 195.588 272.289 195.113C267.063 189.798 259.981 186.813 252.598 186.813C245.215 186.813 238.133 189.798 232.907 195.113C232.643 195.392 232.327 195.614 231.977 195.766C231.627 195.919 231.251 195.998 230.871 196Z" fill="#FCFCFD"/>
<path d="M240.816 206C240.259 206.006 239.713 205.837 239.249 205.513C238.784 205.189 238.423 204.726 238.21 204.183C237.998 203.641 237.945 203.044 238.058 202.469C238.171 201.894 238.444 201.368 238.843 200.959C242.472 197.143 247.388 195 252.513 195C257.638 195 262.555 197.143 266.183 200.959C266.442 201.232 266.647 201.556 266.788 201.913C266.928 202.27 267 202.652 267 203.038C267 203.425 266.928 203.807 266.788 204.164C266.647 204.521 266.442 204.845 266.183 205.118C265.924 205.391 265.616 205.607 265.278 205.755C264.94 205.903 264.577 205.979 264.21 205.979C263.844 205.979 263.481 205.903 263.143 205.755C262.805 205.607 262.497 205.391 262.238 205.118C260.961 203.771 259.445 202.702 257.777 201.973C256.108 201.244 254.319 200.869 252.513 200.869C250.707 200.869 248.918 201.244 247.25 201.973C245.581 202.702 244.065 203.771 242.788 205.118C242.266 205.673 241.557 205.989 240.816 206Z" fill="#FCFCFD"/>
<path d="M255.826 212.17C256.386 212.729 256.768 213.441 256.923 214.217C257.078 214.994 256.999 215.798 256.696 216.529C256.393 217.261 255.881 217.886 255.223 218.325C254.565 218.765 253.791 219 253 219C252.209 219 251.435 218.765 250.777 218.325C250.119 217.886 249.606 217.261 249.304 216.529C249.001 215.798 248.922 214.994 249.077 214.217C249.232 213.441 249.614 212.729 250.174 212.17C250.924 211.421 251.94 211 253 211C254.06 211 255.076 211.421 255.826 212.17Z" fill="#FCFCFD"/>
<path opacity="0.85" d="M287.493 251C297.71 251 305.993 242.717 305.993 232.5C305.993 222.283 297.71 214 287.493 214C277.275 214 268.993 222.283 268.993 232.5C268.993 242.717 277.275 251 287.493 251Z" fill="#08356C"/>
<path opacity="0.85" d="M294.732 240.998C294.575 240.999 294.419 240.967 294.273 240.904C294.128 240.841 293.996 240.748 293.884 240.63L279.28 225.095C279.084 224.852 278.982 224.54 278.994 224.22C279.005 223.901 279.13 223.598 279.342 223.372C279.555 223.146 279.84 223.013 280.141 223.001C280.441 222.989 280.735 223.097 280.964 223.305L295.639 238.828C295.751 238.946 295.84 239.086 295.901 239.241C295.961 239.395 295.993 239.561 295.993 239.729C295.993 239.896 295.961 240.062 295.901 240.217C295.84 240.372 295.751 240.512 295.639 240.63C295.521 240.756 295.379 240.853 295.222 240.917C295.066 240.98 294.899 241.008 294.732 240.998Z" fill="#FCFCFD"/>
<path opacity="0.85" d="M280.194 241C279.957 241.001 279.724 240.928 279.527 240.789C279.329 240.65 279.175 240.452 279.084 240.22C278.993 239.988 278.969 239.733 279.016 239.487C279.063 239.241 279.178 239.015 279.346 238.838L293.95 223.374C294.061 223.256 294.193 223.161 294.338 223.097C294.484 223.033 294.64 223 294.798 223C294.955 223 295.111 223.033 295.257 223.097C295.402 223.161 295.534 223.256 295.645 223.374C295.868 223.611 295.993 223.931 295.993 224.265C295.993 224.599 295.868 224.92 295.645 225.157L281.03 240.633C280.807 240.867 280.507 240.999 280.194 241Z" fill="#FCFCFD"/>
<path d="M153.661 145.216C153.661 145.216 158.385 151.069 159.087 153.209C159.789 155.35 158.385 154.026 158.385 154.026C158.385 154.026 160.304 170.58 159.078 175.154C157.853 179.728 142.4 180.181 138.004 177.676C133.608 175.172 127.08 127.206 130.899 123.689C134.718 120.172 150.703 120.394 153.661 145.216Z" fill="#344054"/>
<path d="M172.613 119.453L173.501 113.849C174.169 112.759 174.932 111.73 175.783 110.776C176.485 110.181 177.559 104.924 176.671 102.632C175.783 100.341 170.703 98.5205 170.703 98.5205L168.252 110.776L169.504 112.988L168.51 117.614L172.613 119.453Z" fill="#462A21"/>
<path d="M143.146 103.547C148.928 104.355 159.043 132.632 162.56 132.215C163.741 132.073 168.812 113.165 168.812 113.165L174.016 116.584C174.016 116.584 169.7 139.808 165.419 141.673C158.652 144.648 144.514 120.936 144.514 120.936L143.146 103.547Z" fill="#101828"/>
<path d="M144.611 101.531C147.853 101.789 159.62 122.739 159.62 122.739L152.116 134.817L147.675 129.897L144.611 101.531Z" fill="#002555"/>
<path opacity="0.6" d="M144.611 101.531L146.121 115.545L147.675 129.897L152.116 134.817L153.98 131.815L159.62 122.748C159.62 122.748 147.853 101.789 144.611 101.531Z" fill="#FCFCFD"/>
<path opacity="0.2" d="M146.121 115.545L147.675 129.897L152.115 134.817L153.98 131.815C153.634 123.529 148.679 117.908 146.121 115.545Z" fill="#101828"/>
<path d="M163.359 108.663C163.337 108.747 163.333 108.835 163.347 108.921C163.362 109.007 163.395 109.089 163.443 109.161C163.492 109.233 163.556 109.294 163.63 109.34C163.704 109.386 163.787 109.415 163.874 109.426L170.641 110.377C170.834 110.407 171.032 110.365 171.196 110.259C171.36 110.152 171.479 109.988 171.529 109.799L174.913 96.6556C174.944 96.5641 174.955 96.4671 174.946 96.371C174.937 96.2749 174.907 96.1818 174.859 96.0979C174.811 96.014 174.746 95.9412 174.668 95.8842C174.59 95.8273 174.501 95.7875 174.407 95.7675L167.639 94.8261C167.438 94.8197 167.24 94.8822 167.079 95.0033C166.917 95.1244 166.802 95.2968 166.751 95.4922L163.359 108.663Z" fill="#344054"/>
<path opacity="0.5" d="M167.506 95.5364L164.087 108.804C164.056 108.88 164.043 108.962 164.05 109.044C164.057 109.126 164.083 109.204 164.127 109.274C164.17 109.343 164.229 109.401 164.3 109.443C164.37 109.485 164.449 109.51 164.531 109.515L170.268 110.323C170.65 110.376 171.387 110.261 171.485 109.888L174.913 96.5666C175.002 96.1936 174.389 95.7939 174.025 95.7407L168.288 94.9414C168.106 94.9185 167.922 94.968 167.776 95.0793C167.629 95.1905 167.533 95.3546 167.506 95.5364Z" fill="#FCFCFD"/>
<path d="M114.372 318.785H105.58C105.436 318.789 105.297 318.839 105.185 318.929C105.073 319.019 104.993 319.143 104.958 319.283L103.537 325.73C103.507 325.867 103.505 326.008 103.53 326.145C103.555 326.283 103.607 326.414 103.683 326.531C103.759 326.648 103.857 326.749 103.972 326.828C104.088 326.907 104.217 326.963 104.354 326.991C104.434 327 104.514 327 104.594 326.991C107.436 326.947 109.505 326.769 113.084 326.769C115.278 326.769 121.921 327 124.958 327C127.995 327 128.386 323.998 127.143 323.723C121.565 322.506 117.374 320.828 115.597 319.22C115.259 318.926 114.821 318.77 114.372 318.785Z" fill="#344054"/>
<path d="M151.654 318.554H142.862C142.718 318.558 142.579 318.608 142.467 318.698C142.355 318.788 142.275 318.912 142.24 319.052L140.819 325.499C140.789 325.636 140.786 325.778 140.811 325.916C140.836 326.054 140.888 326.186 140.964 326.304C141.04 326.422 141.138 326.524 141.254 326.604C141.369 326.684 141.499 326.74 141.636 326.769H141.876C144.718 326.725 146.787 326.547 150.366 326.547C152.56 326.547 159.203 326.778 162.24 326.778C165.277 326.778 165.668 323.776 164.425 323.501C158.847 322.284 154.656 320.606 152.879 318.998C152.542 318.7 152.104 318.542 151.654 318.554Z" fill="#344054"/>
<path d="M109.709 155.794H148.119C151.769 175.74 162.213 256.441 154.007 319.327L141.183 320.73C141.183 320.73 143.199 224.177 131.716 193.271C130.402 209.781 128.83 227.356 127.471 236.708C124.123 259.718 116.592 319.7 116.592 319.7L103.599 320.055C103.599 320.055 106.441 261.876 107.693 239.239C109.061 214.701 109.656 160.865 109.709 155.794Z" fill="#344054"/>
<path opacity="0.2" d="M109.709 155.794H148.119C151.769 175.74 162.213 256.441 154.007 319.327L141.183 320.73C141.183 320.73 143.199 224.177 131.716 193.271C130.402 209.781 128.83 227.356 127.471 236.708C124.123 259.718 116.592 319.7 116.592 319.7L103.599 320.055C103.599 320.055 106.441 261.876 107.693 239.239C109.061 214.701 109.656 160.865 109.709 155.794Z" fill="#FCFCFD"/>
<path opacity="0.2" d="M131.725 193.271C133.611 198.682 135.045 204.24 136.015 209.887C137.089 195.189 132.791 179.603 132.791 179.603L131.725 193.271Z" fill="#101828"/>
<path d="M148.439 156.282H109.771V160.891L148.936 160.412L148.439 156.282Z" fill="#344054"/>
<path d="M122.205 154.213H123.581V162.383H122.205V154.213Z" fill="#344054"/>
<path d="M141.769 154.213H143.146V162.383H141.769V154.213Z" fill="#344054"/>
<path d="M130.819 155.483H137.968V160.634H130.819V155.483Z" fill="#FCFCFD"/>
<path opacity="0.2" d="M122.205 154.213H123.581V162.383H122.205V154.213Z" fill="#FCFCFD"/>
<path opacity="0.2" d="M141.769 154.213H143.146V162.383H141.769V154.213Z" fill="#FCFCFD"/>
<path d="M144.611 101.531C144.611 101.531 120.18 100.59 101.983 104.355C101.983 104.355 110.02 137.454 109.718 156.282H148.439C148.439 156.282 150.952 120.963 144.611 101.531Z" fill="#101828"/>
<path d="M116.246 102.508C119.754 105.696 128.341 104.515 128.341 104.515C128.341 104.515 133.714 103.05 132.587 101.371C129.425 100.847 127.897 99.3731 127.258 97.4815C126.915 96.3123 126.807 95.087 126.938 93.8758C126.992 93.1996 127.081 92.5267 127.205 91.8598L116.548 83.9913C117.977 89.1867 119.674 98.7603 116.246 102.508Z" fill="#462A21"/>
<path opacity="0.2" d="M119.034 89.009C119.46 95.3855 124.7 97.144 127.258 97.4992C126.915 96.33 126.807 95.1048 126.938 93.8935L119.034 89.009Z" fill="#101828"/>
<path d="M134.567 67.4906C134.567 67.4906 137.533 77.082 132.888 81.6379C128.244 86.1938 125.508 67.9258 125.508 67.9258L134.567 67.4906Z" fill="#101828"/>
<path d="M118.937 91.7C120.27 93.1535 122.044 94.1286 123.985 94.4752C125.927 94.8218 127.929 94.5207 129.682 93.6183C131.973 92.4974 133.749 90.5435 134.647 88.1565C134.779 87.826 134.892 87.4879 134.984 87.1441C136.645 80.7676 135.872 70.1549 128.954 67.1709C127.426 66.5048 125.754 66.2407 124.095 66.4036C122.436 66.5665 120.847 67.1511 119.478 68.1017C118.109 69.0523 117.006 70.3374 116.274 71.8346C115.542 73.3319 115.205 74.9915 115.295 76.6557C115.526 83.7871 115.393 87.9878 118.937 91.7Z" fill="#462A21"/>
<path d="M120.713 67.8726L121.184 70.9986C120.659 71.2665 120.254 71.7223 120.05 72.2753C119.846 72.8283 119.857 73.4379 120.082 73.9826C121.175 76.6469 119.789 80.741 117.8 82.4284C117.8 82.4284 117.711 81.2916 116.752 81.5847C115.793 81.8778 116.219 87.8014 118.182 90.6344C115.678 88.0463 113.89 84.851 112.995 81.3627C111.344 75.6078 111.512 71.3539 112.64 69.0804L120.713 67.8726Z" fill="#101828"/>
<path d="M112.063 82.4461C112.815 84.0888 114.189 85.3662 115.881 85.9984C118.128 86.7977 119.434 84.835 118.936 82.6326C118.501 80.6699 116.814 77.8369 114.496 78.0056C112.178 78.1744 111.157 80.4301 112.063 82.4461Z" fill="#462A21"/>
<path d="M131.831 67.8725C130.499 70.5812 122.205 67.7126 119.913 69.471C117.622 71.2295 111.876 71.9311 111.876 71.9311C111.876 71.9311 108.777 66.3361 115.286 63.3166C126.769 57.988 140.331 62.4285 136.183 70.7677C136.183 70.7677 136.92 67.2775 134.407 66.3272C134.407 66.3272 136.796 67.6593 134.514 70.7677L131.831 67.8725Z" fill="#101828"/>
<path d="M116.246 100.563L121.184 103.014L118.715 164.151L103.59 162.383L101.974 104.346L116.246 100.563Z" fill="#002555"/>
<path opacity="0.6" d="M101.974 104.355L102.383 119.089L102.694 129.994L103.599 162.383L118.715 164.151L121.184 103.023L116.246 100.563L101.974 104.355Z" fill="#FCFCFD"/>
<path d="M121.184 103.014L115.384 98.4495L111.779 101.425L116.246 107.144L121.184 103.014Z" fill="#002555"/>
<path opacity="0.7" d="M121.184 103.014L115.384 98.4495L111.779 101.425L116.246 107.144L121.184 103.014Z" fill="#FCFCFD"/>
<path d="M132.587 101.389C135.029 104.773 145.393 164.151 145.393 164.151L152.942 163.262C152.942 163.262 149.451 105.483 144.611 101.522L132.587 101.389Z" fill="#002555"/>
<path opacity="0.6" d="M132.587 101.389C135.029 104.773 145.393 164.151 145.393 164.151L152.942 163.262C152.942 163.262 149.451 105.483 144.611 101.522L132.587 101.389Z" fill="#FCFCFD"/>
<path d="M151.121 139.506C151.121 139.506 150.499 109.657 137.968 101.389H134.416C134.416 101.389 148.537 116.718 151.121 139.506Z" fill="#344054"/>
<path d="M130.819 98.4495L135.917 101.389L136.183 104.746L131.725 101.602L130.819 98.4495Z" fill="#002555"/>
<path opacity="0.7" d="M130.819 98.4495L135.917 101.389L136.183 104.746L131.725 101.602L130.819 98.4495Z" fill="#FCFCFD"/>
<path d="M101.974 147.641L105.526 151.06C105.526 151.06 108.324 152.57 108.732 153.724C109.691 156.389 106.956 163.369 106.299 164.177C105.411 165.323 97.791 164.177 97.791 164.177C97.791 164.177 99.6293 156.762 100.695 154.87C101.091 154.145 101.598 153.486 102.196 152.916L98.8478 149.772L101.974 147.641Z" fill="#462A21"/>
<path opacity="0.2" d="M102.382 119.089L102.693 130.039C105.926 124.231 103.857 115.59 103.857 115.59C103.857 115.59 103.226 117.002 102.382 119.089Z" fill="#101828"/>
<path d="M100.242 108.982C94.9758 109.417 80.4733 128.742 81.015 132.961C81.5568 137.179 99.9047 152.605 99.9047 152.605L104.487 148.556C104.487 148.556 89.594 133.982 89.3897 132.357C89.1855 130.732 102.383 116.638 102.383 116.638L100.242 108.982Z" fill="#101828"/>
<path d="M101.974 104.355C100.065 105.243 94.1855 110.394 86.8054 120.501L95.8551 128.858L102.542 124.542C102.542 124.542 103.67 121.291 103.928 114C104.185 106.709 101.974 104.355 101.974 104.355Z" fill="#002555"/>
<path opacity="0.6" d="M101.974 104.355C100.065 105.243 94.1855 110.394 86.8054 120.501L95.8551 128.858L102.542 124.542C102.542 124.542 103.67 121.291 103.928 114C104.185 106.709 101.974 104.355 101.974 104.355Z" fill="#FCFCFD"/>
</g>
<defs>
<clipPath id="clip0_552_24372">
<rect width="394" height="340" fill="white" transform="translate(-2)"/>
</clipPath>
</defs>
</svg>
