<svg width="356" height="146" viewBox="0 0 356 146" fill="none" xmlns="http://www.w3.org/2000/svg">
<g clip-path="url(#clip0_2026_27814)">
<g opacity="0.25">
<path d="M167.551 206.857H12.358C11.1422 206.854 9.97697 206.37 9.11805 205.51C8.25912 204.649 7.7767 203.483 7.7767 202.267V-15.8908C7.78729 -17.0996 8.27437 -18.2554 9.13216 -19.1072C9.98995 -19.9589 11.1492 -20.4379 12.358 -20.4399H167.551C168.769 -20.4399 169.936 -19.9564 170.797 -19.0958C171.657 -18.2351 172.141 -17.0678 172.141 -15.8506V202.267C172.141 203.484 171.657 204.652 170.797 205.512C169.936 206.373 168.769 206.857 167.551 206.857ZM12.358 -20.2792C11.1955 -20.2771 10.0814 -19.8138 9.26013 -18.991C8.43888 -18.1683 7.97763 -17.0533 7.97764 -15.8908V202.267C7.97763 203.43 8.43888 204.545 9.26013 205.367C10.0814 206.19 11.1955 206.654 12.358 206.656H167.551C168.715 206.654 169.83 206.191 170.652 205.368C171.475 204.545 171.938 203.43 171.94 202.267V-15.8908C171.938 -17.054 171.475 -18.169 170.652 -18.9915C169.83 -19.814 168.715 -20.2771 167.551 -20.2792H12.358Z" fill="#EAECF0"/>
<path d="M341.408 206.857H186.206C184.99 206.854 183.824 206.37 182.963 205.51C182.103 204.65 181.619 203.484 181.617 202.267V-15.8908C181.629 -17.1003 182.118 -18.2561 182.977 -19.1077C183.836 -19.9592 184.997 -20.4379 186.206 -20.4399H341.408C342.615 -20.4358 343.772 -19.9559 344.628 -19.1044C345.484 -18.2528 345.97 -17.0982 345.981 -15.8908V202.267C345.981 203.482 345.5 204.647 344.642 205.507C343.785 206.367 342.622 206.852 341.408 206.857ZM186.206 -20.2792C185.043 -20.2771 183.928 -19.814 183.105 -18.9915C182.283 -18.169 181.82 -17.054 181.818 -15.8908V202.267C181.82 203.43 182.283 204.545 183.105 205.368C183.928 206.191 185.043 206.654 186.206 206.656H341.408C342.571 206.654 343.686 206.191 344.508 205.368C345.331 204.545 345.794 203.43 345.796 202.267V-15.8908C345.794 -17.054 345.331 -18.169 344.508 -18.9915C343.686 -19.814 342.571 -20.2771 341.408 -20.2792H186.206Z" fill="#EAECF0"/>
<path d="M321.78 12.7784H34.2197V132.447H321.78V12.7784Z" fill="#F9FAFB"/>
<path d="M316.154 126.829V18.4126L39.8459 18.4126V126.829L316.154 126.829Z" fill="#FCFCFD"/>
<path d="M76.223 126.821L104.563 18.4046H125.46L97.1201 126.821H76.223Z" fill="white"/>
<path d="M101.943 126.821L130.282 18.4046H139.63L111.29 126.821H101.943Z" fill="white"/>
<path d="M147.675 126.821L176.023 18.4046H196.92L168.572 126.821H147.675Z" fill="white"/>
<path d="M200.368 126.821L228.708 18.4046H238.063L209.715 126.821H200.368Z" fill="white"/>
<path d="M113.87 126.829V18.4126H112.439V126.829H113.87Z" fill="#F9FAFB"/>
<path d="M41.2764 126.829L41.2764 18.4126H39.8457L39.8457 126.829H41.2764Z" fill="#F9FAFB"/>
<path d="M112.439 126.829V18.4126H106.813V126.829H112.439Z" fill="#F9FAFB"/>
<path d="M183.626 126.829V18.4126H182.196V126.829H183.626Z" fill="#F9FAFB"/>
<path d="M182.195 126.829V18.4126H176.569V126.829H182.195Z" fill="#F9FAFB"/>
<path d="M253.415 126.821V18.4046H251.984V126.821H253.415Z" fill="#F9FAFB"/>
<path d="M251.984 126.821V18.4046H246.358V126.821H251.984Z" fill="#F9FAFB"/>
<path d="M323.211 132.447V12.7784H321.78V132.447H323.211Z" fill="#F9FAFB"/>
<path d="M326.426 4.56429H29.5741C29.2443 4.56218 28.9287 4.43025 28.6955 4.19708C28.4623 3.9639 28.3304 3.64825 28.3283 3.31849C28.3283 2.98734 28.4593 2.66964 28.6927 2.43473C28.9261 2.19983 29.2429 2.06679 29.5741 2.06467H326.426C326.757 2.06679 327.074 2.19983 327.307 2.43473C327.541 2.66964 327.672 2.98734 327.672 3.31849C327.67 3.64825 327.538 3.9639 327.305 4.19708C327.071 4.43025 326.756 4.56218 326.426 4.56429Z" fill="#F9FAFB"/>
<g opacity="0.6">
<path d="M91.4698 -0.346527H30.7395V218.004H91.4698V-0.346527Z" fill="#EAECF0"/>
<path d="M63.6445 219.789H58.5569L59.9875 1.43777H62.2621L63.6445 219.789Z" fill="#D0D5DD"/>
<path d="M46.7901 219.789H44.3306L45.0218 1.43777H46.123L46.7901 219.789Z" fill="#D0D5DD"/>
<path d="M80.547 219.789H78.0875L78.7787 1.43777H79.8799L80.547 219.789Z" fill="#D0D5DD"/>
</g>
<g opacity="0.6">
<path d="M324.537 -0.346527H263.807V218.004H324.537V-0.346527Z" fill="#EAECF0"/>
<path d="M287.606 219.789H282.518L283.949 1.43777H286.223L287.606 219.789Z" fill="#D0D5DD"/>
<path d="M276.377 219.789H273.926L274.609 1.43777H275.71L276.377 219.789Z" fill="#D0D5DD"/>
<path d="M302.362 219.789H299.911L300.602 1.43777H301.695L302.362 219.789Z" fill="#D0D5DD"/>
<path d="M314.868 219.789H312.417L313.1 1.43777H314.201L314.868 219.789Z" fill="#D0D5DD"/>
</g>
</g>
<path d="M243.511 28.8369C241.799 27.1249 238.504 20.6388 241.663 17.5846C244.821 14.5304 247.634 17.3033 247.851 18.7902C248.068 20.2771 247.49 32.8073 243.511 28.8369Z" fill="#101828"/>
<path d="M237.716 65.0612L236.977 65.865L236.286 66.5481C235.827 66.9982 235.353 67.4242 234.879 67.8422C233.936 68.6888 232.971 69.4925 231.986 70.2534C229.996 71.8347 227.901 73.2794 225.716 74.5775C224.615 75.2285 223.482 75.8474 222.333 76.4341C221.183 77.0208 219.97 77.5272 218.748 78.0416C216.243 79.041 213.633 79.7555 210.968 80.1715L210.373 80.2599C209.987 80.3096 209.597 80.3338 209.208 80.3322C208.313 80.3238 207.427 80.1494 206.596 79.8178C205.771 79.4868 205.016 79.0043 204.369 78.3952C203.854 77.904 203.405 77.3474 203.035 76.7395C202.522 75.8575 202.135 74.9079 201.886 73.9184C201.691 73.1521 201.548 72.3733 201.46 71.5876C201.313 70.2291 201.273 68.8613 201.339 67.4966C201.395 66.1945 201.5 64.9407 201.645 63.711C201.95 61.2435 202.384 58.8885 202.914 56.4773C203.445 54.0661 204.048 51.8398 204.827 49.5089L210.108 50.5538C209.915 55.0708 209.698 59.7003 209.843 64.0726C209.869 66.1029 210.084 68.1263 210.486 70.1167C210.565 70.4844 210.675 70.8447 210.815 71.1937C210.928 71.467 211.064 71.6358 211.056 71.5635C211.01 71.441 210.935 71.331 210.839 71.242C210.621 71.0304 210.364 70.8614 210.084 70.7436C209.795 70.6222 209.488 70.5489 209.176 70.5266C209.031 70.5266 208.967 70.5266 208.878 70.5266H208.967L209.135 70.4784C211.039 69.9893 212.891 69.3164 214.665 68.4691C216.521 67.5735 218.317 66.5586 220.042 65.431C221.786 64.2736 223.506 63.0197 225.162 61.6936C225.966 61.0345 226.81 60.3433 227.573 59.6441L228.747 58.5831L229.309 58.0607L229.799 57.5945L237.716 65.0612Z" fill="#FF8B7B"/>
<path d="M241.968 62.224C241.695 54.6448 235.474 52.0086 227.678 57.1766C224.241 59.3557 220.932 61.7307 217.767 64.2896L222.807 80.4769C222.807 80.4769 232.452 77.4147 238.03 71.4027C241.783 67.3197 242.064 64.804 241.968 62.224Z" fill="#263238"/>
<path opacity="0.2" d="M232.476 65.4551C232.476 65.4551 227.822 72.1101 226.175 79.183C228.462 78.2073 230.667 77.0461 232.765 75.7108L232.476 65.4551Z" fill="black"/>
<path d="M209.843 52.957L212.543 46.8566L204.9 44.6223C204.9 44.6223 203.589 47.5398 204.337 52.5471L209.843 52.957Z" fill="#FF8B7B"/>
<path d="M213.355 39.7034L206.708 40.4991L204.9 44.6223L212.543 46.8566L213.355 39.7034Z" fill="#FF8B7B"/>
<path d="M232.524 117.167C232.524 117.167 227.589 158.528 227.043 180.663C226.48 203.657 230.989 250.041 230.989 250.041L243.937 249.768C243.937 249.768 245.496 200.113 247.377 177.359C249.419 152.556 254.562 116.717 254.562 116.717L232.524 117.167Z" fill="#002555"/>
<path opacity="0.6" d="M232.524 117.167C232.524 117.167 227.589 158.528 227.043 180.663C226.48 203.657 230.989 250.041 230.989 250.041L243.937 249.768C243.937 249.768 245.496 200.113 247.377 177.359C249.419 152.556 254.562 116.717 254.562 116.717L232.524 117.167Z" fill="white"/>
<path opacity="0.2" d="M247.948 128.878C242.161 141.633 243.712 170.126 246.999 182.343C247.12 180.566 247.249 178.886 247.377 177.335C248.719 160.987 251.396 139.857 253.092 127.343C251.516 125.06 249.756 124.883 247.948 128.878Z" fill="black"/>
<path d="M245.159 116.894C245.159 116.894 248.735 161.397 251.348 183.355C254.056 206.197 262.978 250.017 262.978 250.017L275.926 249.744C275.926 249.744 272.373 199.992 270.999 177.199C269.496 152.323 269.11 116.348 269.11 116.348L245.159 116.894Z" fill="#002555"/>
<path opacity="0.6" d="M245.159 116.894C245.159 116.894 248.735 161.397 251.348 183.355C254.056 206.197 262.978 250.017 262.978 250.017L275.926 249.744C275.926 249.744 272.373 199.992 270.999 177.199C269.496 152.323 269.11 116.348 269.11 116.348L245.159 116.894Z" fill="white"/>
<path d="M231.632 55.1914C231.632 55.1914 226.335 74.8508 232.524 117.168C244.082 116.918 263.492 116.468 269.11 116.364C269.255 110.472 264.907 81.5861 269.994 53.7367C266.334 53.1046 262.632 52.7447 258.919 52.6597C253.483 52.4612 248.041 52.5793 242.619 53.0133C238.906 53.4526 235.232 54.1809 231.632 55.1914Z" fill="#263238"/>
<path opacity="0.2" d="M267.776 73.5567L261.788 68.5977C262.182 72.4717 265.686 81.9638 267.535 86.7701C267.503 82.5586 267.543 78.1139 267.776 73.5567Z" fill="black"/>
<path d="M256.909 34.3023C255.993 39.5748 255.173 49.2036 258.919 52.6194C258.919 52.6194 257.826 57.3936 247.851 59.0493C241.148 56.8953 242.619 53.0052 242.619 53.0052C248.438 51.4781 248.189 47.146 247.088 43.0952L256.909 34.3023Z" fill="#FF8B7B"/>
<path opacity="0.2" d="M252.907 37.8789L247.088 43.055C247.359 43.9986 247.547 44.9641 247.65 45.9404C249.885 45.5707 252.899 43.0469 253.084 40.7081C253.198 39.7621 253.138 38.8033 252.907 37.8789Z" fill="black"/>
<path d="M260.1 27.8161C258.163 34.6639 257.384 38.771 253.108 41.5761C246.678 45.7877 238.793 40.7723 238.64 33.4664C238.496 26.9079 241.679 16.8049 249.089 15.519C250.717 15.2302 252.391 15.3618 253.954 15.9014C255.516 16.4409 256.915 17.3705 258.018 18.6021C259.121 19.8336 259.891 21.3263 260.255 22.9388C260.62 24.5513 260.566 26.2301 260.1 27.8161Z" fill="#FF8B7B"/>
<path d="M255.977 32.0117C255.077 29.8255 254.426 22.6241 258.179 20.8558C261.933 19.0876 265.831 23.4037 264.842 25.4452C263.323 28.6119 258.067 37.0752 255.977 32.0117Z" fill="#101828"/>
<path d="M258.22 23.3956C257.295 20.9844 246.276 19.618 244.733 17.0219C242.9 13.9356 250.415 13.5659 255.583 15.1332C260.124 16.5156 263.154 17.8498 262.624 21.2255C262.327 23.1384 258.22 23.3956 258.22 23.3956Z" fill="#101828"/>
<path d="M260.615 20.912C260.615 20.912 263.026 21.5711 264.344 19.8029C263.926 21.555 261.877 23.3232 260.615 20.912Z" fill="#101828"/>
<path d="M249.579 13.4775C246.268 10.9055 241.759 13.9276 242.185 17.2792C242.611 20.6308 253.775 23.1786 253.775 23.1786C253.775 23.1786 253.976 16.8934 249.579 13.4775Z" fill="#101828"/>
<path d="M242.193 17.2952C242.699 19.6421 244.411 21.4827 247.875 22.849C245.87 21.3665 244.351 19.3215 243.511 16.9737L242.193 17.2952Z" fill="#101828"/>
<path d="M271.746 59.2181C273.209 61.774 274.431 64.2495 275.701 66.7974C276.971 69.3452 278.112 71.9091 279.197 74.5293C280.282 77.1495 281.335 79.8099 282.251 82.5667C283.204 85.316 284.009 88.1143 284.662 90.9496L285.153 93.1438C285.367 94.1743 285.459 95.2264 285.426 96.2784C285.358 98.233 284.924 100.158 284.148 101.953C282.783 104.978 280.842 107.708 278.433 109.99C276.285 112.065 273.943 113.93 271.441 115.56C270.227 116.364 268.973 117.103 267.712 117.81C266.45 118.518 265.196 119.169 263.789 119.788L261.121 115.118C262.093 114.314 263.162 113.511 264.159 112.642C265.156 111.774 266.128 110.89 267.093 110.006C268.955 108.279 270.683 106.411 272.261 104.42C273.664 102.713 274.753 100.77 275.476 98.6816C275.724 97.9035 275.823 97.0852 275.765 96.2704C275.742 95.9427 275.679 95.619 275.58 95.3059L275.034 93.5055C273.41 88.5117 271.477 83.6236 269.247 78.8695C268.146 76.4583 266.972 74.0471 265.799 71.6359C264.625 69.2247 263.388 66.8134 262.19 64.5228L271.746 59.2181Z" fill="#FF8B7B"/>
<path d="M270.267 53.7769C276.971 55.2236 281.632 72.7129 281.632 72.7129L269.649 83.5874C265.838 79.3486 262.841 74.4444 260.807 69.1202C257.633 60.3675 263.098 52.2176 270.267 53.7769Z" fill="#263238"/>
<path d="M262.576 114.29L254.868 114.371L259.69 122.143C259.69 122.143 265.18 120.784 265.67 118.028L262.576 114.29Z" fill="#FF8B7B"/>
<path d="M250.07 118.96L254.321 125.197L259.65 122.143L254.868 114.37L250.07 118.96Z" fill="#FF8B7B"/>
<path d="M262.206 34.0853C261.35 35.6609 259.905 36.8339 258.187 37.3484C255.905 38.0155 254.739 35.9821 255.35 33.82C255.905 31.875 257.761 29.1825 260.044 29.4638C262.327 29.7451 263.227 32.1483 262.206 34.0853Z" fill="#FF8B7B"/>
<path d="M152.917 64.0286C152.881 65.2051 152.943 66.3826 153.102 67.5489C145.819 69.9811 138.052 70.5964 130.477 69.3413C130.84 67.9665 131.061 66.5578 131.136 65.1377C130.882 66.5677 130.385 67.9434 129.665 69.2046C128.234 68.9314 127.43 68.6983 127.43 68.6983C127.43 68.6983 128.893 60.7895 126.257 55.0348C123.621 49.28 124.939 46.0651 126.932 45.1568C130.629 33.792 144.526 35.5843 149.228 40.1978C155.192 46.049 155.224 62.5336 156.285 66.3031C155.409 66.6809 154.549 67.0265 153.689 67.3319C153.258 66.2787 152.997 65.1636 152.917 64.0286Z" fill="#263238"/>
<path d="M158.664 81.7188L159.387 84.0094C159.652 84.8132 159.918 85.6169 160.191 86.3805C160.729 87.9879 161.292 89.5954 161.895 91.1386C162.498 92.6818 163.076 94.3053 163.703 95.8806L164.636 98.2918L164.869 98.8866L164.925 99.0232C164.826 98.9363 164.711 98.8682 164.587 98.8223C164.41 98.758 164.338 98.8223 164.451 98.8223C164.644 98.8215 164.837 98.7917 165.021 98.7339C165.65 98.5347 166.254 98.2651 166.822 97.9302C168.192 97.1315 169.503 96.2343 170.744 95.2457C172.046 94.233 173.324 93.1479 174.578 92.0307C175.832 90.9135 177.093 89.7481 178.307 88.6068L180.775 90.6965C179.746 92.1754 178.661 93.5257 177.56 94.9001C176.458 96.2745 175.221 97.5604 173.951 98.8384C172.644 100.173 171.221 101.388 169.699 102.471C168.828 103.081 167.893 103.593 166.91 103.998C166.286 104.249 165.632 104.416 164.965 104.497C164.059 104.609 163.14 104.485 162.297 104.135C161.378 103.743 160.595 103.089 160.046 102.254C159.926 102.069 159.813 101.885 159.725 101.716L159.508 101.282L159.218 100.695C158.841 99.8913 158.415 99.0875 158.085 98.332C157.354 96.7245 156.622 95.1171 155.955 93.5096C155.288 91.9021 154.637 90.2464 154.018 88.5907C153.729 87.787 153.439 86.9109 153.166 86.067C152.893 85.2231 152.628 84.3952 152.362 83.4066L158.664 81.7188Z" fill="#FFC3BD"/>
<path d="M156.759 74.5817C159.532 75.289 161.469 86.6859 161.469 86.6859L153.833 91.8781C153.833 91.8781 146.519 80.3766 148.649 77.3304C150.867 74.1637 152.716 73.5529 156.759 74.5817Z" fill="#002555"/>
<path d="M156.759 74.5817C159.532 75.289 161.469 86.6859 161.469 86.6859L153.833 91.8781C153.833 91.8781 146.519 80.3766 148.649 77.3304C150.867 74.1637 152.716 73.5529 156.759 74.5817Z" fill="#002555"/>
<path opacity="0.4" d="M156.759 74.5817C159.532 75.289 161.469 86.6859 161.469 86.6859L153.833 91.8781C153.833 91.8781 146.519 80.3766 148.649 77.3304C150.867 74.1637 152.716 73.5529 156.759 74.5817Z" fill="white"/>
<path opacity="0.3" d="M156.51 77.1295L158.64 88.6149L154.348 91.5244L156.51 77.1295Z" fill="black"/>
<path d="M178.178 88.8801L180.726 82.7396L183.869 88.8801C183.869 88.8801 181.827 91.9343 179.135 91.1868L178.178 88.8801Z" fill="#FFC3BD"/>
<path d="M183.531 82.1046L187.566 83.7281L183.869 88.8801L180.718 82.7395L183.531 82.1046Z" fill="#FFC3BD"/>
<path d="M156.759 74.5816C156.759 74.5816 159.974 75.7068 153.544 115.146H126.217C126.675 104.039 126.691 97.1907 121.395 74.3887C125.216 73.599 129.089 73.0886 132.984 72.8616C137.113 72.5639 141.258 72.5639 145.386 72.8616C150.723 73.3438 156.759 74.5816 156.759 74.5816Z" fill="#002555"/>
<path opacity="0.4" d="M156.759 74.5816C156.759 74.5816 159.974 75.7068 153.544 115.146H126.217C126.675 104.039 126.691 97.1907 121.395 74.3887C125.216 73.599 129.089 73.0886 132.984 72.8616C137.113 72.5639 141.258 72.5639 145.386 72.8616C150.723 73.3438 156.759 74.5816 156.759 74.5816Z" fill="white"/>
<path d="M133 72.8536C137.129 72.5638 141.273 72.5638 145.402 72.8536C146.069 72.9179 146.752 72.9903 147.427 73.0706C147.708 73.493 147.889 73.9743 147.954 74.4774C148.02 74.9805 147.969 75.4919 147.805 75.9721C146.929 78.1342 143.786 78.3833 141.504 78.3833C133.057 78.3833 131.626 73.4484 131.57 73.2394L131.489 72.942L133 72.8536Z" fill="white"/>
<path d="M134.23 58.9007C135.034 62.9194 135.797 70.2013 133 72.8616C133 72.8616 134.093 76.8803 141.504 76.8803C149.654 76.8803 145.402 72.8616 145.402 72.8616C140.949 71.8007 141.07 68.4973 141.841 65.4029L134.23 58.9007Z" fill="#FFC3BD"/>
<path opacity="0.2" d="M137.333 61.5531L141.842 65.395C141.644 66.1152 141.515 66.8526 141.456 67.5972C139.76 67.348 137.437 65.4834 137.244 63.7071C137.144 62.9896 137.174 62.26 137.333 61.5531Z" fill="black"/>
<path d="M130.549 51.7796C132.108 58.2657 132.623 61.0467 136.529 63.8356C142.404 68.0231 150.032 64.6956 150.442 57.8719C150.811 51.7314 148.207 42.1589 141.335 40.68C139.821 40.3457 138.247 40.4039 136.761 40.849C135.276 41.2942 133.929 42.1116 132.849 43.2236C131.768 44.3356 130.99 45.7054 130.587 47.2028C130.185 48.7002 130.172 50.2757 130.549 51.7796Z" fill="#FFC3BD"/>
<path d="M153.552 115.146C153.552 115.146 158.848 166.923 158.374 187.418C157.916 208.733 150.104 257.343 150.104 257.343H141.022C141.022 257.343 142.46 209.963 141.657 189.026C140.78 166.199 133.531 115.13 133.531 115.13L153.552 115.146Z" fill="#002555"/>
<path opacity="0.4" d="M153.552 115.146C153.552 115.146 158.848 166.923 158.374 187.418C157.916 208.733 150.104 257.343 150.104 257.343H141.022C141.022 257.343 142.46 209.963 141.657 189.026C140.78 166.199 133.531 115.13 133.531 115.13L153.552 115.146Z" fill="black"/>
<path opacity="0.2" d="M141.777 128.03C148.48 141.517 143.12 166.119 140.749 175.274C139.535 161.53 137.485 144.732 135.886 132.378C136.899 125.434 138.683 121.809 141.777 128.03Z" fill="black"/>
<path d="M146.342 115.146C146.342 115.146 140.154 168.996 135.484 186.253C129.946 206.772 108.864 241.71 108.864 241.71L100.433 238.126C100.433 238.126 113.478 198.453 117.721 187.643C126.763 164.576 119.023 130.2 126.249 115.146H146.342Z" fill="#002555"/>
<path opacity="0.4" d="M146.342 115.146C146.342 115.146 140.154 168.996 135.484 186.253C129.946 206.772 108.864 241.71 108.864 241.71L100.433 238.126C100.433 238.126 113.478 198.453 117.721 187.643C126.763 164.576 119.023 130.2 126.249 115.146H146.342Z" fill="black"/>
<path d="M132.824 47.978C132.999 49.6872 133.268 51.3855 133.627 53.0656C133.627 53.0656 137.646 47.978 138.313 45.2533C138.154 46.3261 137.842 47.3707 137.389 48.3557C137.389 48.3557 142.798 47.1743 143.328 43.6057C143.319 45.2033 143.141 46.7955 142.798 48.3557C142.798 48.3557 147.958 46.3303 147.484 42.9064C147.009 39.4825 139.085 38.1563 135.428 39.3137C131.771 40.4711 128.194 44.2245 129.271 49.3845C130.348 54.5445 132.414 56.4815 132.414 56.4815C132.414 56.4815 130.927 51.2813 132.824 47.978Z" fill="#263238"/>
<path d="M130.268 56.6664C130.764 57.8569 131.712 58.8021 132.904 59.2946C134.511 59.9376 135.468 58.5632 135.187 56.9718C134.937 55.5331 133.804 53.4755 132.14 53.5077C131.776 53.5238 131.422 53.6303 131.109 53.8177C130.797 54.005 130.536 54.2673 130.35 54.5807C130.164 54.8942 130.059 55.249 130.045 55.6131C130.031 55.9772 130.107 56.3392 130.268 56.6664Z" fill="#FFC3BD"/>
<path d="M124.73 83.929C123.613 87.4574 122.544 91.1627 121.636 94.8116C120.721 98.4138 120.053 102.074 119.634 105.767L119.57 106.442C119.57 106.659 119.57 106.707 119.57 106.9C119.579 107.279 119.608 107.657 119.658 108.033C119.761 108.913 119.908 109.788 120.1 110.653C120.478 112.446 120.904 114.294 121.451 116.127C121.997 117.959 122.463 119.824 123.01 121.672L124.617 127.218L121.636 128.448C119.803 124.944 118.212 121.375 116.725 117.694C116.009 115.845 115.31 113.981 114.731 112.012C114.442 111.031 114.169 110.026 113.928 108.933C113.813 108.354 113.733 107.769 113.687 107.181C113.687 106.884 113.687 106.442 113.687 106.176V105.373C113.755 103.325 113.943 101.282 114.249 99.2563C114.514 97.2469 114.908 95.2858 115.334 93.3327C116.171 89.4212 117.244 85.5642 118.549 81.7831L124.73 83.929Z" fill="#FFC3BD"/>
<path d="M121.411 74.3888C118.678 75.1925 115.391 84.6364 115.391 84.6364L126 92.2237C126 92.2237 129.874 84.3631 128.725 80.8267C127.527 77.1456 124.537 73.4404 121.411 74.3888Z" fill="#002555"/>
<path opacity="0.4" d="M121.411 74.3888C118.678 75.1925 115.391 84.6364 115.391 84.6364L126 92.2237C126 92.2237 129.874 84.3631 128.725 80.8267C127.527 77.1456 124.537 73.4404 121.411 74.3888Z" fill="white"/>
<path d="M125.839 113.547L125.148 115.958C125.051 116.143 125.276 116.336 125.59 116.336H153.721C153.97 116.336 154.171 116.215 154.187 116.062L154.436 113.651C154.436 113.482 154.235 113.338 153.97 113.338H126.289C126.203 113.331 126.116 113.347 126.037 113.383C125.958 113.42 125.89 113.476 125.839 113.547Z" fill="#263238"/>
<path d="M129.552 116.633H128.805C128.66 116.633 128.548 116.561 128.556 116.464L128.901 113.249C128.901 113.161 129.046 113.081 129.191 113.081H129.93C130.083 113.081 130.187 113.161 130.179 113.249L129.834 116.464C129.834 116.593 129.705 116.633 129.552 116.633Z" fill="#002555"/>
<path opacity="0.4" d="M129.552 116.633H128.805C128.66 116.633 128.548 116.561 128.556 116.464L128.901 113.249C128.901 113.161 129.046 113.081 129.191 113.081H129.93C130.083 113.081 130.187 113.161 130.179 113.249L129.834 116.464C129.834 116.593 129.705 116.633 129.552 116.633Z" fill="black"/>
<path d="M151.599 116.633H150.859C150.715 116.633 150.602 116.561 150.61 116.464L150.964 113.249C150.964 113.161 151.1 113.081 151.245 113.081H151.985C152.137 113.081 152.25 113.161 152.234 113.249L151.888 116.464C151.88 116.593 151.752 116.633 151.599 116.633Z" fill="#002555"/>
<path opacity="0.4" d="M151.599 116.633H150.859C150.715 116.633 150.602 116.561 150.61 116.464L150.964 113.249C150.964 113.161 151.1 113.081 151.245 113.081H151.985C152.137 113.081 152.25 113.161 152.234 113.249L151.888 116.464C151.88 116.593 151.752 116.633 151.599 116.633Z" fill="black"/>
<path d="M140.58 116.633H139.84C139.687 116.633 139.575 116.561 139.591 116.464L139.937 113.249C139.937 113.161 140.073 113.081 140.226 113.081H140.965C141.11 113.081 141.223 113.161 141.214 113.249L140.869 116.464C140.861 116.593 140.724 116.633 140.58 116.633Z" fill="#002555"/>
<path opacity="0.4" d="M140.58 116.633H139.84C139.687 116.633 139.575 116.561 139.591 116.464L139.937 113.249C139.937 113.161 140.073 113.081 140.226 113.081H140.965C141.11 113.081 141.223 113.161 141.214 113.249L140.869 116.464C140.861 116.593 140.724 116.633 140.58 116.633Z" fill="black"/>
<path d="M124.392 126.31L130.155 130.731L123.476 132.201C123.476 132.201 120.639 128.986 121.619 126.334L124.392 126.31Z" fill="#FFC3BD"/>
<path d="M131.57 136.204L125.912 137.128L122.825 131.325L130.155 130.731L131.57 136.204Z" fill="#FFC3BD"/>
</g>
<path d="M10 145H346" stroke="#344054"/>
<defs>
<clipPath id="clip0_2026_27814">
<rect width="356" height="145" fill="white"/>
</clipPath>
</defs>
</svg>
