<svg width="356" height="340" viewBox="0 0 356 340" fill="none" xmlns="http://www.w3.org/2000/svg">
<g clip-path="url(#clip0_561_24542)">
<g opacity="0.25">
<path d="M378.934 282.703H-22.9341V282.904H378.934V282.703Z" fill="#EAECF0"/>
<path d="M325.719 291.255H299.099V291.456H325.719V291.255Z" fill="#EAECF0"/>
<path d="M228.691 291.159H221.707V291.36H228.691V291.159Z" fill="#EAECF0"/>
<path d="M338.667 295.635H323.243V295.836H338.667V295.635Z" fill="#EAECF0"/>
<path d="M69.174 298.304H34.4607V298.505H69.174V298.304Z" fill="#EAECF0"/>
<path d="M66.1921 289.527H61.1045V289.728H66.1921V289.527Z" fill="#EAECF0"/>
<path d="M176.754 290.387H127.807V290.588H176.754V290.387Z" fill="#EAECF0"/>
<path d="M167.551 246.857H12.3579C11.1421 246.854 9.97688 246.37 9.11795 245.51C8.25902 244.649 7.77661 243.483 7.77661 242.267V24.1092C7.78719 22.9004 8.27428 21.7446 9.13207 20.8928C9.98985 20.0411 11.1491 19.5621 12.3579 19.5601H167.551C168.768 19.5601 169.936 20.0436 170.796 20.9042C171.657 21.7649 172.141 22.9322 172.141 24.1494V242.267C172.141 243.484 171.657 244.652 170.796 245.512C169.936 246.373 168.768 246.857 167.551 246.857ZM12.3579 19.7208C11.1954 19.7229 10.0813 20.1862 9.26004 21.009C8.43879 21.8317 7.97754 22.9467 7.97755 24.1092V242.267C7.97754 243.43 8.43879 244.545 9.26004 245.367C10.0813 246.19 11.1954 246.654 12.3579 246.656H167.551C168.715 246.654 169.829 246.191 170.652 245.368C171.475 244.545 171.938 243.43 171.94 242.267V24.1092C171.938 22.946 171.475 21.831 170.652 21.0085C169.829 20.186 168.715 19.7229 167.551 19.7208H12.3579Z" fill="#EAECF0"/>
<path d="M341.407 246.857H186.206C184.99 246.854 183.823 246.37 182.963 245.51C182.103 244.65 181.619 243.484 181.617 242.267V24.1092C181.629 22.8997 182.118 21.7439 182.977 20.8923C183.836 20.0408 184.996 19.5621 186.206 19.5601H341.407C342.615 19.5642 343.772 20.0441 344.628 20.8956C345.484 21.7472 345.97 22.9018 345.981 24.1092V242.267C345.981 243.482 345.499 244.647 344.642 245.507C343.785 246.367 342.622 246.852 341.407 246.857ZM186.206 19.7208C185.043 19.7229 183.928 20.186 183.105 21.0085C182.283 21.831 181.82 22.946 181.818 24.1092V242.267C181.82 243.43 182.283 244.545 183.105 245.368C183.928 246.191 185.043 246.654 186.206 246.656H341.407C342.571 246.654 343.686 246.191 344.508 245.368C345.331 244.545 345.794 243.43 345.796 242.267V24.1092C345.794 22.946 345.331 21.831 344.508 21.0085C343.686 20.186 342.571 19.7229 341.407 19.7208H186.206Z" fill="#EAECF0"/>
<path d="M321.78 52.7784H34.2197V172.447H321.78V52.7784Z" fill="#F9FAFB"/>
<path d="M316.154 166.829V58.4126L39.8459 58.4126V166.829H316.154Z" fill="#FCFCFD"/>
<path d="M76.2229 166.82L104.563 58.4045H125.46L97.12 166.82H76.2229Z" fill="white"/>
<path d="M101.942 166.82L130.282 58.4045H139.63L111.29 166.82H101.942Z" fill="white"/>
<path d="M147.675 166.82L176.023 58.4045H196.92L168.572 166.82H147.675Z" fill="white"/>
<path d="M200.368 166.82L228.708 58.4045H238.063L209.715 166.82H200.368Z" fill="white"/>
<path d="M113.87 166.829V58.4126H112.439V166.829H113.87Z" fill="#F9FAFB"/>
<path d="M41.2764 166.829L41.2764 58.4126H39.8457L39.8457 166.829H41.2764Z" fill="#F9FAFB"/>
<path d="M112.439 166.829V58.4126H106.813V166.829H112.439Z" fill="#F9FAFB"/>
<path d="M183.626 166.829V58.4126H182.195V166.829H183.626Z" fill="#F9FAFB"/>
<path d="M182.195 166.829V58.4126H176.569V166.829H182.195Z" fill="#F9FAFB"/>
<path d="M253.415 166.821V58.4045H251.984V166.821H253.415Z" fill="#F9FAFB"/>
<path d="M251.984 166.821V58.4045H246.358V166.821H251.984Z" fill="#F9FAFB"/>
<path d="M323.211 172.447V52.7784H321.78V172.447H323.211Z" fill="#F9FAFB"/>
<path d="M326.426 44.5643H29.5739C29.2442 44.5622 28.9285 44.4303 28.6953 44.1971C28.4622 43.9639 28.3302 43.6483 28.3281 43.3185C28.3281 42.9874 28.4591 42.6697 28.6925 42.4348C28.9259 42.1999 29.2428 42.0668 29.5739 42.0647H326.426C326.757 42.0668 327.074 42.1999 327.307 42.4348C327.541 42.6697 327.672 42.9874 327.672 43.3185C327.669 43.6483 327.538 43.9639 327.304 44.1971C327.071 44.4303 326.756 44.5622 326.426 44.5643Z" fill="#F9FAFB"/>
<g opacity="0.6">
<path d="M91.4698 39.6534H30.7395V258.004H91.4698V39.6534Z" fill="#EAECF0"/>
<path d="M63.6445 259.789H58.5569L59.9875 41.4377H62.2621L63.6445 259.789Z" fill="#D0D5DD"/>
<path d="M46.79 259.789H44.3306L45.0218 41.4377H46.1229L46.79 259.789Z" fill="#D0D5DD"/>
<path d="M80.5471 259.789H78.0876L78.7789 41.4377H79.88L80.5471 259.789Z" fill="#D0D5DD"/>
</g>
<g opacity="0.6">
<path d="M324.537 39.6534H263.807V258.004H324.537V39.6534Z" fill="#EAECF0"/>
<path d="M287.605 259.789H282.518L283.948 41.4377H286.223L287.605 259.789Z" fill="#D0D5DD"/>
<path d="M276.377 259.789H273.926L274.609 41.4377H275.71L276.377 259.789Z" fill="#D0D5DD"/>
<path d="M302.362 259.789H299.911L300.602 41.4377H301.695L302.362 259.789Z" fill="#D0D5DD"/>
<path d="M314.868 259.789H312.417L313.1 41.4377H314.201L314.868 259.789Z" fill="#D0D5DD"/>
</g>
<path d="M238.449 281.337H249.862V215.929H238.449V281.337Z" fill="#D0D5DD"/>
<path d="M106.138 281.337H242.845V215.929H106.138V281.337Z" fill="#F9FAFB"/>
<path d="M239.775 281.337H235.66H112.037V282.703H235.66H239.775H243.963V281.337H239.775Z" fill="#F9FAFB"/>
<path opacity="0.5" d="M110.036 246.415L238.947 246.415V220.02H110.036V246.415Z" fill="#FCFCFD"/>
<path opacity="0.5" d="M110.036 277.069H238.947V250.674H110.036V277.069Z" fill="#FCFCFD"/>
<path d="M129.575 233.217C129.575 233.791 129.405 234.352 129.086 234.829C128.767 235.306 128.314 235.678 127.784 235.898C127.254 236.117 126.67 236.175 126.107 236.063C125.545 235.951 125.028 235.675 124.622 235.269C124.216 234.863 123.94 234.346 123.828 233.783C123.716 233.22 123.773 232.637 123.993 232.107C124.212 231.577 124.584 231.123 125.061 230.805C125.539 230.486 126.1 230.316 126.673 230.316C127.054 230.316 127.432 230.391 127.784 230.537C128.136 230.682 128.456 230.896 128.725 231.165C128.995 231.435 129.208 231.755 129.354 232.107C129.5 232.459 129.575 232.836 129.575 233.217Z" fill="#F9FAFB"/>
<path d="M225.203 233.217C225.203 233.791 225.033 234.352 224.714 234.829C224.396 235.306 223.942 235.678 223.412 235.898C222.882 236.117 222.299 236.175 221.736 236.063C221.173 235.951 220.656 235.675 220.25 235.269C219.844 234.863 219.568 234.346 219.456 233.783C219.344 233.22 219.402 232.637 219.621 232.107C219.841 231.577 220.213 231.123 220.69 230.805C221.167 230.486 221.728 230.316 222.302 230.316C222.683 230.316 223.06 230.391 223.412 230.537C223.764 230.682 224.084 230.896 224.354 231.165C224.623 231.435 224.837 231.755 224.982 232.107C225.128 232.459 225.203 232.836 225.203 233.217Z" fill="#F9FAFB"/>
<path d="M126.673 266.773C128.276 266.773 129.575 265.474 129.575 263.872C129.575 262.269 128.276 260.97 126.673 260.97C125.071 260.97 123.772 262.269 123.772 263.872C123.772 265.474 125.071 266.773 126.673 266.773Z" fill="#F9FAFB"/>
<path d="M225.203 263.896C225.203 264.47 225.033 265.031 224.714 265.508C224.396 265.985 223.942 266.357 223.412 266.576C222.882 266.796 222.299 266.854 221.736 266.742C221.173 266.63 220.656 266.353 220.25 265.948C219.844 265.542 219.568 265.025 219.456 264.462C219.344 263.899 219.402 263.316 219.621 262.785C219.841 262.255 220.213 261.802 220.69 261.483C221.167 261.165 221.728 260.994 222.302 260.994C223.071 260.994 223.809 261.3 224.354 261.844C224.898 262.388 225.203 263.126 225.203 263.896Z" fill="#F9FAFB"/>
<path d="M177.389 233.217C177.389 233.791 177.219 234.352 176.9 234.829C176.581 235.306 176.128 235.678 175.598 235.898C175.068 236.117 174.484 236.175 173.922 236.063C173.359 235.951 172.842 235.675 172.436 235.269C172.03 234.863 171.754 234.346 171.642 233.783C171.53 233.22 171.587 232.637 171.807 232.107C172.027 231.577 172.399 231.123 172.876 230.805C173.353 230.486 173.914 230.316 174.488 230.316C174.869 230.316 175.246 230.391 175.598 230.537C175.95 230.682 176.27 230.896 176.539 231.165C176.809 231.435 177.022 231.755 177.168 232.107C177.314 232.459 177.389 232.836 177.389 233.217Z" fill="#F9FAFB"/>
<path d="M174.488 266.773C176.09 266.773 177.389 265.474 177.389 263.872C177.389 262.269 176.09 260.97 174.488 260.97C172.885 260.97 171.586 262.269 171.586 263.872C171.586 265.474 172.885 266.773 174.488 266.773Z" fill="#F9FAFB"/>
<path d="M234.39 204.821C234.39 207.767 233.22 210.592 231.137 212.675C229.054 214.759 226.228 215.929 223.282 215.929C220.337 215.929 217.511 214.759 215.428 212.675C213.345 210.592 212.175 207.767 212.175 204.821H234.39Z" fill="#F9FAFB"/>
<path d="M146.566 202.812C146.566 206.284 145.186 209.615 142.731 212.07C140.276 214.525 136.945 215.905 133.473 215.905C130.001 215.905 126.67 214.525 124.215 212.07C121.76 209.615 120.38 206.284 120.38 202.812H146.566Z" fill="#F9FAFB"/>
<path d="M202.851 208.221C202.851 210.265 202.039 212.226 200.594 213.671C199.148 215.117 197.188 215.929 195.144 215.929C193.099 215.929 191.139 215.117 189.693 213.671C188.248 212.226 187.436 210.265 187.436 208.221H202.851Z" fill="#F9FAFB"/>
</g>
<path d="M178 319C264.066 319 333.837 314.927 333.837 309.902C333.837 304.877 264.066 300.803 178 300.803C91.9341 300.803 22.1638 304.877 22.1638 309.902C22.1638 314.927 91.9341 319 178 319Z" fill="#EAECF0"/>
<path d="M243.511 68.8368C241.799 67.1248 238.504 60.6387 241.662 57.5845C244.821 54.5303 247.634 57.3032 247.851 58.7901C248.068 60.277 247.49 72.8073 243.511 68.8368Z" fill="#101828"/>
<path d="M242.788 302.153L235.61 302.218L233.657 285.628L240.827 285.564L242.788 302.153Z" fill="#FF8B7B"/>
<path d="M235.603 301.39L243.431 301.318C243.575 301.32 243.715 301.367 243.831 301.454C243.946 301.541 244.032 301.662 244.074 301.8L245.971 308.157C246.021 308.305 246.035 308.463 246.012 308.618C245.988 308.772 245.928 308.919 245.835 309.045C245.743 309.171 245.622 309.273 245.482 309.343C245.341 309.412 245.187 309.446 245.03 309.443C242.209 309.443 238.11 309.291 234.582 309.323C230.435 309.323 228.586 309.612 223.715 309.66C220.774 309.66 219.697 306.719 220.942 306.445C226.464 305.167 229.317 304.999 233.939 301.969C234.425 301.618 235.003 301.417 235.603 301.39Z" fill="#263238"/>
<path opacity="0.2" d="M233.657 285.637L234.67 294.188L241.839 294.124L240.835 285.572L233.657 285.637Z" fill="black"/>
<path d="M232.637 302.668C233.411 302.654 234.181 302.56 234.935 302.387C234.971 302.381 235.004 302.364 235.029 302.338C235.054 302.312 235.069 302.278 235.072 302.242C235.075 302.207 235.068 302.172 235.05 302.142C235.033 302.112 235.007 302.088 234.976 302.073C234.638 301.904 231.624 300.466 230.796 300.972C230.72 301.021 230.657 301.089 230.615 301.169C230.573 301.249 230.552 301.339 230.555 301.43C230.553 301.585 230.587 301.738 230.654 301.877C230.721 302.016 230.819 302.139 230.941 302.234C231.443 302.56 232.039 302.712 232.637 302.668ZM234.357 302.153C232.805 302.427 231.624 302.37 231.142 301.985C231.058 301.919 230.992 301.835 230.948 301.738C230.905 301.642 230.886 301.536 230.893 301.43C230.888 301.397 230.893 301.364 230.907 301.334C230.922 301.303 230.944 301.278 230.973 301.261C231.423 300.988 233.127 301.631 234.357 302.153Z" fill="#002555"/>
<path d="M234.903 302.435C234.941 302.432 234.978 302.418 235.008 302.394C235.032 302.376 235.05 302.351 235.06 302.323C235.07 302.294 235.072 302.263 235.064 302.234C235.064 302.105 234.501 299.019 232.797 299.212C232.347 299.26 232.219 299.493 232.195 299.67C232.074 300.474 233.915 302.033 234.831 302.419L234.903 302.435ZM232.942 299.541C233.971 299.541 234.485 301.221 234.662 301.952C233.714 301.422 232.46 300.2 232.532 299.718C232.532 299.718 232.532 299.581 232.838 299.549L232.942 299.541Z" fill="#002555"/>
<path d="M237.716 105.061L236.977 105.865L236.286 106.548C235.827 106.998 235.353 107.424 234.879 107.842C233.936 108.689 232.971 109.492 231.986 110.253C229.996 111.835 227.901 113.279 225.716 114.577C224.615 115.228 223.482 115.847 222.333 116.434C221.183 117.021 219.97 117.527 218.748 118.042C216.243 119.041 213.633 119.755 210.968 120.171L210.373 120.26C209.987 120.31 209.597 120.334 209.208 120.332C208.313 120.324 207.427 120.149 206.596 119.818C205.771 119.487 205.016 119.004 204.369 118.395C203.854 117.904 203.405 117.347 203.035 116.739C202.522 115.858 202.135 114.908 201.886 113.918C201.691 113.152 201.548 112.373 201.46 111.588C201.313 110.229 201.273 108.861 201.339 107.497C201.395 106.194 201.5 104.941 201.645 103.711C201.95 101.243 202.384 98.8885 202.914 96.4773C203.445 94.0661 204.048 91.8397 204.827 89.5089L210.108 90.5538C209.915 95.0708 209.698 99.7003 209.843 104.073C209.869 106.103 210.084 108.126 210.486 110.117C210.565 110.484 210.675 110.845 210.815 111.194C210.928 111.467 211.064 111.636 211.056 111.563C211.01 111.441 210.935 111.331 210.839 111.242C210.621 111.03 210.364 110.861 210.084 110.744C209.795 110.622 209.488 110.549 209.176 110.527C209.031 110.527 208.967 110.527 208.878 110.527H208.967L209.135 110.478C211.039 109.989 212.891 109.316 214.665 108.469C216.521 107.573 218.317 106.559 220.042 105.431C221.786 104.274 223.506 103.02 225.162 101.694C225.966 101.034 226.81 100.343 227.573 99.644L228.747 98.5831L229.309 98.0607L229.799 97.5945L237.716 105.061Z" fill="#FF8B7B"/>
<path d="M241.968 102.224C241.695 94.6447 235.474 92.0085 227.678 97.1765C224.241 99.3556 220.932 101.731 217.768 104.29L222.807 120.477C222.807 120.477 232.452 117.415 238.03 111.403C241.783 107.32 242.065 104.804 241.968 102.224Z" fill="#263238"/>
<path opacity="0.2" d="M232.476 105.455C232.476 105.455 227.822 112.11 226.175 119.183C228.462 118.207 230.667 117.046 232.765 115.711L232.476 105.455Z" fill="black"/>
<path d="M209.842 92.9569L212.543 86.8566L204.899 84.6222C204.899 84.6222 203.589 87.5398 204.337 92.547L209.842 92.9569Z" fill="#FF8B7B"/>
<path d="M213.355 79.7034L206.708 80.4991L204.9 84.6222L212.543 86.8566L213.355 79.7034Z" fill="#FF8B7B"/>
<path d="M232.524 157.167C232.524 157.167 227.589 198.528 227.042 220.663C226.48 243.657 230.989 290.041 230.989 290.041L243.937 289.768C243.937 289.768 245.496 240.113 247.377 217.359C249.418 192.556 254.562 156.717 254.562 156.717L232.524 157.167Z" fill="#002555"/>
<path opacity="0.6" d="M232.524 157.167C232.524 157.167 227.589 198.528 227.042 220.663C226.48 243.657 230.989 290.041 230.989 290.041L243.937 289.768C243.937 289.768 245.496 240.113 247.377 217.359C249.418 192.556 254.562 156.717 254.562 156.717L232.524 157.167Z" fill="white"/>
<path opacity="0.2" d="M247.948 168.878C242.161 181.633 243.712 210.126 246.999 222.342C247.12 220.566 247.249 218.886 247.377 217.335C248.719 200.987 251.396 179.857 253.092 167.343C251.516 165.06 249.756 164.883 247.948 168.878Z" fill="black"/>
<path d="M245.528 290.322L230.306 290.628L229.18 285.572L245.344 285.532L245.528 290.322Z" fill="#002555"/>
<path d="M274.768 302.153L267.599 302.218L265.646 285.628L272.815 285.564L274.768 302.153Z" fill="#FF8B7B"/>
<path d="M267.583 301.39L275.42 301.318C275.564 301.321 275.703 301.369 275.818 301.456C275.934 301.542 276.019 301.662 276.062 301.8L277.959 308.157C278.008 308.305 278.02 308.463 277.996 308.616C277.972 308.77 277.911 308.916 277.819 309.042C277.727 309.167 277.607 309.269 277.468 309.339C277.328 309.409 277.175 309.445 277.019 309.443C274.19 309.443 270.099 309.291 266.57 309.323C262.423 309.323 260.566 309.612 255.704 309.66C252.762 309.66 251.685 306.719 252.931 306.445C258.445 305.167 261.298 304.999 265.927 301.969C266.411 301.618 266.986 301.417 267.583 301.39Z" fill="#263238"/>
<path opacity="0.2" d="M265.646 285.637L266.651 294.188L273.828 294.124L272.823 285.572L265.646 285.637Z" fill="black"/>
<path d="M264.625 302.668C265.399 302.653 266.169 302.559 266.924 302.387C266.959 302.381 266.991 302.364 267.014 302.337C267.038 302.311 267.051 302.277 267.053 302.242C267.058 302.208 267.052 302.173 267.036 302.143C267.02 302.113 266.995 302.088 266.964 302.073C266.619 301.904 263.605 300.466 262.785 300.972C262.707 301.02 262.644 301.087 262.601 301.168C262.559 301.248 262.539 301.339 262.544 301.43C262.542 301.584 262.575 301.736 262.641 301.875C262.706 302.014 262.802 302.137 262.921 302.234C263.427 302.559 264.025 302.711 264.625 302.668ZM266.345 302.153C264.794 302.427 263.613 302.37 263.13 301.985C263.047 301.919 262.981 301.834 262.936 301.738C262.892 301.641 262.87 301.536 262.873 301.43C262.868 301.397 262.874 301.364 262.888 301.334C262.902 301.303 262.925 301.278 262.954 301.261C263.404 300.988 265.092 301.631 266.345 302.153Z" fill="#002555"/>
<path d="M266.884 302.435C266.908 302.434 266.933 302.428 266.955 302.417C266.977 302.406 266.997 302.391 267.013 302.372C267.029 302.353 267.04 302.331 267.047 302.307C267.054 302.283 267.056 302.258 267.052 302.234C267.052 302.105 266.49 299.019 264.786 299.212C264.336 299.26 264.207 299.493 264.175 299.67C264.063 300.474 265.903 302.033 266.819 302.419L266.884 302.435ZM264.931 299.541C265.951 299.541 266.474 301.221 266.651 301.952C265.702 301.422 264.44 300.2 264.513 299.718C264.513 299.718 264.513 299.581 264.818 299.549L264.931 299.541Z" fill="#002555"/>
<path d="M245.159 156.894C245.159 156.894 248.736 201.397 251.348 223.355C254.056 246.197 262.978 290.017 262.978 290.017L275.926 289.744C275.926 289.744 272.373 239.992 270.999 217.199C269.496 192.323 269.11 156.348 269.11 156.348L245.159 156.894Z" fill="#002555"/>
<path opacity="0.6" d="M245.159 156.894C245.159 156.894 248.736 201.397 251.348 223.355C254.056 246.197 262.978 290.017 262.978 290.017L275.926 289.744C275.926 289.744 272.373 239.992 270.999 217.199C269.496 192.323 269.11 156.348 269.11 156.348L245.159 156.894Z" fill="white"/>
<path d="M277.517 290.322L262.286 290.628L261.169 285.572L277.332 285.532L277.517 290.322Z" fill="#002555"/>
<path d="M231.632 95.1914C231.632 95.1914 226.335 114.851 232.524 157.167C244.082 156.918 263.492 156.468 269.11 156.364C269.255 150.472 264.907 121.586 269.994 93.7366C266.334 93.1046 262.632 92.7446 258.919 92.6596C253.483 92.4612 248.041 92.5792 242.619 93.0133C238.906 93.4526 235.232 94.1809 231.632 95.1914Z" fill="#263238"/>
<path opacity="0.2" d="M267.776 113.557L261.788 108.598C262.182 112.472 265.686 121.964 267.535 126.77C267.503 122.559 267.543 118.114 267.776 113.557Z" fill="black"/>
<path d="M246.356 106.588L239.822 119.52C239.684 119.792 239.636 120.1 239.684 120.401C239.732 120.702 239.875 120.979 240.091 121.194C240.308 121.408 240.586 121.549 240.888 121.595C241.189 121.641 241.497 121.59 241.767 121.449L246.035 119.103C246.267 118.978 246.529 118.921 246.792 118.938C247.055 118.955 247.308 119.045 247.522 119.199L251.725 122.229C251.967 122.405 252.258 122.498 252.557 122.495C252.855 122.492 253.145 122.393 253.383 122.213C253.621 122.033 253.795 121.781 253.878 121.494C253.962 121.207 253.951 120.902 253.847 120.622L248.936 106.813C248.851 106.551 248.69 106.319 248.474 106.147C248.258 105.975 247.996 105.871 247.721 105.847C247.446 105.823 247.17 105.88 246.927 106.012C246.684 106.144 246.486 106.344 246.356 106.588Z" fill="white"/>
<path d="M256.909 74.3022C255.993 79.5748 255.173 89.2035 258.919 92.6194C258.919 92.6194 257.826 97.3936 247.851 99.0493C241.148 96.8953 242.619 93.0052 242.619 93.0052C248.438 91.4781 248.189 87.1459 247.088 83.0951L256.909 74.3022Z" fill="#FF8B7B"/>
<path opacity="0.2" d="M252.907 77.8789L247.088 83.055C247.359 83.9986 247.547 84.9641 247.65 85.9404C249.885 85.5707 252.899 83.0469 253.084 80.7081C253.197 79.7621 253.137 78.8033 252.907 77.8789Z" fill="black"/>
<path d="M260.1 67.816C258.163 74.6639 257.384 78.771 253.108 81.576C246.678 85.7876 238.793 80.7723 238.64 73.4663C238.496 66.9078 241.679 56.8049 249.089 55.5189C250.717 55.2301 252.391 55.3618 253.954 55.9013C255.516 56.4409 256.915 57.3705 258.018 58.602C259.121 59.8336 259.891 61.3263 260.255 62.9387C260.62 64.5512 260.566 66.23 260.1 67.816Z" fill="#FF8B7B"/>
<path d="M255.977 72.0116C255.077 69.8254 254.426 62.6239 258.179 60.8557C261.933 59.0875 265.831 63.4036 264.842 65.4451C263.323 68.6118 258.067 77.0751 255.977 72.0116Z" fill="#101828"/>
<path d="M258.219 63.3955C257.295 60.9843 246.276 59.6179 244.733 57.0218C242.9 53.9355 250.415 53.5658 255.583 55.1331C260.124 56.5155 263.154 57.8497 262.624 61.2254C262.327 63.1383 258.219 63.3955 258.219 63.3955Z" fill="#101828"/>
<path d="M260.615 60.912C260.615 60.912 263.026 61.5711 264.344 59.8029C263.926 61.555 261.877 63.3232 260.615 60.912Z" fill="#101828"/>
<path d="M249.579 53.4774C246.268 50.9055 241.759 53.9275 242.185 57.2791C242.611 60.6307 253.775 63.1785 253.775 63.1785C253.775 63.1785 253.976 56.8933 249.579 53.4774Z" fill="#101828"/>
<path d="M242.193 57.2951C242.699 59.642 244.411 61.4826 247.875 62.8489C245.87 61.3664 244.351 59.3214 243.511 56.9736L242.193 57.2951Z" fill="#101828"/>
<path d="M271.746 99.218C273.209 101.774 274.431 104.249 275.701 106.797C276.971 109.345 278.112 111.909 279.197 114.529C280.282 117.149 281.335 119.81 282.251 122.567C283.204 125.316 284.009 128.114 284.662 130.95L285.153 133.144C285.367 134.174 285.459 135.226 285.426 136.278C285.358 138.233 284.924 140.158 284.148 141.953C282.783 144.978 280.842 147.708 278.433 149.99C276.285 152.065 273.943 153.93 271.441 155.56C270.227 156.364 268.973 157.103 267.711 157.81C266.45 158.518 265.196 159.169 263.789 159.788L261.121 155.118C262.093 154.314 263.162 153.51 264.159 152.642C265.156 151.774 266.128 150.89 267.093 150.006C268.955 148.278 270.683 146.411 272.261 144.42C273.664 142.713 274.752 140.77 275.476 138.681C275.724 137.903 275.823 137.085 275.765 136.27C275.741 135.943 275.679 135.619 275.58 135.306L275.034 133.505C273.409 128.512 271.477 123.624 269.247 118.869C268.146 116.458 266.972 114.047 265.799 111.636C264.625 109.225 263.387 106.813 262.19 104.523L271.746 99.218Z" fill="#FF8B7B"/>
<path d="M270.268 93.7768C276.971 95.2235 281.632 112.713 281.632 112.713L269.649 123.587C265.839 119.349 262.842 114.444 260.808 109.12C257.633 100.367 263.098 92.2175 270.268 93.7768Z" fill="#263238"/>
<path d="M262.576 154.29L254.868 154.37L259.69 162.143C259.69 162.143 265.18 160.784 265.67 158.027L262.576 154.29Z" fill="#FF8B7B"/>
<path d="M250.07 158.96L254.321 165.197L259.65 162.143L254.868 154.37L250.07 158.96Z" fill="#FF8B7B"/>
<path d="M262.206 74.0852C261.35 75.6608 259.905 76.8339 258.187 77.3484C255.905 78.0155 254.739 75.982 255.35 73.82C255.905 71.8749 257.761 69.1824 260.044 69.4637C262.326 69.745 263.227 72.1482 262.206 74.0852Z" fill="#FF8B7B"/>
<path d="M152.917 104.029C152.881 105.205 152.943 106.383 153.102 107.549C145.819 109.981 138.052 110.596 130.477 109.341C130.84 107.967 131.061 106.558 131.136 105.138C130.882 106.568 130.385 107.943 129.665 109.205C128.234 108.931 127.43 108.698 127.43 108.698C127.43 108.698 128.893 100.79 126.257 95.0348C123.621 89.2801 124.939 86.0651 126.932 85.1569C130.629 73.7921 144.526 75.5844 149.228 80.1979C155.192 86.0491 155.224 102.534 156.285 106.303C155.409 106.681 154.549 107.027 153.689 107.332C153.258 106.279 152.997 105.164 152.917 104.029Z" fill="#263238"/>
<path d="M158.664 121.719L159.387 124.01C159.652 124.813 159.918 125.617 160.191 126.381C160.729 127.988 161.292 129.595 161.895 131.139C162.498 132.682 163.076 134.305 163.703 135.881L164.636 138.292L164.869 138.887L164.925 139.023C164.826 138.936 164.711 138.868 164.587 138.822C164.411 138.758 164.338 138.822 164.451 138.822C164.644 138.822 164.837 138.792 165.021 138.734C165.65 138.535 166.254 138.265 166.822 137.93C168.192 137.132 169.503 136.234 170.744 135.246C172.046 134.233 173.324 133.148 174.578 132.031C175.832 130.914 177.094 129.748 178.307 128.607L180.775 130.697C179.746 132.175 178.661 133.526 177.56 134.9C176.459 136.275 175.221 137.561 173.951 138.838C172.644 140.173 171.221 141.388 169.699 142.471C168.828 143.081 167.893 143.593 166.91 143.998C166.286 144.249 165.632 144.416 164.965 144.497C164.059 144.61 163.14 144.485 162.297 144.135C161.378 143.743 160.595 143.089 160.046 142.254C159.926 142.069 159.813 141.885 159.725 141.716L159.508 141.282L159.218 140.695C158.841 139.891 158.415 139.088 158.085 138.332C157.354 136.725 156.622 135.117 155.955 133.51C155.288 131.902 154.637 130.247 154.018 128.591C153.729 127.787 153.44 126.911 153.166 126.067C152.893 125.223 152.628 124.395 152.363 123.407L158.664 121.719Z" fill="#FFC3BD"/>
<path d="M156.759 114.582C159.532 115.289 161.469 126.686 161.469 126.686L153.833 131.878C153.833 131.878 146.519 120.377 148.649 117.33C150.867 114.164 152.716 113.553 156.759 114.582Z" fill="#002555"/>
<path d="M156.759 114.582C159.532 115.289 161.469 126.686 161.469 126.686L153.833 131.878C153.833 131.878 146.519 120.377 148.649 117.33C150.867 114.164 152.716 113.553 156.759 114.582Z" fill="#002555"/>
<path opacity="0.4" d="M156.759 114.582C159.532 115.289 161.469 126.686 161.469 126.686L153.833 131.878C153.833 131.878 146.519 120.377 148.649 117.33C150.867 114.164 152.716 113.553 156.759 114.582Z" fill="white"/>
<path opacity="0.3" d="M156.51 117.13L158.64 128.615L154.348 131.524L156.51 117.13Z" fill="black"/>
<path d="M178.178 128.88L180.726 122.74L183.869 128.88C183.869 128.88 181.827 131.934 179.135 131.187L178.178 128.88Z" fill="#FFC3BD"/>
<path d="M183.531 122.105L187.566 123.728L183.869 128.88L180.718 122.74L183.531 122.105Z" fill="#FFC3BD"/>
<path d="M141.769 306.449H148.496L148.946 290.881H142.219L141.769 306.449Z" fill="#FFC3BD"/>
<path d="M96.6636 286.396L102.844 289.033L110.938 275.562L104.749 272.926L96.6636 286.396Z" fill="#FFC3BD"/>
<path d="M104.034 288.116L97.6038 284.162C97.4939 284.091 97.3617 284.064 97.2327 284.084C97.1036 284.105 96.9868 284.173 96.9046 284.274L93.0386 288.912C92.9424 289.033 92.8733 289.174 92.836 289.324C92.7986 289.474 92.7939 289.631 92.8221 289.783C92.8502 289.936 92.9107 290.08 92.9993 290.207C93.088 290.334 93.2028 290.441 93.336 290.519C95.6025 291.862 96.7599 292.392 99.5891 294.128C101.333 295.205 103.76 296.941 106.164 298.42C108.567 299.899 110.182 297.616 109.29 296.773C105.392 293.051 105.505 291.283 104.773 289.081C104.652 288.68 104.389 288.338 104.034 288.116Z" fill="#263238"/>
<path d="M148.722 305.67H141.174C141.045 305.669 140.918 305.714 140.82 305.798C140.721 305.882 140.655 306 140.636 306.128L139.776 312.108C139.755 312.261 139.768 312.417 139.813 312.565C139.858 312.713 139.935 312.85 140.038 312.965C140.141 313.081 140.268 313.172 140.41 313.234C140.553 313.295 140.706 313.325 140.861 313.322C143.497 313.281 144.767 313.121 148.095 313.121C150.136 313.121 154.364 313.338 157.185 313.338C160.006 313.338 160.151 310.549 158.977 310.291C153.713 309.158 151.639 307.599 149.863 306.112C149.548 305.832 149.143 305.675 148.722 305.67Z" fill="#263238"/>
<path opacity="0.2" d="M148.938 290.889L148.713 298.91H141.986L142.219 290.889H148.938Z" fill="black"/>
<path opacity="0.2" d="M104.749 272.934L110.93 275.562L106.758 282.506L100.578 279.87L104.749 272.934Z" fill="black"/>
<path d="M156.759 114.582C156.759 114.582 159.974 115.707 153.544 155.146H126.217C126.675 144.039 126.691 137.191 121.395 114.389C125.216 113.599 129.089 113.089 132.984 112.862C137.113 112.564 141.258 112.564 145.386 112.862C150.723 113.344 156.759 114.582 156.759 114.582Z" fill="#002555"/>
<path opacity="0.4" d="M156.759 114.582C156.759 114.582 159.974 115.707 153.544 155.146H126.217C126.675 144.039 126.691 137.191 121.395 114.389C125.216 113.599 129.089 113.089 132.984 112.862C137.113 112.564 141.258 112.564 145.386 112.862C150.723 113.344 156.759 114.582 156.759 114.582Z" fill="white"/>
<path d="M133 112.854C137.129 112.564 141.273 112.564 145.402 112.854C146.069 112.918 146.752 112.99 147.427 113.071C147.708 113.493 147.889 113.974 147.954 114.477C148.02 114.981 147.969 115.492 147.805 115.972C146.929 118.134 143.786 118.383 141.504 118.383C133.057 118.383 131.626 113.448 131.57 113.24L131.489 112.942L133 112.854Z" fill="white"/>
<path d="M134.23 98.9008C135.034 102.919 135.797 110.201 133 112.862C133 112.862 134.094 116.88 141.504 116.88C149.654 116.88 145.402 112.862 145.402 112.862C140.949 111.801 141.07 108.497 141.842 105.403L134.23 98.9008Z" fill="#FFC3BD"/>
<path opacity="0.2" d="M137.333 101.553L141.842 105.395C141.644 106.115 141.515 106.853 141.456 107.597C139.76 107.348 137.437 105.483 137.244 103.707C137.144 102.99 137.174 102.26 137.333 101.553Z" fill="black"/>
<path d="M130.549 91.7796C132.108 98.2658 132.623 101.047 136.529 103.836C142.404 108.023 150.032 104.696 150.441 97.872C150.811 91.7314 148.207 82.1589 141.335 80.6801C139.821 80.3457 138.247 80.4039 136.761 80.8491C135.276 81.2943 133.929 82.1117 132.849 83.2237C131.768 84.3357 130.989 85.7054 130.587 87.2029C130.184 88.7003 130.171 90.2757 130.549 91.7796Z" fill="#FFC3BD"/>
<path d="M153.552 155.146C153.552 155.146 158.848 206.923 158.374 227.418C157.916 248.733 150.104 297.343 150.104 297.343H141.022C141.022 297.343 142.46 249.963 141.657 229.026C140.78 206.2 133.531 155.13 133.531 155.13L153.552 155.146Z" fill="#002555"/>
<path opacity="0.4" d="M153.552 155.146C153.552 155.146 158.848 206.923 158.374 227.418C157.916 248.733 150.104 297.343 150.104 297.343H141.022C141.022 297.343 142.46 249.963 141.657 229.026C140.78 206.2 133.531 155.13 133.531 155.13L153.552 155.146Z" fill="black"/>
<path d="M140.266 297.681H150.924L151.711 294.281L139.768 293.863L140.266 297.681Z" fill="#002555"/>
<path opacity="0.2" d="M141.777 168.03C148.48 181.517 143.119 206.119 140.748 215.274C139.535 201.53 137.485 184.732 135.886 172.378C136.898 165.434 138.683 161.809 141.777 168.03Z" fill="black"/>
<path d="M146.342 155.146C146.342 155.146 140.153 208.997 135.484 226.253C129.946 246.772 108.864 281.711 108.864 281.711L100.433 278.126C100.433 278.126 113.477 238.453 117.721 227.643C126.763 204.576 119.023 170.2 126.249 155.146H146.342Z" fill="#002555"/>
<path opacity="0.4" d="M146.342 155.146C146.342 155.146 140.153 208.997 135.484 226.253C129.946 246.772 108.864 281.711 108.864 281.711L100.433 278.126C100.433 278.126 113.477 238.453 117.721 227.643C126.763 204.576 119.023 170.2 126.249 155.146H146.342Z" fill="black"/>
<path d="M99.2676 278.15L109.732 282.603L112.248 279.79L100.176 273.995L99.2676 278.15Z" fill="#002555"/>
<path d="M132.823 87.978C132.999 89.6872 133.267 91.3855 133.627 93.0656C133.627 93.0656 137.646 87.978 138.313 85.2533C138.153 86.3261 137.842 87.3707 137.389 88.3557C137.389 88.3557 142.798 87.1743 143.328 83.6057C143.319 85.2033 143.141 86.7955 142.798 88.3557C142.798 88.3557 147.958 86.3303 147.484 82.9064C147.009 79.4825 139.085 78.1563 135.428 79.3137C131.771 80.4711 128.194 84.2245 129.271 89.3845C130.348 94.5445 132.413 96.4815 132.413 96.4815C132.413 96.4815 130.927 91.2813 132.823 87.978Z" fill="#263238"/>
<path d="M130.268 96.6664C130.764 97.857 131.712 98.8021 132.904 99.2946C134.511 99.9376 135.468 98.5632 135.186 96.9718C134.937 95.5331 133.804 93.4755 132.14 93.5077C131.776 93.5238 131.422 93.6304 131.109 93.8177C130.797 94.005 130.536 94.2673 130.35 94.5808C130.164 94.8942 130.059 95.249 130.045 95.6131C130.031 95.9773 130.107 96.3392 130.268 96.6664Z" fill="#FFC3BD"/>
<path d="M124.73 123.929C123.613 127.457 122.544 131.163 121.635 134.812C120.721 138.414 120.053 142.074 119.634 145.767L119.57 146.442C119.57 146.659 119.57 146.707 119.57 146.9C119.579 147.279 119.608 147.657 119.658 148.033C119.761 148.913 119.908 149.788 120.1 150.653C120.478 152.446 120.904 154.294 121.451 156.127C121.997 157.959 122.463 159.824 123.01 161.673L124.617 167.218L121.635 168.448C119.803 164.944 118.212 161.375 116.725 157.694C116.009 155.845 115.31 153.981 114.731 152.012C114.442 151.031 114.169 150.026 113.928 148.933C113.813 148.354 113.733 147.769 113.687 147.181C113.687 146.884 113.687 146.442 113.687 146.176V145.373C113.755 143.325 113.943 141.282 114.249 139.256C114.514 137.247 114.908 135.286 115.334 133.333C116.17 129.421 117.244 125.564 118.549 121.783L124.73 123.929Z" fill="#FFC3BD"/>
<path d="M121.411 114.389C118.678 115.193 115.391 124.636 115.391 124.636L126 132.224C126 132.224 129.874 124.363 128.725 120.827C127.527 117.146 124.537 113.44 121.411 114.389Z" fill="#002555"/>
<path opacity="0.4" d="M121.411 114.389C118.678 115.193 115.391 124.636 115.391 124.636L126 132.224C126 132.224 129.874 124.363 128.725 120.827C127.527 117.146 124.537 113.44 121.411 114.389Z" fill="white"/>
<path d="M106.75 290.672C106.881 290.626 107 290.552 107.099 290.455C107.197 290.357 107.273 290.24 107.321 290.11C107.367 290.026 107.392 289.932 107.392 289.836C107.392 289.741 107.367 289.647 107.321 289.563C106.839 288.856 104.403 288.912 104.106 288.92C104.075 288.921 104.045 288.93 104.02 288.947C103.994 288.964 103.974 288.988 103.961 289.017C103.946 289.042 103.938 289.071 103.938 289.101C103.938 289.131 103.946 289.16 103.961 289.185C104.596 289.82 105.786 290.857 106.622 290.696L106.75 290.672ZM104.492 289.209C105.464 289.209 106.766 289.346 107.024 289.724C107.046 289.76 107.057 289.802 107.057 289.844C107.057 289.887 107.046 289.929 107.024 289.965C106.988 290.062 106.929 290.149 106.852 290.217C106.775 290.286 106.682 290.335 106.582 290.359C106.14 290.471 105.368 290.013 104.492 289.209Z" fill="#002555"/>
<path d="M105.207 289.041C105.947 288.808 106.734 288.398 106.903 287.94C106.945 287.82 106.946 287.691 106.905 287.571C106.864 287.451 106.784 287.349 106.678 287.28C106.585 287.202 106.474 287.147 106.356 287.117C106.238 287.088 106.114 287.086 105.995 287.112C105.039 287.28 104.01 288.92 103.97 288.992C103.955 289.017 103.948 289.045 103.948 289.073C103.948 289.101 103.955 289.129 103.97 289.153C103.984 289.177 104.004 289.196 104.028 289.21C104.052 289.224 104.079 289.232 104.106 289.234C104.481 289.223 104.852 289.158 105.207 289.041ZM105.947 287.433H106.051C106.127 287.417 106.205 287.419 106.28 287.437C106.355 287.455 106.425 287.489 106.485 287.538C106.646 287.666 106.63 287.763 106.606 287.835C106.445 288.277 105.223 288.808 104.412 288.912C104.781 288.294 105.312 287.788 105.947 287.449V287.433Z" fill="#002555"/>
<path d="M151.245 306.843C151.812 306.89 152.377 306.746 152.853 306.434C152.963 306.334 153.047 306.208 153.098 306.068C153.148 305.928 153.163 305.777 153.142 305.63C153.136 305.543 153.107 305.459 153.059 305.385C153.012 305.312 152.946 305.253 152.869 305.212C152.065 304.762 149.372 306.128 149.067 306.281C149.037 306.293 149.012 306.314 148.994 306.34C148.977 306.367 148.967 306.398 148.967 306.43C148.967 306.461 148.977 306.493 148.994 306.519C149.012 306.546 149.037 306.566 149.067 306.578C149.782 306.74 150.512 306.829 151.245 306.843ZM152.443 305.453C152.545 305.447 152.647 305.466 152.74 305.509C152.772 305.527 152.798 305.552 152.817 305.583C152.835 305.614 152.845 305.65 152.845 305.686C152.86 305.779 152.851 305.873 152.82 305.962C152.789 306.05 152.737 306.129 152.668 306.192C152.258 306.562 151.149 306.626 149.662 306.377C150.53 305.914 151.47 305.601 152.443 305.453Z" fill="#002555"/>
<path d="M149.164 306.61H149.228C150.032 306.249 151.639 304.802 151.494 304.038C151.494 303.853 151.334 303.636 150.892 303.588C150.733 303.571 150.573 303.586 150.421 303.633C150.269 303.68 150.128 303.758 150.007 303.862C149.204 304.569 149.011 306.377 149.003 306.45C149.002 306.478 149.008 306.506 149.021 306.531C149.033 306.556 149.052 306.578 149.075 306.594C149.101 306.611 149.133 306.617 149.164 306.61ZM150.771 303.886H150.867C151.157 303.886 151.181 304.038 151.181 304.07C151.261 304.529 150.184 305.678 149.364 306.168C149.429 305.404 149.729 304.68 150.224 304.095C150.372 303.961 150.564 303.886 150.763 303.886H150.771Z" fill="#002555"/>
<path d="M125.839 153.547L125.148 155.958C125.051 156.143 125.276 156.336 125.59 156.336H153.721C153.97 156.336 154.171 156.215 154.187 156.062L154.436 153.651C154.436 153.482 154.235 153.338 153.97 153.338H126.289C126.202 153.331 126.116 153.347 126.037 153.383C125.958 153.42 125.89 153.476 125.839 153.547Z" fill="#263238"/>
<path d="M129.552 156.633H128.805C128.66 156.633 128.548 156.561 128.556 156.464L128.901 153.249C128.901 153.161 129.046 153.081 129.191 153.081H129.93C130.083 153.081 130.187 153.161 130.179 153.249L129.834 156.464C129.834 156.593 129.705 156.633 129.552 156.633Z" fill="#002555"/>
<path opacity="0.4" d="M129.552 156.633H128.805C128.66 156.633 128.548 156.561 128.556 156.464L128.901 153.249C128.901 153.161 129.046 153.081 129.191 153.081H129.93C130.083 153.081 130.187 153.161 130.179 153.249L129.834 156.464C129.834 156.593 129.705 156.633 129.552 156.633Z" fill="black"/>
<path d="M151.599 156.633H150.859C150.715 156.633 150.602 156.561 150.61 156.464L150.964 153.249C150.964 153.161 151.101 153.081 151.245 153.081H151.985C152.137 153.081 152.25 153.161 152.234 153.249L151.888 156.464C151.88 156.593 151.752 156.633 151.599 156.633Z" fill="#002555"/>
<path opacity="0.4" d="M151.599 156.633H150.859C150.715 156.633 150.602 156.561 150.61 156.464L150.964 153.249C150.964 153.161 151.101 153.081 151.245 153.081H151.985C152.137 153.081 152.25 153.161 152.234 153.249L151.888 156.464C151.88 156.593 151.752 156.633 151.599 156.633Z" fill="black"/>
<path d="M140.579 156.633H139.84C139.687 156.633 139.575 156.561 139.591 156.464L139.936 153.249C139.936 153.161 140.073 153.081 140.226 153.081H140.965C141.11 153.081 141.222 153.161 141.214 153.249L140.869 156.464C140.861 156.593 140.724 156.633 140.579 156.633Z" fill="#002555"/>
<path opacity="0.4" d="M140.579 156.633H139.84C139.687 156.633 139.575 156.561 139.591 156.464L139.936 153.249C139.936 153.161 140.073 153.081 140.226 153.081H140.965C141.11 153.081 141.222 153.161 141.214 153.249L140.869 156.464C140.861 156.593 140.724 156.633 140.579 156.633Z" fill="black"/>
<path d="M124.392 166.31L130.155 170.731L123.476 172.202C123.476 172.202 120.639 168.987 121.619 166.334L124.392 166.31Z" fill="#FFC3BD"/>
<path d="M131.57 176.204L125.912 177.128L122.825 171.325L130.155 170.731L131.57 176.204Z" fill="#FFC3BD"/>
</g>
<defs>
<clipPath id="clip0_561_24542">
<rect width="356" height="340" fill="white"/>
</clipPath>
</defs>
</svg>
