<svg width="356" height="340" viewBox="0 0 356 340" fill="none" xmlns="http://www.w3.org/2000/svg">
<g clip-path="url(#clip0_403_17338)">
<g opacity="0.25">
<path d="M356 299.802H-36V299.998H356V299.802Z" fill="#D0D5DD"/>
<path d="M316.722 312.416H290.756V312.612H316.722V312.416Z" fill="#D0D5DD"/>
<path d="M280.885 312.416H225.37V312.612H280.885V312.416Z" fill="#D0D5DD"/>
<path d="M194.755 305.141H179.71V305.337H194.755V305.141Z" fill="#D0D5DD"/>
<path d="M149.808 264.835H-1.57466C-2.76058 264.833 -3.89721 264.361 -4.73505 263.521C-5.57289 262.682 -6.04346 261.544 -6.04346 260.359V47.5574C-6.03313 46.3783 -5.55801 45.2509 -4.72129 44.42C-3.88456 43.5892 -2.75382 43.122 -1.57466 43.12H149.808C150.995 43.12 152.134 43.5916 152.973 44.4312C153.813 45.2707 154.285 46.4094 154.285 47.5966V260.359C154.285 261.546 153.813 262.684 152.973 263.524C152.134 264.364 150.995 264.835 149.808 264.835ZM-1.57466 43.2768C-2.70859 43.2789 -3.79538 43.7308 -4.59646 44.5333C-5.39754 45.3359 -5.84746 46.4235 -5.84746 47.5574V260.359C-5.84746 261.492 -5.39754 262.58 -4.59646 263.383C-3.79538 264.185 -2.70859 264.637 -1.57466 264.639H149.808C150.943 264.637 152.03 264.185 152.832 263.383C153.635 262.581 154.086 261.493 154.089 260.359V47.5574C154.086 46.4228 153.635 45.3352 152.832 44.5329C152.03 43.7305 150.943 43.2789 149.808 43.2768H-1.57466Z" fill="#D0D5DD"/>
<path d="M319.395 264.835H168.005C166.818 264.833 165.681 264.361 164.842 263.522C164.002 262.683 163.53 261.545 163.528 260.359V47.5574C163.54 46.3776 164.017 45.2502 164.855 44.4195C165.693 43.5889 166.825 43.122 168.005 43.12H319.395C320.573 43.1241 321.702 43.5922 322.537 44.4228C323.372 45.2534 323.846 46.3797 323.856 47.5574V260.359C323.856 261.543 323.387 262.679 322.55 263.518C321.714 264.358 320.58 264.831 319.395 264.835ZM168.005 43.2768C166.87 43.2789 165.782 43.7305 164.98 44.5329C164.178 45.3352 163.726 46.4228 163.724 47.5574V260.359C163.726 261.493 164.178 262.581 164.98 263.383C165.782 264.185 166.87 264.637 168.005 264.639H319.395C320.53 264.637 321.617 264.185 322.42 263.383C323.222 262.581 323.674 261.493 323.676 260.359V47.5574C323.674 46.4228 323.222 45.3352 322.42 44.5329C321.617 43.7305 320.53 43.2789 319.395 43.2768H168.005Z" fill="#D0D5DD"/>
<path d="M23.4586 151.484H129.847V59.3096L23.4586 59.3096L23.4586 151.484Z" fill="#F9FAFB"/>
<path d="M21.0831 151.484H127.472L127.472 59.3096L21.0831 59.3096L21.0831 151.484Z" fill="#FCFCFD"/>
<path d="M123.23 148.192V62.6024L25.3324 62.6024V148.192H123.23Z" fill="#FAFAFA"/>
<path d="M83.9676 148.192L101.709 62.6024H64.5949L46.8608 148.192H83.9676Z" fill="white"/>
<path d="M27.1199 148.2L27.1199 62.6102H25.3324L25.3324 148.2H27.1199Z" fill="#F9FAFB"/>
<path d="M22.8391 132.849H125.716V128.427H22.8391V132.849Z" fill="#FCFCFD"/>
<path d="M124.908 295.137H141.897V221.464H124.908L124.908 295.137Z" fill="#F9FAFB"/>
<path d="M13.9643 299.802H138.644V295.137H13.9643V299.802Z" fill="#F9FAFB"/>
<path d="M124.908 221.456H10.6951V295.129H124.908V221.456Z" fill="#FCFCFD"/>
<path d="M118.236 230.527H17.3748V254.69H118.236V230.527Z" fill="#F9FAFB"/>
<path d="M118.236 261.903H17.3748V286.066H118.236V261.903Z" fill="#F9FAFB"/>
<path d="M40.6203 244.263H94.9907C95.4288 244.261 95.8484 244.086 96.1582 243.776C96.4679 243.466 96.6429 243.047 96.6449 242.609C96.6429 242.17 96.4682 241.75 96.1586 241.439C95.8491 241.128 95.4295 240.951 94.9907 240.947H40.6203C40.1815 240.951 39.7619 241.128 39.4524 241.439C39.1428 241.75 38.9681 242.17 38.9661 242.609C38.9681 243.047 39.1431 243.466 39.4529 243.776C39.7626 244.086 40.1822 244.261 40.6203 244.263Z" fill="#FCFCFD"/>
<path d="M40.6203 275.639H94.9907C95.4288 275.637 95.8484 275.462 96.1582 275.152C96.4679 274.842 96.6429 274.423 96.6449 273.984C96.645 273.545 96.4709 273.123 96.1609 272.812C95.8509 272.5 95.4302 272.324 94.9907 272.322H40.6203C40.1809 272.324 39.7601 272.5 39.4501 272.812C39.1401 273.123 38.9661 273.545 38.9661 273.984C38.9681 274.423 39.1431 274.842 39.4529 275.152C39.7626 275.462 40.1822 275.637 40.6203 275.639Z" fill="#FCFCFD"/>
<path d="M302.39 107.486C312.065 104.821 315.373 87.267 290.928 80.1013C296.322 97.7569 285.526 112.112 302.39 107.486Z" fill="#D0D5DD"/>
<path d="M304.53 115.107C312.159 106.867 304.946 88.2235 277.475 95.844C293.013 109.439 291.242 129.478 304.53 115.107Z" fill="#EAECF0"/>
<path d="M297.004 117.224C290.622 110.905 299.764 88.9134 320.838 99.1054C308.897 110.544 308.176 128.239 297.004 117.224Z" fill="#FAFAFA"/>
<path d="M290.638 129.532H309.211L310.614 116.965H289.242L290.638 129.532Z" fill="#F9FAFB"/>
<path d="M289.031 119.215H310.826C311.194 119.215 311.547 119.069 311.807 118.809C312.067 118.548 312.214 118.195 312.214 117.827C312.214 117.459 312.067 117.106 311.807 116.846C311.547 116.586 311.194 116.44 310.826 116.44H289.031C288.663 116.44 288.31 116.586 288.05 116.846C287.789 117.106 287.643 117.459 287.643 117.827C287.643 118.195 287.789 118.548 288.05 118.809C288.31 119.069 288.663 119.215 289.031 119.215Z" fill="#F9FAFB"/>
<path d="M134.371 278.516V257.23H152.097V235.953H169.831V214.667H187.558V193.381H205.292V172.104H223.018V150.818H240.752V129.532H258.486H356V299.802H134.371H116.637V278.516H134.371Z" fill="#FAFAFA"/>
<path d="M231.885 278.516V257.23H249.619V235.953H267.345V214.667H285.079V193.381H302.806V172.104H320.54V150.818H338.266V129.532H356V150.818V299.802H231.885H214.159V278.516H231.885Z" fill="#EAECF0"/>
<path d="M214.159 278.516H115.594V284.898H214.159V278.516Z" fill="#D0D5DD"/>
<path d="M231.893 257.23H133.328V263.612H231.893V257.23Z" fill="#D0D5DD"/>
<path d="M249.619 235.953H151.055V242.334H249.619V235.953Z" fill="#D0D5DD"/>
<path d="M267.353 214.667H168.789V221.049H267.353V214.667Z" fill="#D0D5DD"/>
<path d="M285.079 193.381H186.515V199.763H285.079V193.381Z" fill="#D0D5DD"/>
<path d="M302.813 172.104H204.249V178.485H302.813V172.104Z" fill="#D0D5DD"/>
<path d="M320.54 150.818H221.975V157.2H320.54V150.818Z" fill="#D0D5DD"/>
<path d="M338.274 129.532H239.709V135.914H338.274V129.532Z" fill="#D0D5DD"/>
</g>
<path d="M160 335.207C243.953 335.207 312.01 331.234 312.01 326.332C312.01 321.431 243.953 317.457 160 317.457C76.0473 317.457 7.99023 321.431 7.99023 326.332C7.99023 331.234 76.0473 335.207 160 335.207Z" fill="#FCFCFD"/>
<path d="M226.405 124.366C226.264 126.718 225.989 128.874 225.683 131.108C225.378 133.343 224.962 135.53 224.492 137.725C223.575 142.168 222.249 146.517 220.532 150.716L219.819 152.284L219.647 152.676L219.584 152.88L219.458 153.131C219.219 153.623 218.916 154.082 218.557 154.495C218.129 154.976 217.62 155.377 217.052 155.679C216.494 155.971 215.889 156.163 215.264 156.243C214.305 156.346 213.335 156.244 212.418 155.945C211.119 155.502 209.893 154.868 208.78 154.064C207.807 153.378 206.878 152.631 205.997 151.829C202.697 148.77 199.728 145.372 197.138 141.692L199.733 139.489C201.301 140.94 202.869 142.406 204.437 143.793C205.996 145.181 207.623 146.489 209.313 147.713C210.109 148.283 210.936 148.806 211.791 149.281C212.48 149.699 213.224 150.019 214.002 150.23C214.268 150.285 214.457 150.23 214.37 150.23C214.185 150.251 214.012 150.33 213.876 150.457C213.829 150.457 213.829 150.457 213.876 150.457L214.127 149.807L214.676 148.38C216.036 144.451 217.097 140.426 217.851 136.338C218.267 134.284 218.557 132.19 218.87 130.113C219.184 128.035 219.404 125.895 219.584 123.911L226.405 124.366Z" fill="#FFC3BD"/>
<path d="M221.654 115.734C218.729 116.479 216.683 128.505 216.683 128.505L224.735 133.993C224.735 133.993 232.457 121.865 230.223 118.651C227.871 115.287 225.919 114.652 221.654 115.734Z" fill="#002555"/>
<path d="M221.654 115.734C218.729 116.479 216.683 128.505 216.683 128.505L224.735 133.993C224.735 133.993 232.457 121.865 230.223 118.651C227.871 115.287 225.919 114.652 221.654 115.734Z" fill="#002555"/>
<path opacity="0.4" d="M221.654 115.734C218.729 116.479 216.683 128.505 216.683 128.505L224.735 133.993C224.735 133.993 232.457 121.865 230.223 118.651C227.871 115.287 225.919 114.652 221.654 115.734Z" fill="black"/>
<path opacity="0.3" d="M221.912 118.423L219.67 130.536L224.194 133.609L221.912 118.423Z" fill="black"/>
<path d="M199.866 138.995L196.064 132.943L193.892 139.819C193.892 139.819 197.028 143.111 199.874 142.327L199.866 138.995Z" fill="#FFC3BD"/>
<path d="M190.419 130.944L188.914 136.792L193.861 139.819L196.033 132.943L190.419 130.944Z" fill="#FFC3BD"/>
<path d="M237.459 318.108H230.372L229.894 301.691H236.989L237.459 318.108Z" fill="#FFC3BD"/>
<path d="M300.014 285.18L294.613 289.774L282.249 278.736L287.651 274.149L300.014 285.18Z" fill="#FFC3BD"/>
<path d="M293.131 289.225L298.376 283.22C298.466 283.117 298.59 283.049 298.725 283.03C298.861 283.012 298.999 283.043 299.113 283.118L304.452 286.576C304.584 286.667 304.694 286.785 304.777 286.923C304.86 287.06 304.913 287.213 304.932 287.373C304.951 287.532 304.936 287.693 304.889 287.846C304.841 288 304.762 288.141 304.656 288.261C302.79 290.323 301.786 291.225 299.481 293.859C298.07 295.482 296.165 298.006 294.205 300.241C292.245 302.475 289.924 300.672 290.544 299.559C293.296 294.588 292.637 292.848 292.684 290.401C292.691 289.969 292.849 289.553 293.131 289.225Z" fill="#263238"/>
<path d="M230.129 317.293H238.094C238.231 317.291 238.364 317.34 238.468 317.429C238.572 317.519 238.64 317.643 238.659 317.779L239.568 324.051C239.594 324.216 239.582 324.386 239.535 324.547C239.487 324.707 239.404 324.856 239.293 324.981C239.181 325.106 239.043 325.205 238.889 325.27C238.734 325.336 238.567 325.367 238.4 325.36C235.625 325.313 234.284 325.148 230.779 325.148C228.623 325.148 224.17 325.376 221.191 325.376C218.212 325.376 218.055 322.428 219.302 322.169C224.852 320.97 227.04 319.323 228.914 317.747C229.25 317.454 229.682 317.293 230.129 317.293Z" fill="#263238"/>
<path opacity="0.2" d="M229.901 301.699L230.144 310.158H237.232L236.989 301.699H229.901Z" fill="black"/>
<path opacity="0.2" d="M287.659 274.149L282.249 278.736L288.631 284.427L294.033 279.833L287.659 274.149Z" fill="black"/>
<path d="M221.654 115.734C221.654 115.734 218.275 116.926 225.04 158.525H253.829C253.351 146.804 253.335 139.576 258.933 115.53C254.903 114.699 250.818 114.16 246.71 113.915C242.357 113.605 237.987 113.605 233.633 113.915C228.02 114.464 221.654 115.734 221.654 115.734Z" fill="#002555"/>
<path opacity="0.4" d="M221.654 115.734C221.654 115.734 218.275 116.926 225.04 158.525H253.829C253.351 146.804 253.335 139.576 258.933 115.53C254.903 114.699 250.818 114.16 246.71 113.915C242.357 113.605 237.987 113.605 233.633 113.915C228.02 114.464 221.654 115.734 221.654 115.734Z" fill="black"/>
<path d="M246.71 113.915C242.357 113.605 237.987 113.605 233.633 113.915C232.928 113.978 232.206 114.056 231.493 114.143C231.198 114.588 231.009 115.096 230.941 115.626C230.873 116.156 230.928 116.695 231.101 117.2C232.018 119.482 235.327 119.748 237.741 119.748C246.655 119.748 248.161 114.542 248.223 114.323L248.31 114.009C247.808 113.978 247.243 113.939 246.71 113.915Z" fill="white"/>
<path d="M245.456 99.1995C244.625 103.402 243.81 111.108 246.75 113.915C246.75 113.915 245.597 118.188 237.781 118.188C229.157 118.188 233.672 113.923 233.672 113.923C238.376 112.802 238.243 109.321 237.428 106.083L245.456 99.1995Z" fill="#FFC3BD"/>
<path opacity="0.2" d="M242.139 101.991L237.388 106.044C237.593 106.814 237.729 107.601 237.796 108.396C239.584 108.137 242.045 106.169 242.241 104.296C242.351 103.528 242.317 102.746 242.139 101.991Z" fill="black"/>
<path d="M240.525 76.3224C239.796 73.8528 239.184 69.9642 243.574 68.208C241.857 66.1069 241.442 62.1555 243.574 59.8114C245.707 57.4672 248.906 58.3296 248.906 58.3296C248.906 58.3296 249.846 52.5986 256.816 53.6256C263.786 54.6526 260.681 59.239 260.681 59.239C260.681 59.239 270.191 57.3574 270.826 66.295C271.461 75.2326 266.005 74.135 266.005 74.135C266.005 74.135 270.246 77.6944 267.894 81.6066C265.542 85.5187 260.109 84.1702 260.109 84.1702C260.109 84.1702 257.553 91.0851 251.532 87.1494C245.511 83.2138 240.525 76.3224 240.525 76.3224Z" fill="#263238"/>
<path d="M226.405 81.536C224.053 84.5779 225.087 88.0197 227.189 89.376C232.245 92.6061 239.56 79.0586 237.655 77.4357C235.75 75.8128 228.757 78.4863 226.405 81.536Z" fill="#263238"/>
<path d="M247.643 74.2919C244.319 72.9512 240.948 74.3546 239.897 76.3773C237.334 81.3086 248.976 90.1914 252.347 84.0291C254.346 80.3679 251.069 75.6717 247.643 74.2919Z" fill="#002555"/>
<path d="M246.24 89.376C246.483 96.432 246.734 99.3799 243.543 103.308C238.753 109.211 230.058 107.972 227.722 101.152C225.621 95.013 225.581 84.5466 232.159 81.1127C233.605 80.3478 235.223 79.9653 236.858 80.0014C238.493 80.0375 240.092 80.491 241.503 81.319C242.914 82.1469 244.09 83.3217 244.919 84.7319C245.748 86.142 246.202 87.7407 246.24 89.376Z" fill="#FFC3BD"/>
<path d="M245.181 93.0686C242.045 91.9005 241.261 88.2392 241.763 86.7966C240.195 86.7339 236.769 86.1694 235.491 84.2251C233.045 85.7931 227.879 87.3611 227.322 84.7504C226.765 82.1397 234.558 75.4286 240.454 74.9112C247.463 74.2997 254.378 81.1832 252.598 87.7766C250.818 94.3701 245.181 93.0686 245.181 93.0686Z" fill="#263238"/>
<path d="M225.072 158.525C225.072 158.525 219.482 213.13 219.944 234.753C220.431 257.238 228.67 308.52 228.67 308.52H238.251C238.251 308.52 236.738 258.547 237.584 236.47C238.51 212.393 246.154 158.525 246.154 158.525H225.072Z" fill="#263238"/>
<path d="M239.051 308.865H227.808L226.977 305.282L239.576 304.843L239.051 308.865Z" fill="#002555"/>
<path opacity="0.2" d="M237.459 172.112C230.403 186.333 236.04 212.284 238.541 221.943C239.819 207.439 241.983 189.712 243.668 176.698C242.602 169.344 240.752 165.549 237.459 172.112Z" fill="black"/>
<path d="M232.645 158.525C232.645 158.525 239.168 215.294 244.092 233.522C249.94 255.161 286.263 284.286 286.263 284.286L293.633 278.014C293.633 278.014 267.306 246.372 262.829 234.973C253.288 210.669 261.457 174.385 253.829 158.509L232.645 158.525Z" fill="#263238"/>
<path d="M294.809 277.693L285.667 285.454L282.249 283.408L292.59 273.788L294.809 277.693Z" fill="#002555"/>
<path d="M247.886 94.2446C247.715 95.5938 247.016 96.82 245.942 97.655C244.507 98.7526 243.128 97.655 242.963 95.9381C242.822 94.3701 243.386 92.0181 245.095 91.5634C245.468 91.4874 245.854 91.5031 246.22 91.6091C246.585 91.7151 246.92 91.9082 247.194 92.1719C247.469 92.4356 247.675 92.762 247.796 93.123C247.916 93.484 247.947 93.8689 247.886 94.2446Z" fill="#FFC3BD"/>
<path d="M261.873 123.174C263.471 127.085 264.851 131.082 266.004 135.146C267.227 139.246 268.098 143.442 268.607 147.69C268.741 148.772 268.78 149.909 268.827 151.03V151.665C268.827 151.892 268.788 152.127 268.756 152.331C268.691 152.723 268.602 153.111 268.49 153.492C268.285 154.144 268.023 154.776 267.706 155.381C266.619 157.391 265.286 159.258 263.739 160.94C260.877 164.083 257.727 166.952 254.331 169.509L252.065 166.992C254.676 163.942 257.31 160.814 259.544 157.584C260.624 156.118 261.544 154.541 262.288 152.88C262.416 152.559 262.521 152.228 262.602 151.892C262.623 151.778 262.636 151.663 262.641 151.547C262.645 151.513 262.645 151.479 262.641 151.445V151.336C262.539 150.41 262.469 149.485 262.296 148.537C261.622 144.664 260.681 140.842 259.482 137.098C258.282 133.304 256.941 129.454 255.562 125.785L261.873 123.174Z" fill="#FFC3BD"/>
<path d="M258.933 115.53C261.818 116.408 265.283 126.342 265.283 126.342L254.08 134.338C254.08 134.338 249.995 126.051 251.21 122.32C252.512 118.439 255.648 114.527 258.933 115.53Z" fill="#002555"/>
<path opacity="0.4" d="M258.933 115.53C261.818 116.408 265.283 126.342 265.283 126.342L254.08 134.338C254.08 134.338 249.995 126.051 251.21 122.32C252.512 118.439 255.648 114.527 258.933 115.53Z" fill="black"/>
<path d="M291.194 292.644C291.049 292.64 290.907 292.603 290.778 292.537C290.649 292.47 290.537 292.376 290.45 292.26C290.379 292.186 290.328 292.095 290.303 291.996C290.278 291.897 290.28 291.793 290.309 291.695C290.575 290.833 293.037 290.127 293.319 290.049C293.35 290.038 293.383 290.037 293.415 290.047C293.446 290.057 293.473 290.077 293.492 290.104C293.509 290.13 293.518 290.162 293.518 290.194C293.518 290.226 293.509 290.257 293.492 290.284C293.053 291.123 292.182 292.534 291.289 292.636L291.194 292.644ZM293.013 290.488C292.041 290.801 290.771 291.342 290.661 291.797C290.65 291.84 290.65 291.886 290.662 291.928C290.675 291.971 290.699 292.01 290.732 292.04C290.795 292.13 290.88 292.202 290.979 292.249C291.078 292.295 291.187 292.315 291.296 292.307C291.751 292.252 292.386 291.577 293.013 290.488Z" fill="#002555"/>
<path d="M292.237 290.519C291.504 290.594 290.769 290.386 290.183 289.939C290.101 289.835 290.056 289.707 290.056 289.574C290.056 289.442 290.101 289.314 290.183 289.21C290.253 289.101 290.346 289.009 290.456 288.942C290.566 288.874 290.69 288.831 290.818 288.818C291.837 288.692 293.382 290.025 293.444 290.08C293.467 290.098 293.485 290.123 293.494 290.151C293.504 290.178 293.506 290.208 293.499 290.237C293.496 290.267 293.484 290.296 293.464 290.32C293.445 290.344 293.419 290.361 293.39 290.37C293.015 290.477 292.627 290.527 292.237 290.519ZM290.991 289.147H290.881C290.801 289.156 290.723 289.183 290.654 289.225C290.585 289.266 290.526 289.323 290.481 289.39C290.363 289.57 290.403 289.664 290.481 289.727C290.787 290.127 292.182 290.276 293.029 290.119C292.449 289.618 291.745 289.282 290.991 289.147Z" fill="#002555"/>
<path d="M227.463 318.531C226.857 318.586 226.251 318.431 225.746 318.092C225.638 317.994 225.555 317.872 225.502 317.736C225.449 317.6 225.428 317.454 225.44 317.308C225.447 317.215 225.477 317.126 225.528 317.047C225.578 316.969 225.648 316.905 225.73 316.861C226.601 316.383 229.423 317.826 229.745 317.998C229.774 318.015 229.799 318.041 229.814 318.071C229.829 318.102 229.835 318.137 229.831 318.171C229.826 318.205 229.811 318.238 229.787 318.263C229.763 318.288 229.732 318.305 229.698 318.312C228.961 318.453 228.213 318.527 227.463 318.531ZM226.201 317.065C226.093 317.058 225.985 317.08 225.887 317.128C225.854 317.144 225.826 317.17 225.806 317.202C225.787 317.234 225.777 317.271 225.778 317.308C225.765 317.406 225.776 317.506 225.81 317.599C225.844 317.692 225.9 317.775 225.974 317.841C226.405 318.233 227.542 318.296 229.11 318.037C228.203 317.55 227.219 317.221 226.201 317.065Z" fill="#002555"/>
<path d="M229.666 318.304H229.596C228.749 317.92 227.079 316.391 227.244 315.591C227.244 315.403 227.408 315.16 227.871 315.113C228.038 315.096 228.207 315.112 228.367 315.162C228.527 315.212 228.676 315.294 228.804 315.403C229.69 316.148 229.854 318.053 229.862 318.139C229.864 318.168 229.859 318.197 229.847 318.223C229.834 318.249 229.815 318.272 229.792 318.288C229.773 318.3 229.752 318.307 229.731 318.31C229.709 318.313 229.687 318.311 229.666 318.304ZM227.973 315.427H227.879C227.565 315.427 227.549 315.584 227.541 315.623C227.463 316.101 228.6 317.308 229.462 317.826C229.392 317.02 229.074 316.256 228.553 315.638C228.394 315.493 228.188 315.409 227.973 315.403V315.427Z" fill="#002555"/>
<path d="M254.26 156.8L254.997 159.379C255.099 159.575 254.864 159.779 254.527 159.779H224.899C224.641 159.779 224.421 159.654 224.405 159.489L224.147 156.918C224.147 156.737 224.351 156.588 224.641 156.588H253.798C253.886 156.581 253.976 156.596 254.057 156.633C254.138 156.67 254.208 156.728 254.26 156.8Z" fill="#002555"/>
<path opacity="0.3" d="M254.26 156.8L254.997 159.379C255.099 159.575 254.864 159.779 254.527 159.779H224.899C224.641 159.779 224.421 159.654 224.405 159.489L224.147 156.918C224.147 156.737 224.351 156.588 224.641 156.588H253.798C253.886 156.581 253.976 156.596 254.057 156.633C254.138 156.67 254.208 156.728 254.26 156.8Z" fill="white"/>
<path d="M250.348 160.093H251.132C251.281 160.093 251.399 160.014 251.391 159.912L251.022 156.565C251.022 156.471 250.881 156.384 250.724 156.384H249.94C249.783 156.384 249.666 156.471 249.682 156.565L250.042 159.912C250.058 160.014 250.16 160.093 250.348 160.093Z" fill="#263238"/>
<path d="M227.095 160.093H227.879C228.036 160.093 228.153 160.014 228.145 159.912L227.777 156.565C227.777 156.471 227.628 156.384 227.479 156.384H226.695C226.538 156.384 226.421 156.471 226.428 156.565L226.797 159.912C226.805 160.014 226.938 160.093 227.095 160.093Z" fill="#263238"/>
<path d="M238.721 160.093H239.505C239.662 160.093 239.78 160.014 239.772 159.912L239.403 156.565C239.403 156.471 239.262 156.384 239.105 156.384H238.321C238.165 156.384 238.047 156.471 238.063 156.565L238.4 159.936C238.4 160.014 238.564 160.093 238.721 160.093Z" fill="#263238"/>
<path d="M244.382 168.356C251.932 172.864 259.113 177.819 266.169 182.931C273.225 188.042 280.101 193.366 286.867 198.83C293.633 204.295 300.273 209.916 306.679 215.82C309.888 218.767 313.024 221.794 316.087 224.898C319.16 228.034 322.178 231.17 325.024 234.573C325.682 235.361 326.044 236.353 326.049 237.379C326.054 238.405 325.702 239.401 325.052 240.195C324.403 240.99 323.497 241.533 322.49 241.731C321.483 241.93 320.439 241.772 319.536 241.284C315.616 239.167 311.947 236.831 308.286 234.44C304.624 232.048 301.049 229.555 297.521 226.992C290.465 221.88 283.637 216.494 276.949 210.935C270.262 205.377 263.676 199.693 257.271 193.781C250.866 187.87 244.586 181.817 238.674 175.31C237.936 174.505 237.513 173.461 237.482 172.37C237.452 171.278 237.815 170.212 238.507 169.367C239.199 168.522 240.172 167.954 241.248 167.769C242.324 167.583 243.431 167.792 244.366 168.356H244.382Z" fill="#002555"/>
<path d="M252.818 166.208L245.244 167.36L250.662 172.112C250.662 172.112 254.942 170.544 255.366 167.643L252.818 166.208Z" fill="#FFC3BD"/>
<path d="M241.152 171.712L245.911 175.444L251.72 171.649L245.244 167.376L241.152 171.712Z" fill="#FFC3BD"/>
<path opacity="0.2" d="M209.251 191.21C195.968 196.37 181.454 197.476 167.543 194.387C153.632 191.298 140.949 184.154 131.098 173.857C121.248 163.561 114.671 150.574 112.201 136.54C109.731 122.506 111.477 108.055 117.22 95.0136C122.963 81.9723 132.444 70.9267 144.464 63.2736C156.485 55.6205 170.504 51.7036 184.751 52.0182C198.997 52.3329 212.83 56.8649 224.501 65.0411C236.171 73.2174 245.155 84.6708 250.317 97.953C253.745 106.773 255.403 116.181 255.194 125.641C254.986 135.102 252.916 144.428 249.102 153.088C245.289 161.748 239.807 169.572 232.969 176.113C226.131 182.654 218.072 187.784 209.251 191.21Z" fill="#002555"/>
<path opacity="0.1" d="M196.213 53.1944L139.702 181.535C138.832 180.877 137.97 180.195 137.123 179.505C131.661 174.986 126.905 169.677 123.011 163.754L171.823 52.8965C179.91 51.594 188.16 51.6948 196.213 53.1944Z" fill="white"/>
<path opacity="0.1" d="M236.385 75.46L183.253 196.125C172.217 196.137 161.326 193.61 151.423 188.74L209.439 56.9733C219.717 60.9929 228.936 67.3174 236.385 75.46Z" fill="white"/>
<path d="M123.842 75.5149C133.443 63.784 146.306 55.1634 160.806 50.7432C175.306 46.3231 190.791 46.3019 205.303 50.6824C219.815 55.0628 232.702 63.6482 242.335 75.3529C251.967 87.0575 257.913 101.356 259.419 116.439C260.926 131.523 257.926 146.715 250.798 160.093C243.671 173.472 232.736 184.436 219.377 191.6C206.018 198.765 190.835 201.806 175.747 200.341C160.66 198.876 146.345 192.97 134.614 183.37C118.885 170.495 108.914 151.899 106.894 131.673C104.874 111.447 110.97 91.2466 123.842 75.5149ZM237.616 168.623C246.429 157.85 251.849 144.707 253.192 130.854C254.535 117.001 251.74 103.061 245.16 90.7968C238.581 78.5324 228.513 68.4944 216.229 61.952C203.944 55.4096 189.996 52.6567 176.147 54.0413C162.299 55.426 149.171 60.886 138.426 69.7311C127.68 78.5761 119.798 90.4088 115.777 103.733C111.757 117.057 111.777 131.275 115.836 144.587C119.895 157.9 127.81 169.71 138.581 178.525C145.734 184.378 153.969 188.765 162.818 191.435C171.666 194.105 180.953 195.006 190.15 194.087C199.346 193.167 208.271 190.445 216.416 186.076C224.56 181.707 231.764 175.776 237.616 168.623Z" fill="#002555"/>
</g>
<defs>
<clipPath id="clip0_403_17338">
<rect width="356" height="340" fill="white"/>
</clipPath>
</defs>
</svg>
